<?xml version="1.0" encoding="UTF-8"?>
<svg id="Capa_1_copia" data-name="Capa 1 copia" xmlns="http://www.w3.org/2000/svg" viewBox="0 0 241.85 467.16">
  <defs>
    <style>
      .cls-1 {
        fill: #000;
      }

      .cls-1, .cls-2 {
        stroke-width: 0px;
      }

      .cls-3 {
        stroke-width: 1.5px;
      }

      .cls-3, .cls-4, .cls-5 {
        fill: none;
      }

      .cls-3, .cls-5 {
        stroke: #000;
        stroke-miterlimit: 10;
      }

      .cls-2 {
        fill: #1d1d1b;
      }

      .cls-4 {
        stroke: #fff;
        stroke-width: 4px;
      }

      .cls-5 {
        stroke-width: 3px;
      }
    </style>
  </defs>
  <line class="cls-3" x1="113.12" y1="331.94" x2="113.12" y2="373.83"/>
  <g>
    <g>
      <path class="cls-4" d="M94.99,357.09c-.2.12-.55.22-.96.22-1.27,0-2.12-1.02-2.12-2.94,0-1.67.84-3.02,2.29-3.02.31,0,.65.08.82.18l-.18.76c-.12-.06-.36-.16-.66-.16-.92,0-1.34,1.1-1.34,2.24,0,1.35.52,2.17,1.37,2.17.25,0,.46-.06.67-.16l.12.71Z"/>
      <path class="cls-4" d="M99.27,354.33c0,2.24-1.04,3-1.93,3-1.04,0-1.88-.95-1.88-2.99s.95-3.01,1.94-3.01,1.87.97,1.87,3ZM96.38,354.33c0,.96.17,2.27,1.01,2.27.79,0,.95-1.37.95-2.27s-.16-2.25-.97-2.25-.98,1.37-.98,2.25Z"/>
      <path class="cls-4" d="M100.3,352.92c0-.68-.04-1.03-.05-1.5h.8l.05.72h.02c.25-.47.7-.82,1.31-.82.54,0,1,.26,1.21.89h.02c.16-.29.36-.52.58-.66.23-.16.5-.23.8-.23.78,0,1.39.58,1.39,2.05v3.85h-.91v-3.63c0-.76-.11-1.49-.82-1.49-.38,0-.72.32-.85.86-.02.16-.04.34-.04.53v3.73h-.91v-3.8c0-.65-.12-1.32-.8-1.32-.37,0-.76.32-.86.94-.02.16-.04.32-.04.5v3.68h-.91v-4.31Z"/>
      <path class="cls-4" d="M111.31,354.33c0,2.24-1.04,3-1.93,3-1.04,0-1.88-.95-1.88-2.99s.95-3.01,1.94-3.01,1.87.97,1.87,3ZM108.42,354.33c0,.96.17,2.27,1.01,2.27.79,0,.95-1.37.95-2.27s-.16-2.25-.97-2.25-.98,1.37-.98,2.25Z"/>
      <path class="cls-4" d="M114.22,348.93h.92v8.3h-.92v-8.3Z"/>
      <path class="cls-4" d="M118.81,357.23l-.06-.61h-.04c-.25.44-.66.71-1.15.71-.78,0-1.38-.66-1.38-1.65,0-1.45,1.16-2.1,2.47-2.11v-.18c0-.78-.19-1.32-.92-1.32-.36,0-.68.12-.96.3l-.2-.65c.24-.18.78-.38,1.36-.38,1.16,0,1.67.77,1.67,2.08v2.51c0,.44,0,.95.06,1.32h-.84ZM118.68,354.23c-.48,0-1.6.08-1.6,1.34,0,.76.38,1.03.71,1.03.41,0,.76-.3.86-.88.02-.11.02-.23.02-.32v-1.18Z"/>
      <path class="cls-4" d="M120.73,356.27c.2.13.56.3.93.3.53,0,.85-.32.85-.84,0-.44-.16-.74-.74-1.14-.76-.49-1.16-.98-1.16-1.65,0-.94.7-1.61,1.59-1.61.46,0,.8.16,1.04.3l-.25.7c-.22-.14-.47-.25-.77-.25-.5,0-.76.36-.76.73,0,.4.14.61.72,1.01.67.43,1.2.96,1.2,1.76,0,1.16-.79,1.73-1.74,1.73-.43,0-.9-.13-1.15-.34l.23-.7Z"/>
      <path class="cls-4" d="M129.73,348.93v6.91c0,.4.04,1.06.05,1.39h-.79l-.06-.73h-.04c-.19.42-.6.83-1.21.83-.98,0-1.69-1.07-1.69-2.97,0-2.06.85-3.02,1.75-3.02.42,0,.83.2,1.06.7h.02v-3.09h.91ZM128.81,353.63c0-.12,0-.25-.01-.38-.06-.6-.42-1.13-.86-1.13-.77,0-1.03,1.07-1.03,2.23,0,1.22.31,2.21.98,2.21.29,0,.68-.16.89-1,.02-.11.04-.24.04-.38v-1.55Z"/>
      <path class="cls-4" d="M131.67,354.41c.01,1.77.71,2.16,1.38,2.16.4,0,.73-.1.96-.23l.14.68c-.32.18-.82.28-1.27.28-1.39,0-2.11-1.14-2.11-2.91,0-1.88.79-3.06,1.96-3.06s1.66,1.25,1.66,2.57c0,.22,0,.37-.01.52h-2.7ZM133.49,353.73c.02-1.16-.42-1.68-.86-1.68-.6,0-.91.89-.95,1.68h1.81Z"/>
    </g>
    <g>
      <path class="cls-2" d="M94.99,357.09c-.2.12-.55.22-.96.22-1.27,0-2.12-1.02-2.12-2.94,0-1.67.84-3.02,2.29-3.02.31,0,.65.08.82.18l-.18.76c-.12-.06-.36-.16-.66-.16-.92,0-1.34,1.1-1.34,2.24,0,1.35.52,2.17,1.37,2.17.25,0,.46-.06.67-.16l.12.71Z"/>
      <path class="cls-2" d="M99.27,354.33c0,2.24-1.04,3-1.93,3-1.04,0-1.88-.95-1.88-2.99s.95-3.01,1.94-3.01,1.87.97,1.87,3ZM96.38,354.33c0,.96.17,2.27,1.01,2.27.79,0,.95-1.37.95-2.27s-.16-2.25-.97-2.25-.98,1.37-.98,2.25Z"/>
      <path class="cls-2" d="M100.3,352.92c0-.68-.04-1.03-.05-1.5h.8l.05.72h.02c.25-.47.7-.82,1.31-.82.54,0,1,.26,1.21.89h.02c.16-.29.36-.52.58-.66.23-.16.5-.23.8-.23.78,0,1.39.58,1.39,2.05v3.85h-.91v-3.63c0-.76-.11-1.49-.82-1.49-.38,0-.72.32-.85.86-.02.16-.04.34-.04.53v3.73h-.91v-3.8c0-.65-.12-1.32-.8-1.32-.37,0-.76.32-.86.94-.02.16-.04.32-.04.5v3.68h-.91v-4.31Z"/>
      <path class="cls-2" d="M111.31,354.33c0,2.24-1.04,3-1.93,3-1.04,0-1.88-.95-1.88-2.99s.95-3.01,1.94-3.01,1.87.97,1.87,3ZM108.42,354.33c0,.96.17,2.27,1.01,2.27.79,0,.95-1.37.95-2.27s-.16-2.25-.97-2.25-.98,1.37-.98,2.25Z"/>
      <path class="cls-2" d="M114.22,348.93h.92v8.3h-.92v-8.3Z"/>
      <path class="cls-2" d="M118.81,357.23l-.06-.61h-.04c-.25.44-.66.71-1.15.71-.78,0-1.38-.66-1.38-1.65,0-1.45,1.16-2.1,2.47-2.11v-.18c0-.78-.19-1.32-.92-1.32-.36,0-.68.12-.96.3l-.2-.65c.24-.18.78-.38,1.36-.38,1.16,0,1.67.77,1.67,2.08v2.51c0,.44,0,.95.06,1.32h-.84ZM118.68,354.23c-.48,0-1.6.08-1.6,1.34,0,.76.38,1.03.71,1.03.41,0,.76-.3.86-.88.02-.11.02-.23.02-.32v-1.18Z"/>
      <path class="cls-2" d="M120.73,356.27c.2.13.56.3.93.3.53,0,.85-.32.85-.84,0-.44-.16-.74-.74-1.14-.76-.49-1.16-.98-1.16-1.65,0-.94.7-1.61,1.59-1.61.46,0,.8.16,1.04.3l-.25.7c-.22-.14-.47-.25-.77-.25-.5,0-.76.36-.76.73,0,.4.14.61.72,1.01.67.43,1.2.96,1.2,1.76,0,1.16-.79,1.73-1.74,1.73-.43,0-.9-.13-1.15-.34l.23-.7Z"/>
      <path class="cls-2" d="M129.73,348.93v6.91c0,.4.04,1.06.05,1.39h-.79l-.06-.73h-.04c-.19.42-.6.83-1.21.83-.98,0-1.69-1.07-1.69-2.97,0-2.06.85-3.02,1.75-3.02.42,0,.83.2,1.06.7h.02v-3.09h.91ZM128.81,353.63c0-.12,0-.25-.01-.38-.06-.6-.42-1.13-.86-1.13-.77,0-1.03,1.07-1.03,2.23,0,1.22.31,2.21.98,2.21.29,0,.68-.16.89-1,.02-.11.04-.24.04-.38v-1.55Z"/>
      <path class="cls-2" d="M131.67,354.41c.01,1.77.71,2.16,1.38,2.16.4,0,.73-.1.96-.23l.14.68c-.32.18-.82.28-1.27.28-1.39,0-2.11-1.14-2.11-2.91,0-1.88.79-3.06,1.96-3.06s1.66,1.25,1.66,2.57c0,.22,0,.37-.01.52h-2.7ZM133.49,353.73c.02-1.16-.42-1.68-.86-1.68-.6,0-.91.89-.95,1.68h1.81Z"/>
    </g>
    <g>
      <path class="cls-1" d="M94.99,357.09c-.2.12-.55.22-.96.22-1.27,0-2.12-1.02-2.12-2.94,0-1.67.84-3.02,2.29-3.02.31,0,.65.08.82.18l-.18.76c-.12-.06-.36-.16-.66-.16-.92,0-1.34,1.1-1.34,2.24,0,1.35.52,2.17,1.37,2.17.25,0,.46-.06.67-.16l.12.71Z"/>
      <path class="cls-1" d="M99.27,354.33c0,2.24-1.04,3-1.93,3-1.04,0-1.88-.95-1.88-2.99s.95-3.01,1.94-3.01,1.87.97,1.87,3ZM96.38,354.33c0,.96.17,2.27,1.01,2.27.79,0,.95-1.37.95-2.27s-.16-2.25-.97-2.25-.98,1.37-.98,2.25Z"/>
      <path class="cls-1" d="M100.3,352.92c0-.68-.04-1.03-.05-1.5h.8l.05.72h.02c.25-.47.7-.82,1.31-.82.54,0,1,.26,1.21.89h.02c.16-.29.36-.52.58-.66.23-.16.5-.23.8-.23.78,0,1.39.58,1.39,2.05v3.85h-.91v-3.63c0-.76-.11-1.49-.82-1.49-.38,0-.72.32-.85.86-.02.16-.04.34-.04.53v3.73h-.91v-3.8c0-.65-.12-1.32-.8-1.32-.37,0-.76.32-.86.94-.02.16-.04.32-.04.5v3.68h-.91v-4.31Z"/>
      <path class="cls-1" d="M111.31,354.33c0,2.24-1.04,3-1.93,3-1.04,0-1.88-.95-1.88-2.99s.95-3.01,1.94-3.01,1.87.97,1.87,3ZM108.42,354.33c0,.96.17,2.27,1.01,2.27.79,0,.95-1.37.95-2.27s-.16-2.25-.97-2.25-.98,1.37-.98,2.25Z"/>
      <path class="cls-1" d="M114.22,348.93h.92v8.3h-.92v-8.3Z"/>
      <path class="cls-1" d="M118.81,357.23l-.06-.61h-.04c-.25.44-.66.71-1.15.71-.78,0-1.38-.66-1.38-1.65,0-1.45,1.16-2.1,2.47-2.11v-.18c0-.78-.19-1.32-.92-1.32-.36,0-.68.12-.96.3l-.2-.65c.24-.18.78-.38,1.36-.38,1.16,0,1.67.77,1.67,2.08v2.51c0,.44,0,.95.06,1.32h-.84ZM118.68,354.23c-.48,0-1.6.08-1.6,1.34,0,.76.38,1.03.71,1.03.41,0,.76-.3.86-.88.02-.11.02-.23.02-.32v-1.18Z"/>
      <path class="cls-1" d="M120.73,356.27c.2.13.56.3.93.3.53,0,.85-.32.85-.84,0-.44-.16-.74-.74-1.14-.76-.49-1.16-.98-1.16-1.65,0-.94.7-1.61,1.59-1.61.46,0,.8.16,1.04.3l-.25.7c-.22-.14-.47-.25-.77-.25-.5,0-.76.36-.76.73,0,.4.14.61.72,1.01.67.43,1.2.96,1.2,1.76,0,1.16-.79,1.73-1.74,1.73-.43,0-.9-.13-1.15-.34l.23-.7Z"/>
      <path class="cls-1" d="M129.73,348.93v6.91c0,.4.04,1.06.05,1.39h-.79l-.06-.73h-.04c-.19.42-.6.83-1.21.83-.98,0-1.69-1.07-1.69-2.97,0-2.06.85-3.02,1.75-3.02.42,0,.83.2,1.06.7h.02v-3.09h.91ZM128.81,353.63c0-.12,0-.25-.01-.38-.06-.6-.42-1.13-.86-1.13-.77,0-1.03,1.07-1.03,2.23,0,1.22.31,2.21.98,2.21.29,0,.68-.16.89-1,.02-.11.04-.24.04-.38v-1.55Z"/>
      <path class="cls-1" d="M131.67,354.41c.01,1.77.71,2.16,1.38,2.16.4,0,.73-.1.96-.23l.14.68c-.32.18-.82.28-1.27.28-1.39,0-2.11-1.14-2.11-2.91,0-1.88.79-3.06,1.96-3.06s1.66,1.25,1.66,2.57c0,.22,0,.37-.01.52h-2.7ZM133.49,353.73c.02-1.16-.42-1.68-.86-1.68-.6,0-.91.89-.95,1.68h1.81Z"/>
    </g>
  </g>
  <g>
    <path class="cls-1" d="M15.9,386.77h-2.71v4.05h3.07v1.07h-4.31v-10.79h4.11v1.07h-2.88v3.55h2.71v1.04Z"/>
    <path class="cls-1" d="M17.63,391.89v-10.79h1.17l1.98,5.06c.45,1.15,1.01,2.59,1.38,3.76h.03c-.1-1.7-.14-3.09-.14-4.96v-3.86h1.1v10.79h-1.17l-2.05-5.19c-.43-1.09-.9-2.32-1.28-3.67h-.03c.1,1.44.13,2.82.13,5.12v3.73h-1.12Z"/>
    <path class="cls-1" d="M25.07,381.1h4.11v1.07h-2.88v3.78h2.69v1.04h-2.69v4.9h-1.23v-10.79Z"/>
    <path class="cls-1" d="M34.52,386.77h-2.71v4.05h3.07v1.07h-4.31v-10.79h4.11v1.07h-2.88v3.55h2.71v1.04Z"/>
    <path class="cls-1" d="M36.25,381.26c.53-.14,1.17-.21,1.78-.21,1.07,0,1.87.22,2.43.77.53.54.75,1.26.75,2.11,0,1.38-.64,2.27-1.73,2.77v.03c.8.24,1.22,1.01,1.46,2.42.24,1.49.46,2.4.61,2.74h-1.25c-.16-.32-.37-1.34-.58-2.67-.24-1.47-.7-2.03-1.76-2.03h-.48v4.71h-1.23v-10.63ZM37.48,386.24h.51c1.18,0,1.97-.86,1.97-2.16s-.51-2.02-1.84-2.03c-.24,0-.48.02-.64.06v4.13Z"/>
    <path class="cls-1" d="M49.32,387.25c-.08-1.42-.16-3.01-.11-4.23h-.06c-.24,1.2-.53,2.48-.87,3.75l-1.33,5.06h-.78l-1.26-4.85c-.35-1.38-.67-2.71-.88-3.95h-.05c0,1.26-.06,2.77-.13,4.31l-.21,4.56h-1.1l.64-10.79h1.33l1.26,4.93c.37,1.42.64,2.48.86,3.71h.05c.21-1.23.45-2.26.8-3.71l1.22-4.93h1.38l.62,10.79h-1.15l-.22-4.64Z"/>
    <path class="cls-1" d="M56.32,386.77h-2.71v4.05h3.07v1.07h-4.31v-10.79h4.11v1.07h-2.88v3.55h2.71v1.04Z"/>
    <path class="cls-1" d="M58.04,381.26c.48-.14,1.04-.21,1.67-.21,1.14,0,1.94.29,2.53.82.83.72,1.46,2.11,1.46,4.37,0,2.47-.61,3.81-1.3,4.55-.71.8-1.73,1.17-2.98,1.17-.5,0-1.01-.03-1.38-.11v-10.58ZM59.27,390.88c.18.03.35.03.46.03,1.36,0,2.67-.98,2.67-4.64,0-2.72-.83-4.21-2.56-4.21-.19,0-.42.02-.58.06v8.76Z"/>
    <path class="cls-1" d="M66.14,388.66l-.72,3.23h-1.18l2.46-10.79h1.36l2.4,10.79h-1.22l-.72-3.23h-2.38ZM68.36,387.67l-.56-2.74c-.16-.77-.3-1.66-.43-2.46h-.06c-.13.82-.29,1.74-.43,2.46l-.56,2.74h2.05Z"/>
    <path class="cls-1" d="M71.8,381.26c.48-.14,1.04-.21,1.67-.21,1.14,0,1.94.29,2.53.82.83.72,1.46,2.11,1.46,4.37,0,2.47-.61,3.81-1.3,4.55-.71.8-1.73,1.17-2.98,1.17-.5,0-1.01-.03-1.38-.11v-10.58ZM73.03,390.88c.18.03.35.03.46.03,1.36,0,2.67-.98,2.67-4.64,0-2.72-.83-4.21-2.56-4.21-.19,0-.42.02-.58.06v8.76Z"/>
    <path class="cls-1" d="M82.86,386.77h-2.71v4.05h3.07v1.07h-4.31v-10.79h4.11v1.07h-2.88v3.55h2.71v1.04Z"/>
    <path class="cls-1" d="M84.35,390.47c.37.24,1.01.43,1.55.43,1.12,0,1.79-.74,1.79-1.83,0-.99-.58-1.6-1.42-2.24-.85-.59-2.03-1.6-2.03-2.99,0-1.63,1.14-2.83,2.85-2.83.67,0,1.26.21,1.52.4l-.3,1.06c-.27-.19-.72-.37-1.28-.37-1.06,0-1.55.8-1.55,1.54,0,1.07.56,1.49,1.58,2.22,1.3.91,1.87,1.9,1.87,3.11,0,1.86-1.31,3.03-3.03,3.03-.74,0-1.52-.24-1.82-.46l.27-1.06Z"/>
    <path class="cls-1" d="M92.87,381.26c.48-.14,1.04-.21,1.67-.21,1.14,0,1.94.29,2.53.82.83.72,1.46,2.11,1.46,4.37,0,2.47-.61,3.81-1.3,4.55-.71.8-1.73,1.17-2.98,1.17-.5,0-1.01-.03-1.38-.11v-10.58ZM94.11,390.88c.18.03.35.03.46.03,1.36,0,2.67-.98,2.67-4.64,0-2.72-.83-4.21-2.56-4.21-.19,0-.42.02-.58.06v8.76Z"/>
    <path class="cls-1" d="M103.93,386.77h-2.71v4.05h3.07v1.07h-4.31v-10.79h4.11v1.07h-2.88v3.55h2.71v1.04Z"/>
    <path class="cls-1" d="M108.87,382.21h-1.97v-1.1h5.17v1.1h-1.97v9.68h-1.23v-9.68Z"/>
    <path class="cls-1" d="M113.27,381.26c.53-.14,1.17-.21,1.78-.21,1.07,0,1.87.22,2.43.77.53.54.75,1.26.75,2.11,0,1.38-.64,2.27-1.73,2.77v.03c.8.24,1.22,1.01,1.46,2.42.24,1.49.46,2.4.61,2.74h-1.25c-.16-.32-.37-1.34-.58-2.67-.24-1.47-.7-2.03-1.76-2.03h-.48v4.71h-1.23v-10.63ZM114.51,386.24h.51c1.18,0,1.97-.86,1.97-2.16s-.51-2.02-1.84-2.03c-.24,0-.48.02-.64.06v4.13Z"/>
    <path class="cls-1" d="M121.21,388.66l-.72,3.23h-1.18l2.46-10.79h1.36l2.4,10.79h-1.22l-.72-3.23h-2.38ZM123.43,387.67l-.56-2.74c-.16-.77-.3-1.66-.43-2.46h-.06c-.13.82-.29,1.74-.43,2.46l-.56,2.74h2.05Z"/>
    <path class="cls-1" d="M126.87,391.89v-10.79h1.17l1.98,5.06c.45,1.15,1.01,2.59,1.38,3.76h.03c-.1-1.7-.14-3.09-.14-4.96v-3.86h1.1v10.79h-1.17l-2.05-5.19c-.43-1.09-.9-2.32-1.28-3.67h-.03c.1,1.44.13,2.82.13,5.12v3.73h-1.12Z"/>
    <path class="cls-1" d="M134.07,390.47c.37.24,1.01.43,1.55.43,1.12,0,1.79-.74,1.79-1.83,0-.99-.58-1.6-1.42-2.24-.85-.59-2.03-1.6-2.03-2.99,0-1.63,1.14-2.83,2.85-2.83.67,0,1.26.21,1.52.4l-.3,1.06c-.27-.19-.72-.37-1.28-.37-1.06,0-1.55.8-1.55,1.54,0,1.07.56,1.49,1.58,2.22,1.3.91,1.87,1.9,1.87,3.11,0,1.86-1.31,3.03-3.03,3.03-.74,0-1.52-.24-1.82-.46l.27-1.06Z"/>
    <path class="cls-1" d="M146.62,387.25c-.08-1.42-.16-3.01-.11-4.23h-.06c-.24,1.2-.53,2.48-.87,3.75l-1.33,5.06h-.78l-1.26-4.85c-.35-1.38-.67-2.71-.88-3.95h-.05c0,1.26-.06,2.77-.13,4.31l-.21,4.56h-1.1l.64-10.79h1.33l1.26,4.93c.37,1.42.64,2.48.86,3.71h.05c.21-1.23.45-2.26.8-3.71l1.22-4.93h1.38l.62,10.79h-1.15l-.22-4.64Z"/>
    <path class="cls-1" d="M150.91,381.1v10.79h-1.23v-10.79h1.23Z"/>
    <path class="cls-1" d="M152.62,390.47c.37.24,1.01.43,1.55.43,1.12,0,1.79-.74,1.79-1.83,0-.99-.58-1.6-1.42-2.24-.85-.59-2.03-1.6-2.03-2.99,0-1.63,1.14-2.83,2.85-2.83.67,0,1.26.21,1.52.4l-.3,1.06c-.27-.19-.72-.37-1.28-.37-1.06,0-1.55.8-1.55,1.54,0,1.07.56,1.49,1.58,2.22,1.3.91,1.87,1.9,1.87,3.11,0,1.86-1.31,3.03-3.03,3.03-.74,0-1.52-.24-1.82-.46l.27-1.06Z"/>
    <path class="cls-1" d="M159.87,381.1v10.79h-1.23v-10.79h1.23Z"/>
    <path class="cls-1" d="M167.48,386.42c0,4.05-1.39,5.6-3.12,5.6s-2.99-1.9-2.99-5.54,1.28-5.51,3.17-5.51,2.95,2,2.95,5.44ZM162.65,386.5c0,2.22.43,4.43,1.79,4.43s1.76-2.35,1.76-4.47-.37-4.4-1.78-4.4-1.78,2.24-1.78,4.43ZM166.62,378.8l-1.99,1.73h-.98l1.5-1.73h1.46Z"/>
    <path class="cls-1" d="M168.95,391.89v-10.79h1.17l1.98,5.06c.45,1.15,1.01,2.59,1.38,3.76h.03c-.1-1.7-.14-3.09-.14-4.96v-3.86h1.1v10.79h-1.17l-2.05-5.19c-.43-1.09-.9-2.32-1.28-3.67h-.03c.1,1.44.13,2.82.13,5.12v3.73h-1.12Z"/>
    <path class="cls-1" d="M178.66,390.47c.37.24,1.01.43,1.55.43,1.12,0,1.79-.74,1.79-1.83,0-.99-.58-1.6-1.42-2.24-.85-.59-2.03-1.6-2.03-2.99,0-1.63,1.14-2.83,2.85-2.83.67,0,1.26.21,1.52.4l-.3,1.06c-.27-.19-.72-.37-1.28-.37-1.06,0-1.55.8-1.55,1.54,0,1.07.56,1.49,1.58,2.22,1.3.91,1.87,1.9,1.87,3.11,0,1.86-1.31,3.03-3.03,3.03-.74,0-1.52-.24-1.82-.46l.27-1.06Z"/>
    <path class="cls-1" d="M188.62,386.77h-2.71v4.05h3.07v1.07h-4.31v-10.79h4.11v1.07h-2.88v3.55h2.71v1.04Z"/>
    <path class="cls-1" d="M194.14,391.89l-.98-2.59c-.22-.59-.42-1.15-.66-1.89h-.05c-.24.72-.45,1.34-.66,1.92l-.93,2.56h-1.26l2.23-5.51-2.15-5.28h1.28l.96,2.5c.21.5.38,1.01.64,1.71h.03c.24-.75.4-1.23.58-1.76l.88-2.45h1.26l-2.11,5.25,2.23,5.54h-1.3Z"/>
    <path class="cls-1" d="M197.83,381.1v7.24c0,1.94.64,2.59,1.47,2.59.91,0,1.49-.7,1.49-2.59v-7.24h1.23v7.04c0,2.8-1.15,3.87-2.75,3.87s-2.67-1.06-2.67-3.73v-7.19h1.23Z"/>
    <path class="cls-1" d="M205.03,388.66l-.72,3.23h-1.18l2.46-10.79h1.36l2.4,10.79h-1.22l-.72-3.23h-2.38ZM207.26,387.67l-.56-2.74c-.16-.77-.3-1.66-.43-2.46h-.06c-.13.82-.29,1.74-.43,2.46l-.56,2.74h2.05Z"/>
    <path class="cls-1" d="M210.7,381.1h1.23v9.75h3.04v1.04h-4.27v-10.79Z"/>
  </g>
  <rect class="cls-3" x="5.08" y="373.83" width="216.07" height="25.34" rx="7.06" ry="7.06"/>
  <line class="cls-3" x1="113.12" y1="399.17" x2="113.12" y2="441.06"/>
  <g>
    <g>
      <path class="cls-4" d="M64.04,420.47c0-.89-.04-1.4-.05-1.81h.83l.05.74h.02c.31-.62.77-.84,1.22-.84,1.01,0,1.68,1.08,1.68,2.99,0,2.15-.89,3.01-1.8,3.01-.54,0-.85-.35-1.01-.67h-.02v2.88h-.92v-6.3ZM64.96,422.33c0,.18,0,.35.04.48.18.83.6.98.85.98.77,0,1.01-1.06,1.01-2.23s-.29-2.21-1.02-2.21c-.42,0-.79.53-.85,1.06-.02.14-.02.29-.02.44v1.48Z"/>
      <path class="cls-4" d="M71.13,424.46l-.06-.61h-.04c-.25.44-.66.71-1.15.71-.78,0-1.38-.66-1.38-1.65,0-1.45,1.16-2.1,2.47-2.11v-.18c0-.78-.19-1.32-.92-1.32-.36,0-.68.12-.96.3l-.2-.65c.24-.18.78-.38,1.36-.38,1.16,0,1.67.77,1.67,2.08v2.51c0,.44,0,.95.06,1.32h-.84ZM70.99,421.47c-.48,0-1.6.08-1.6,1.34,0,.76.38,1.03.71,1.03.41,0,.76-.3.86-.88.02-.11.02-.23.02-.32v-1.18Z"/>
      <path class="cls-4" d="M73.19,420.16c0-.49-.04-1.07-.05-1.5h.83l.05.91h.02c.19-.55.68-1.01,1.22-1.01.07,0,.13.01.19.01v.95c-.06-.01-.12-.01-.19-.01-.59,0-1.02.54-1.12,1.21-.02.16-.04.34-.04.53v3.21h-.92v-4.31Z"/>
      <path class="cls-4" d="M78.4,424.46l-.06-.61h-.04c-.25.44-.66.71-1.15.71-.78,0-1.38-.66-1.38-1.65,0-1.45,1.16-2.1,2.47-2.11v-.18c0-.78-.19-1.32-.92-1.32-.36,0-.68.12-.96.3l-.2-.65c.24-.18.78-.38,1.36-.38,1.16,0,1.67.77,1.67,2.08v2.51c0,.44,0,.95.06,1.32h-.84ZM78.27,421.47c-.48,0-1.6.08-1.6,1.34,0,.76.38,1.03.71,1.03.41,0,.76-.3.86-.88.02-.11.02-.23.02-.32v-1.18Z"/>
      <path class="cls-4" d="M84.94,423.86h-.04c-.19.4-.59.7-1.12.7-.94,0-1.68-1.02-1.68-2.93,0-2.05.86-3.07,1.82-3.07.37,0,.8.17,1.08.77h.02s.05-.67.05-.67h.83c-.02.41-.05.92-.05,1.81v6.3h-.92v-2.9ZM84.94,420.83c0-.12,0-.28-.02-.38-.07-.61-.43-1.09-.84-1.09-.75,0-1.04,1.01-1.04,2.23s.31,2.21,1.02,2.21c.29,0,.65-.17.84-.97.05-.14.05-.34.05-.49v-1.5Z"/>
      <path class="cls-4" d="M90.63,422.88c0,.65.04,1.15.05,1.58h-.8l-.06-.61h-.02c-.18.29-.62.71-1.25.71-1.02,0-1.42-.79-1.42-2.23v-3.67h.92v3.54c0,.91.14,1.58.78,1.58.54,0,.78-.5.83-.77.04-.16.05-.34.05-.53v-3.83h.92v4.22Z"/>
      <path class="cls-4" d="M92.57,421.65c.01,1.77.71,2.16,1.38,2.16.4,0,.73-.1.96-.23l.14.68c-.32.18-.82.28-1.27.28-1.39,0-2.11-1.14-2.11-2.91,0-1.88.79-3.06,1.96-3.06s1.66,1.25,1.66,2.57c0,.22,0,.37-.01.52h-2.7ZM94.39,420.96c.02-1.16-.42-1.68-.86-1.68-.6,0-.91.89-.95,1.68h1.81Z"/>
      <path class="cls-4" d="M98.01,423.5c.2.13.56.3.93.3.53,0,.85-.32.85-.84,0-.44-.16-.74-.74-1.14-.76-.49-1.16-.98-1.16-1.65,0-.94.7-1.61,1.59-1.61.46,0,.8.16,1.04.3l-.25.7c-.22-.14-.47-.25-.77-.25-.5,0-.76.36-.76.73,0,.4.14.61.72,1.01.67.43,1.2.96,1.2,1.76,0,1.16-.79,1.73-1.74,1.73-.43,0-.9-.13-1.15-.34l.23-.7Z"/>
      <path class="cls-4" d="M102.28,421.65c.01,1.77.71,2.16,1.38,2.16.4,0,.73-.1.96-.23l.14.68c-.32.18-.82.28-1.27.28-1.39,0-2.11-1.14-2.11-2.91,0-1.88.79-3.06,1.96-3.06s1.66,1.25,1.66,2.57c0,.22,0,.37-.01.52h-2.7ZM104.1,420.96c.02-1.16-.42-1.68-.86-1.68-.6,0-.91.89-.95,1.68h1.81Z"/>
      <path class="cls-4" d="M108.28,424.46l-.06-.61h-.04c-.25.44-.66.71-1.15.71-.78,0-1.38-.66-1.38-1.65,0-1.45,1.16-2.1,2.47-2.11v-.18c0-.78-.19-1.32-.92-1.32-.36,0-.68.12-.96.3l-.2-.65c.24-.18.78-.38,1.36-.38,1.16,0,1.67.77,1.67,2.08v2.51c0,.44,0,.95.06,1.32h-.84ZM108.15,421.47c-.48,0-1.6.08-1.6,1.34,0,.76.38,1.03.71,1.03.41,0,.76-.3.86-.88.02-.11.02-.23.02-.32v-1.18Z"/>
      <path class="cls-4" d="M114.53,424.46l-.06-.61h-.04c-.25.44-.66.71-1.15.71-.78,0-1.38-.66-1.38-1.65,0-1.45,1.16-2.1,2.47-2.11v-.18c0-.78-.19-1.32-.92-1.32-.36,0-.68.12-.96.3l-.2-.65c.24-.18.78-.38,1.36-.38,1.16,0,1.67.77,1.67,2.08v2.51c0,.44,0,.95.06,1.32h-.84ZM114.4,421.47c-.48,0-1.6.08-1.6,1.34,0,.76.38,1.03.71,1.03.41,0,.76-.3.86-.88.02-.11.02-.23.02-.32v-1.18Z"/>
      <path class="cls-4" d="M119.44,424.32c-.2.12-.55.22-.96.22-1.27,0-2.12-1.02-2.12-2.94,0-1.67.84-3.02,2.29-3.02.31,0,.65.08.82.18l-.18.76c-.12-.06-.36-.16-.66-.16-.92,0-1.34,1.1-1.34,2.24,0,1.35.52,2.17,1.37,2.17.25,0,.46-.06.67-.16l.12.71Z"/>
      <path class="cls-4" d="M122.99,424.32c-.2.12-.55.22-.96.22-1.27,0-2.12-1.02-2.12-2.94,0-1.67.84-3.02,2.29-3.02.31,0,.65.08.82.18l-.18.76c-.12-.06-.36-.16-.66-.16-.92,0-1.34,1.1-1.34,2.24,0,1.35.52,2.17,1.37,2.17.25,0,.46-.06.67-.16l.12.71Z"/>
      <path class="cls-4" d="M124.36,421.65c.01,1.77.71,2.16,1.38,2.16.4,0,.73-.1.96-.23l.14.68c-.32.18-.82.28-1.27.28-1.39,0-2.11-1.14-2.11-2.91,0-1.88.79-3.06,1.96-3.06s1.66,1.25,1.66,2.57c0,.22,0,.37-.01.52h-2.7ZM126.18,420.96c.02-1.16-.42-1.68-.86-1.68-.6,0-.91.89-.95,1.68h1.81Z"/>
      <path class="cls-4" d="M127.91,423.5c.2.13.56.3.93.3.53,0,.85-.32.85-.84,0-.44-.16-.74-.74-1.14-.76-.49-1.16-.98-1.16-1.65,0-.94.7-1.61,1.59-1.61.46,0,.8.16,1.04.3l-.25.7c-.22-.14-.47-.25-.77-.25-.5,0-.76.36-.76.73,0,.4.14.61.72,1.01.67.43,1.2.96,1.2,1.76,0,1.16-.79,1.73-1.74,1.73-.43,0-.9-.13-1.15-.34l.23-.7Z"/>
      <path class="cls-4" d="M132.53,417.16c.01.36-.22.6-.56.6-.3,0-.53-.24-.53-.6s.24-.6.54-.6c.33,0,.55.24.55.6ZM131.53,424.46v-5.8h.92v5.8h-.92Z"/>
      <path class="cls-4" d="M133.68,424.46c.01-.34.05-1,.05-1.39v-6.91h.92v3.18h.02c.3-.58.73-.78,1.22-.78.9,0,1.58,1.04,1.58,2.94,0,2.1-.86,3.06-1.76,3.06-.61,0-.92-.36-1.15-.85h-.04l-.06.76h-.79ZM134.65,422.41c0,.13,0,.26.04.36.22.86.61,1.02.86,1.02.74,0,1.01-1.01,1.01-2.24,0-1.16-.28-2.19-1.02-2.19-.43,0-.79.54-.86,1.03-.02.13-.02.28-.02.41v1.62Z"/>
      <path class="cls-4" d="M138.53,416.17h.92v8.3h-.92v-8.3Z"/>
      <path class="cls-4" d="M141.47,421.65c.01,1.77.71,2.16,1.38,2.16.4,0,.73-.1.96-.23l.14.68c-.32.18-.82.28-1.27.28-1.39,0-2.11-1.14-2.11-2.91,0-1.88.79-3.06,1.96-3.06s1.66,1.25,1.66,2.57c0,.22,0,.37-.01.52h-2.7ZM143.29,420.96c.02-1.16-.42-1.68-.86-1.68-.6,0-.91.89-.95,1.68h1.81Z"/>
      <path class="cls-4" d="M147.05,420.47c0-.89-.04-1.4-.05-1.81h.83l.05.74h.02c.31-.62.77-.84,1.22-.84,1.01,0,1.68,1.08,1.68,2.99,0,2.15-.89,3.01-1.8,3.01-.54,0-.85-.35-1.01-.67h-.02v2.88h-.92v-6.3ZM147.97,422.33c0,.18,0,.35.04.48.18.83.6.98.85.98.77,0,1.01-1.06,1.01-2.23s-.29-2.21-1.02-2.21c-.42,0-.79.53-.85,1.06-.02.14-.02.29-.02.44v1.48Z"/>
      <path class="cls-4" d="M154.14,424.46l-.06-.61h-.04c-.25.44-.66.71-1.15.71-.78,0-1.38-.66-1.38-1.65,0-1.45,1.16-2.1,2.47-2.11v-.18c0-.78-.19-1.32-.92-1.32-.36,0-.68.12-.96.3l-.2-.65c.24-.18.78-.38,1.36-.38,1.16,0,1.67.77,1.67,2.08v2.51c0,.44,0,.95.06,1.32h-.84ZM154.01,421.47c-.48,0-1.6.08-1.6,1.34,0,.76.38,1.03.71,1.03.41,0,.76-.3.86-.88.02-.11.02-.23.02-.32v-1.18Z"/>
      <path class="cls-4" d="M156.21,420.16c0-.49-.04-1.07-.05-1.5h.83l.05.91h.02c.19-.55.68-1.01,1.22-1.01.07,0,.13.01.19.01v.95c-.06-.01-.12-.01-.19-.01-.59,0-1.02.54-1.12,1.21-.02.16-.04.34-.04.53v3.21h-.92v-4.31Z"/>
      <path class="cls-4" d="M161.41,424.46l-.06-.61h-.04c-.25.44-.66.71-1.15.71-.78,0-1.38-.66-1.38-1.65,0-1.45,1.16-2.1,2.47-2.11v-.18c0-.78-.19-1.32-.92-1.32-.36,0-.68.12-.96.3l-.2-.65c.24-.18.78-.38,1.36-.38,1.16,0,1.67.77,1.67,2.08v2.51c0,.44,0,.95.06,1.32h-.84ZM161.28,421.47c-.48,0-1.6.08-1.6,1.34,0,.76.38,1.03.71,1.03.41,0,.76-.3.86-.88.02-.11.02-.23.02-.32v-1.18Z"/>
    </g>
    <g>
      <path class="cls-2" d="M64.04,420.47c0-.89-.04-1.4-.05-1.81h.83l.05.74h.02c.31-.62.77-.84,1.22-.84,1.01,0,1.68,1.08,1.68,2.99,0,2.15-.89,3.01-1.8,3.01-.54,0-.85-.35-1.01-.67h-.02v2.88h-.92v-6.3ZM64.96,422.33c0,.18,0,.35.04.48.18.83.6.98.85.98.77,0,1.01-1.06,1.01-2.23s-.29-2.21-1.02-2.21c-.42,0-.79.53-.85,1.06-.02.14-.02.29-.02.44v1.48Z"/>
      <path class="cls-2" d="M71.13,424.46l-.06-.61h-.04c-.25.44-.66.71-1.15.71-.78,0-1.38-.66-1.38-1.65,0-1.45,1.16-2.1,2.47-2.11v-.18c0-.78-.19-1.32-.92-1.32-.36,0-.68.12-.96.3l-.2-.65c.24-.18.78-.38,1.36-.38,1.16,0,1.67.77,1.67,2.08v2.51c0,.44,0,.95.06,1.32h-.84ZM70.99,421.47c-.48,0-1.6.08-1.6,1.34,0,.76.38,1.03.71,1.03.41,0,.76-.3.86-.88.02-.11.02-.23.02-.32v-1.18Z"/>
      <path class="cls-2" d="M73.19,420.16c0-.49-.04-1.07-.05-1.5h.83l.05.91h.02c.19-.55.68-1.01,1.22-1.01.07,0,.13.01.19.01v.95c-.06-.01-.12-.01-.19-.01-.59,0-1.02.54-1.12,1.21-.02.16-.04.34-.04.53v3.21h-.92v-4.31Z"/>
      <path class="cls-2" d="M78.4,424.46l-.06-.61h-.04c-.25.44-.66.71-1.15.71-.78,0-1.38-.66-1.38-1.65,0-1.45,1.16-2.1,2.47-2.11v-.18c0-.78-.19-1.32-.92-1.32-.36,0-.68.12-.96.3l-.2-.65c.24-.18.78-.38,1.36-.38,1.16,0,1.67.77,1.67,2.08v2.51c0,.44,0,.95.06,1.32h-.84ZM78.27,421.47c-.48,0-1.6.08-1.6,1.34,0,.76.38,1.03.71,1.03.41,0,.76-.3.86-.88.02-.11.02-.23.02-.32v-1.18Z"/>
      <path class="cls-2" d="M84.94,423.86h-.04c-.19.4-.59.7-1.12.7-.94,0-1.68-1.02-1.68-2.93,0-2.05.86-3.07,1.82-3.07.37,0,.8.17,1.08.77h.02s.05-.67.05-.67h.83c-.02.41-.05.92-.05,1.81v6.3h-.92v-2.9ZM84.94,420.83c0-.12,0-.28-.02-.38-.07-.61-.43-1.09-.84-1.09-.75,0-1.04,1.01-1.04,2.23s.31,2.21,1.02,2.21c.29,0,.65-.17.84-.97.05-.14.05-.34.05-.49v-1.5Z"/>
      <path class="cls-2" d="M90.63,422.88c0,.65.04,1.15.05,1.58h-.8l-.06-.61h-.02c-.18.29-.62.71-1.25.71-1.02,0-1.42-.79-1.42-2.23v-3.67h.92v3.54c0,.91.14,1.58.78,1.58.54,0,.78-.5.83-.77.04-.16.05-.34.05-.53v-3.83h.92v4.22Z"/>
      <path class="cls-2" d="M92.57,421.65c.01,1.77.71,2.16,1.38,2.16.4,0,.73-.1.96-.23l.14.68c-.32.18-.82.28-1.27.28-1.39,0-2.11-1.14-2.11-2.91,0-1.88.79-3.06,1.96-3.06s1.66,1.25,1.66,2.57c0,.22,0,.37-.01.52h-2.7ZM94.39,420.96c.02-1.16-.42-1.68-.86-1.68-.6,0-.91.89-.95,1.68h1.81Z"/>
      <path class="cls-2" d="M98.01,423.5c.2.13.56.3.93.3.53,0,.85-.32.85-.84,0-.44-.16-.74-.74-1.14-.76-.49-1.16-.98-1.16-1.65,0-.94.7-1.61,1.59-1.61.46,0,.8.16,1.04.3l-.25.7c-.22-.14-.47-.25-.77-.25-.5,0-.76.36-.76.73,0,.4.14.61.72,1.01.67.43,1.2.96,1.2,1.76,0,1.16-.79,1.73-1.74,1.73-.43,0-.9-.13-1.15-.34l.23-.7Z"/>
      <path class="cls-2" d="M102.28,421.65c.01,1.77.71,2.16,1.38,2.16.4,0,.73-.1.96-.23l.14.68c-.32.18-.82.28-1.27.28-1.39,0-2.11-1.14-2.11-2.91,0-1.88.79-3.06,1.96-3.06s1.66,1.25,1.66,2.57c0,.22,0,.37-.01.52h-2.7ZM104.1,420.96c.02-1.16-.42-1.68-.86-1.68-.6,0-.91.89-.95,1.68h1.81Z"/>
      <path class="cls-2" d="M108.28,424.46l-.06-.61h-.04c-.25.44-.66.71-1.15.71-.78,0-1.38-.66-1.38-1.65,0-1.45,1.16-2.1,2.47-2.11v-.18c0-.78-.19-1.32-.92-1.32-.36,0-.68.12-.96.3l-.2-.65c.24-.18.78-.38,1.36-.38,1.16,0,1.67.77,1.67,2.08v2.51c0,.44,0,.95.06,1.32h-.84ZM108.15,421.47c-.48,0-1.6.08-1.6,1.34,0,.76.38,1.03.71,1.03.41,0,.76-.3.86-.88.02-.11.02-.23.02-.32v-1.18Z"/>
      <path class="cls-2" d="M114.53,424.46l-.06-.61h-.04c-.25.44-.66.71-1.15.71-.78,0-1.38-.66-1.38-1.65,0-1.45,1.16-2.1,2.47-2.11v-.18c0-.78-.19-1.32-.92-1.32-.36,0-.68.12-.96.3l-.2-.65c.24-.18.78-.38,1.36-.38,1.16,0,1.67.77,1.67,2.08v2.51c0,.44,0,.95.06,1.32h-.84ZM114.4,421.47c-.48,0-1.6.08-1.6,1.34,0,.76.38,1.03.71,1.03.41,0,.76-.3.86-.88.02-.11.02-.23.02-.32v-1.18Z"/>
      <path class="cls-2" d="M119.44,424.32c-.2.12-.55.22-.96.22-1.27,0-2.12-1.02-2.12-2.94,0-1.67.84-3.02,2.29-3.02.31,0,.65.08.82.18l-.18.76c-.12-.06-.36-.16-.66-.16-.92,0-1.34,1.1-1.34,2.24,0,1.35.52,2.17,1.37,2.17.25,0,.46-.06.67-.16l.12.71Z"/>
      <path class="cls-2" d="M122.99,424.32c-.2.12-.55.22-.96.22-1.27,0-2.12-1.02-2.12-2.94,0-1.67.84-3.02,2.29-3.02.31,0,.65.08.82.18l-.18.76c-.12-.06-.36-.16-.66-.16-.92,0-1.34,1.1-1.34,2.24,0,1.35.52,2.17,1.37,2.17.25,0,.46-.06.67-.16l.12.71Z"/>
      <path class="cls-2" d="M124.36,421.65c.01,1.77.71,2.16,1.38,2.16.4,0,.73-.1.96-.23l.14.68c-.32.18-.82.28-1.27.28-1.39,0-2.11-1.14-2.11-2.91,0-1.88.79-3.06,1.96-3.06s1.66,1.25,1.66,2.57c0,.22,0,.37-.01.52h-2.7ZM126.18,420.96c.02-1.16-.42-1.68-.86-1.68-.6,0-.91.89-.95,1.68h1.81Z"/>
      <path class="cls-2" d="M127.91,423.5c.2.13.56.3.93.3.53,0,.85-.32.85-.84,0-.44-.16-.74-.74-1.14-.76-.49-1.16-.98-1.16-1.65,0-.94.7-1.61,1.59-1.61.46,0,.8.16,1.04.3l-.25.7c-.22-.14-.47-.25-.77-.25-.5,0-.76.36-.76.73,0,.4.14.61.72,1.01.67.43,1.2.96,1.2,1.76,0,1.16-.79,1.73-1.74,1.73-.43,0-.9-.13-1.15-.34l.23-.7Z"/>
      <path class="cls-2" d="M132.53,417.16c.01.36-.22.6-.56.6-.3,0-.53-.24-.53-.6s.24-.6.54-.6c.33,0,.55.24.55.6ZM131.53,424.46v-5.8h.92v5.8h-.92Z"/>
      <path class="cls-2" d="M133.68,424.46c.01-.34.05-1,.05-1.39v-6.91h.92v3.18h.02c.3-.58.73-.78,1.22-.78.9,0,1.58,1.04,1.58,2.94,0,2.1-.86,3.06-1.76,3.06-.61,0-.92-.36-1.15-.85h-.04l-.06.76h-.79ZM134.65,422.41c0,.13,0,.26.04.36.22.86.61,1.02.86,1.02.74,0,1.01-1.01,1.01-2.24,0-1.16-.28-2.19-1.02-2.19-.43,0-.79.54-.86,1.03-.02.13-.02.28-.02.41v1.62Z"/>
      <path class="cls-2" d="M138.53,416.17h.92v8.3h-.92v-8.3Z"/>
      <path class="cls-2" d="M141.47,421.65c.01,1.77.71,2.16,1.38,2.16.4,0,.73-.1.96-.23l.14.68c-.32.18-.82.28-1.27.28-1.39,0-2.11-1.14-2.11-2.91,0-1.88.79-3.06,1.96-3.06s1.66,1.25,1.66,2.57c0,.22,0,.37-.01.52h-2.7ZM143.29,420.96c.02-1.16-.42-1.68-.86-1.68-.6,0-.91.89-.95,1.68h1.81Z"/>
      <path class="cls-2" d="M147.05,420.47c0-.89-.04-1.4-.05-1.81h.83l.05.74h.02c.31-.62.77-.84,1.22-.84,1.01,0,1.68,1.08,1.68,2.99,0,2.15-.89,3.01-1.8,3.01-.54,0-.85-.35-1.01-.67h-.02v2.88h-.92v-6.3ZM147.97,422.33c0,.18,0,.35.04.48.18.83.6.98.85.98.77,0,1.01-1.06,1.01-2.23s-.29-2.21-1.02-2.21c-.42,0-.79.53-.85,1.06-.02.14-.02.29-.02.44v1.48Z"/>
      <path class="cls-2" d="M154.14,424.46l-.06-.61h-.04c-.25.44-.66.71-1.15.71-.78,0-1.38-.66-1.38-1.65,0-1.45,1.16-2.1,2.47-2.11v-.18c0-.78-.19-1.32-.92-1.32-.36,0-.68.12-.96.3l-.2-.65c.24-.18.78-.38,1.36-.38,1.16,0,1.67.77,1.67,2.08v2.51c0,.44,0,.95.06,1.32h-.84ZM154.01,421.47c-.48,0-1.6.08-1.6,1.34,0,.76.38,1.03.71,1.03.41,0,.76-.3.86-.88.02-.11.02-.23.02-.32v-1.18Z"/>
      <path class="cls-2" d="M156.21,420.16c0-.49-.04-1.07-.05-1.5h.83l.05.91h.02c.19-.55.68-1.01,1.22-1.01.07,0,.13.01.19.01v.95c-.06-.01-.12-.01-.19-.01-.59,0-1.02.54-1.12,1.21-.02.16-.04.34-.04.53v3.21h-.92v-4.31Z"/>
      <path class="cls-2" d="M161.41,424.46l-.06-.61h-.04c-.25.44-.66.71-1.15.71-.78,0-1.38-.66-1.38-1.65,0-1.45,1.16-2.1,2.47-2.11v-.18c0-.78-.19-1.32-.92-1.32-.36,0-.68.12-.96.3l-.2-.65c.24-.18.78-.38,1.36-.38,1.16,0,1.67.77,1.67,2.08v2.51c0,.44,0,.95.06,1.32h-.84ZM161.28,421.47c-.48,0-1.6.08-1.6,1.34,0,.76.38,1.03.71,1.03.41,0,.76-.3.86-.88.02-.11.02-.23.02-.32v-1.18Z"/>
    </g>
    <g>
      <path class="cls-1" d="M64.04,420.47c0-.89-.04-1.4-.05-1.81h.83l.05.74h.02c.31-.62.77-.84,1.22-.84,1.01,0,1.68,1.08,1.68,2.99,0,2.15-.89,3.01-1.8,3.01-.54,0-.85-.35-1.01-.67h-.02v2.88h-.92v-6.3ZM64.96,422.33c0,.18,0,.35.04.48.18.83.6.98.85.98.77,0,1.01-1.06,1.01-2.23s-.29-2.21-1.02-2.21c-.42,0-.79.53-.85,1.06-.02.14-.02.29-.02.44v1.48Z"/>
      <path class="cls-1" d="M71.13,424.46l-.06-.61h-.04c-.25.44-.66.71-1.15.71-.78,0-1.38-.66-1.38-1.65,0-1.45,1.16-2.1,2.47-2.11v-.18c0-.78-.19-1.32-.92-1.32-.36,0-.68.12-.96.3l-.2-.65c.24-.18.78-.38,1.36-.38,1.16,0,1.67.77,1.67,2.08v2.51c0,.44,0,.95.06,1.32h-.84ZM70.99,421.47c-.48,0-1.6.08-1.6,1.34,0,.76.38,1.03.71,1.03.41,0,.76-.3.86-.88.02-.11.02-.23.02-.32v-1.18Z"/>
      <path class="cls-1" d="M73.19,420.16c0-.49-.04-1.07-.05-1.5h.83l.05.91h.02c.19-.55.68-1.01,1.22-1.01.07,0,.13.01.19.01v.95c-.06-.01-.12-.01-.19-.01-.59,0-1.02.54-1.12,1.21-.02.16-.04.34-.04.53v3.21h-.92v-4.31Z"/>
      <path class="cls-1" d="M78.4,424.46l-.06-.61h-.04c-.25.44-.66.71-1.15.71-.78,0-1.38-.66-1.38-1.65,0-1.45,1.16-2.1,2.47-2.11v-.18c0-.78-.19-1.32-.92-1.32-.36,0-.68.12-.96.3l-.2-.65c.24-.18.78-.38,1.36-.38,1.16,0,1.67.77,1.67,2.08v2.51c0,.44,0,.95.06,1.32h-.84ZM78.27,421.47c-.48,0-1.6.08-1.6,1.34,0,.76.38,1.03.71,1.03.41,0,.76-.3.86-.88.02-.11.02-.23.02-.32v-1.18Z"/>
      <path class="cls-1" d="M84.94,423.86h-.04c-.19.4-.59.7-1.12.7-.94,0-1.68-1.02-1.68-2.93,0-2.05.86-3.07,1.82-3.07.37,0,.8.17,1.08.77h.02s.05-.67.05-.67h.83c-.02.41-.05.92-.05,1.81v6.3h-.92v-2.9ZM84.94,420.83c0-.12,0-.28-.02-.38-.07-.61-.43-1.09-.84-1.09-.75,0-1.04,1.01-1.04,2.23s.31,2.21,1.02,2.21c.29,0,.65-.17.84-.97.05-.14.05-.34.05-.49v-1.5Z"/>
      <path class="cls-1" d="M90.63,422.88c0,.65.04,1.15.05,1.58h-.8l-.06-.61h-.02c-.18.29-.62.71-1.25.71-1.02,0-1.42-.79-1.42-2.23v-3.67h.92v3.54c0,.91.14,1.58.78,1.58.54,0,.78-.5.83-.77.04-.16.05-.34.05-.53v-3.83h.92v4.22Z"/>
      <path class="cls-1" d="M92.57,421.65c.01,1.77.71,2.16,1.38,2.16.4,0,.73-.1.96-.23l.14.68c-.32.18-.82.28-1.27.28-1.39,0-2.11-1.14-2.11-2.91,0-1.88.79-3.06,1.96-3.06s1.66,1.25,1.66,2.57c0,.22,0,.37-.01.52h-2.7ZM94.39,420.96c.02-1.16-.42-1.68-.86-1.68-.6,0-.91.89-.95,1.68h1.81Z"/>
      <path class="cls-1" d="M98.01,423.5c.2.13.56.3.93.3.53,0,.85-.32.85-.84,0-.44-.16-.74-.74-1.14-.76-.49-1.16-.98-1.16-1.65,0-.94.7-1.61,1.59-1.61.46,0,.8.16,1.04.3l-.25.7c-.22-.14-.47-.25-.77-.25-.5,0-.76.36-.76.73,0,.4.14.61.72,1.01.67.43,1.2.96,1.2,1.76,0,1.16-.79,1.73-1.74,1.73-.43,0-.9-.13-1.15-.34l.23-.7Z"/>
      <path class="cls-1" d="M102.28,421.65c.01,1.77.71,2.16,1.38,2.16.4,0,.73-.1.96-.23l.14.68c-.32.18-.82.28-1.27.28-1.39,0-2.11-1.14-2.11-2.91,0-1.88.79-3.06,1.96-3.06s1.66,1.25,1.66,2.57c0,.22,0,.37-.01.52h-2.7ZM104.1,420.96c.02-1.16-.42-1.68-.86-1.68-.6,0-.91.89-.95,1.68h1.81Z"/>
      <path class="cls-1" d="M108.28,424.46l-.06-.61h-.04c-.25.44-.66.71-1.15.71-.78,0-1.38-.66-1.38-1.65,0-1.45,1.16-2.1,2.47-2.11v-.18c0-.78-.19-1.32-.92-1.32-.36,0-.68.12-.96.3l-.2-.65c.24-.18.78-.38,1.36-.38,1.16,0,1.67.77,1.67,2.08v2.51c0,.44,0,.95.06,1.32h-.84ZM108.15,421.47c-.48,0-1.6.08-1.6,1.34,0,.76.38,1.03.71,1.03.41,0,.76-.3.86-.88.02-.11.02-.23.02-.32v-1.18Z"/>
      <path class="cls-1" d="M114.53,424.46l-.06-.61h-.04c-.25.44-.66.71-1.15.71-.78,0-1.38-.66-1.38-1.65,0-1.45,1.16-2.1,2.47-2.11v-.18c0-.78-.19-1.32-.92-1.32-.36,0-.68.12-.96.3l-.2-.65c.24-.18.78-.38,1.36-.38,1.16,0,1.67.77,1.67,2.08v2.51c0,.44,0,.95.06,1.32h-.84ZM114.4,421.47c-.48,0-1.6.08-1.6,1.34,0,.76.38,1.03.71,1.03.41,0,.76-.3.86-.88.02-.11.02-.23.02-.32v-1.18Z"/>
      <path class="cls-1" d="M119.44,424.32c-.2.12-.55.22-.96.22-1.27,0-2.12-1.02-2.12-2.94,0-1.67.84-3.02,2.29-3.02.31,0,.65.08.82.18l-.18.76c-.12-.06-.36-.16-.66-.16-.92,0-1.34,1.1-1.34,2.24,0,1.35.52,2.17,1.37,2.17.25,0,.46-.06.67-.16l.12.71Z"/>
      <path class="cls-1" d="M122.99,424.32c-.2.12-.55.22-.96.22-1.27,0-2.12-1.02-2.12-2.94,0-1.67.84-3.02,2.29-3.02.31,0,.65.08.82.18l-.18.76c-.12-.06-.36-.16-.66-.16-.92,0-1.34,1.1-1.34,2.24,0,1.35.52,2.17,1.37,2.17.25,0,.46-.06.67-.16l.12.71Z"/>
      <path class="cls-1" d="M124.36,421.65c.01,1.77.71,2.16,1.38,2.16.4,0,.73-.1.96-.23l.14.68c-.32.18-.82.28-1.27.28-1.39,0-2.11-1.14-2.11-2.91,0-1.88.79-3.06,1.96-3.06s1.66,1.25,1.66,2.57c0,.22,0,.37-.01.52h-2.7ZM126.18,420.96c.02-1.16-.42-1.68-.86-1.68-.6,0-.91.89-.95,1.68h1.81Z"/>
      <path class="cls-1" d="M127.91,423.5c.2.13.56.3.93.3.53,0,.85-.32.85-.84,0-.44-.16-.74-.74-1.14-.76-.49-1.16-.98-1.16-1.65,0-.94.7-1.61,1.59-1.61.46,0,.8.16,1.04.3l-.25.7c-.22-.14-.47-.25-.77-.25-.5,0-.76.36-.76.73,0,.4.14.61.72,1.01.67.43,1.2.96,1.2,1.76,0,1.16-.79,1.73-1.74,1.73-.43,0-.9-.13-1.15-.34l.23-.7Z"/>
      <path class="cls-1" d="M132.53,417.16c.01.36-.22.6-.56.6-.3,0-.53-.24-.53-.6s.24-.6.54-.6c.33,0,.55.24.55.6ZM131.53,424.46v-5.8h.92v5.8h-.92Z"/>
      <path class="cls-1" d="M133.68,424.46c.01-.34.05-1,.05-1.39v-6.91h.92v3.18h.02c.3-.58.73-.78,1.22-.78.9,0,1.58,1.04,1.58,2.94,0,2.1-.86,3.06-1.76,3.06-.61,0-.92-.36-1.15-.85h-.04l-.06.76h-.79ZM134.65,422.41c0,.13,0,.26.04.36.22.86.61,1.02.86,1.02.74,0,1.01-1.01,1.01-2.24,0-1.16-.28-2.19-1.02-2.19-.43,0-.79.54-.86,1.03-.02.13-.02.28-.02.41v1.62Z"/>
      <path class="cls-1" d="M138.53,416.17h.92v8.3h-.92v-8.3Z"/>
      <path class="cls-1" d="M141.47,421.65c.01,1.77.71,2.16,1.38,2.16.4,0,.73-.1.96-.23l.14.68c-.32.18-.82.28-1.27.28-1.39,0-2.11-1.14-2.11-2.91,0-1.88.79-3.06,1.96-3.06s1.66,1.25,1.66,2.57c0,.22,0,.37-.01.52h-2.7ZM143.29,420.96c.02-1.16-.42-1.68-.86-1.68-.6,0-.91.89-.95,1.68h1.81Z"/>
      <path class="cls-1" d="M147.05,420.47c0-.89-.04-1.4-.05-1.81h.83l.05.74h.02c.31-.62.77-.84,1.22-.84,1.01,0,1.68,1.08,1.68,2.99,0,2.15-.89,3.01-1.8,3.01-.54,0-.85-.35-1.01-.67h-.02v2.88h-.92v-6.3ZM147.97,422.33c0,.18,0,.35.04.48.18.83.6.98.85.98.77,0,1.01-1.06,1.01-2.23s-.29-2.21-1.02-2.21c-.42,0-.79.53-.85,1.06-.02.14-.02.29-.02.44v1.48Z"/>
      <path class="cls-1" d="M154.14,424.46l-.06-.61h-.04c-.25.44-.66.71-1.15.71-.78,0-1.38-.66-1.38-1.65,0-1.45,1.16-2.1,2.47-2.11v-.18c0-.78-.19-1.32-.92-1.32-.36,0-.68.12-.96.3l-.2-.65c.24-.18.78-.38,1.36-.38,1.16,0,1.67.77,1.67,2.08v2.51c0,.44,0,.95.06,1.32h-.84ZM154.01,421.47c-.48,0-1.6.08-1.6,1.34,0,.76.38,1.03.71,1.03.41,0,.76-.3.86-.88.02-.11.02-.23.02-.32v-1.18Z"/>
      <path class="cls-1" d="M156.21,420.16c0-.49-.04-1.07-.05-1.5h.83l.05.91h.02c.19-.55.68-1.01,1.22-1.01.07,0,.13.01.19.01v.95c-.06-.01-.12-.01-.19-.01-.59,0-1.02.54-1.12,1.21-.02.16-.04.34-.04.53v3.21h-.92v-4.31Z"/>
      <path class="cls-1" d="M161.41,424.46l-.06-.61h-.04c-.25.44-.66.71-1.15.71-.78,0-1.38-.66-1.38-1.65,0-1.45,1.16-2.1,2.47-2.11v-.18c0-.78-.19-1.32-.92-1.32-.36,0-.68.12-.96.3l-.2-.65c.24-.18.78-.38,1.36-.38,1.16,0,1.67.77,1.67,2.08v2.51c0,.44,0,.95.06,1.32h-.84ZM161.28,421.47c-.48,0-1.6.08-1.6,1.34,0,.76.38,1.03.71,1.03.41,0,.76-.3.86-.88.02-.11.02-.23.02-.32v-1.18Z"/>
    </g>
  </g>
  <g>
    <path class="cls-1" d="M78.52,448.34h1.23v9.75h3.04v1.04h-4.27v-10.79Z"/>
    <path class="cls-1" d="M85.37,455.89l-.72,3.23h-1.18l2.46-10.79h1.36l2.4,10.79h-1.22l-.72-3.23h-2.38ZM87.59,454.9l-.56-2.74c-.16-.77-.3-1.66-.43-2.46h-.06c-.13.82-.29,1.74-.43,2.46l-.56,2.74h2.05Z"/>
    <path class="cls-1" d="M93.54,448.5c.5-.13,1.09-.21,1.79-.21.99,0,1.83.24,2.38.8.53.51.8,1.3.8,2.23,0,.99-.24,1.66-.66,2.21-.59.8-1.58,1.2-2.54,1.2-.21,0-.37,0-.54-.02v4.42h-1.23v-10.63ZM94.78,453.67c.14.03.27.05.48.05,1.22,0,2.03-.8,2.03-2.32,0-1.1-.46-2.1-1.83-2.1-.29,0-.53.03-.69.08v4.29Z"/>
    <path class="cls-1" d="M105.6,453.65c0,4.05-1.39,5.6-3.12,5.6s-2.99-1.9-2.99-5.54,1.28-5.51,3.17-5.51,2.95,2,2.95,5.44ZM100.76,453.73c0,2.22.43,4.43,1.79,4.43s1.76-2.35,1.76-4.47-.37-4.4-1.78-4.4-1.78,2.24-1.78,4.43Z"/>
    <path class="cls-1" d="M107.06,448.5c.51-.13,1.12-.21,1.81-.21.98,0,1.81.21,2.38.75.46.43.7,1.07.7,1.84,0,1.1-.61,1.98-1.67,2.4v.03c1.25.34,2,1.34,2,2.75,0,.9-.29,1.62-.77,2.14-.61.69-1.62.98-2.85.98-.8,0-1.28-.05-1.62-.11v-10.58ZM108.3,452.92h.56c1.01,0,1.87-.77,1.87-1.9,0-.99-.46-1.76-1.78-1.76-.29,0-.51.03-.66.08v3.59ZM108.3,458.15c.14.03.35.06.62.06,1.28,0,2.11-.75,2.11-2.14,0-1.49-1.04-2.19-2.19-2.21h-.54v4.29Z"/>
    <path class="cls-1" d="M113.72,448.34h1.23v9.75h3.04v1.04h-4.27v-10.79Z"/>
    <path class="cls-1" d="M120.57,455.89l-.72,3.23h-1.18l2.46-10.79h1.36l2.4,10.79h-1.22l-.72-3.23h-2.38ZM122.79,454.9l-.56-2.74c-.16-.77-.3-1.66-.43-2.46h-.06c-.13.82-.29,1.74-.43,2.46l-.56,2.74h2.05Z"/>
    <path class="cls-1" d="M130.62,458.93c-.34.18-.86.29-1.54.29-2.11,0-3.62-1.7-3.62-5.36,0-4.26,2.11-5.62,3.81-5.62.66,0,1.12.13,1.34.27l-.27,1.04c-.26-.11-.53-.22-1.09-.22-1.15,0-2.5,1.12-2.5,4.42s1.22,4.39,2.53,4.39c.46,0,.88-.11,1.14-.24l.19,1.04Z"/>
    <path class="cls-1" d="M133.11,448.34v10.79h-1.23v-10.79h1.23Z"/>
    <path class="cls-1" d="M140.73,453.65c0,4.05-1.39,5.6-3.12,5.6s-2.99-1.9-2.99-5.54,1.28-5.51,3.17-5.51,2.95,2,2.95,5.44ZM135.9,453.73c0,2.22.43,4.43,1.79,4.43s1.76-2.35,1.76-4.47-.37-4.4-1.78-4.4-1.78,2.24-1.78,4.43ZM139.87,446.03l-1.99,1.73h-.98l1.5-1.73h1.46Z"/>
    <path class="cls-1" d="M142.2,459.13v-10.79h1.17l1.98,5.06c.45,1.15,1.01,2.59,1.38,3.76h.03c-.1-1.7-.14-3.09-.14-4.96v-3.86h1.1v10.79h-1.17l-2.05-5.19c-.43-1.09-.9-2.32-1.28-3.67h-.03c.1,1.44.13,2.82.13,5.12v3.73h-1.12Z"/>
  </g>
  <rect class="cls-3" x="69.69" y="441.06" width="86.86" height="25.34" rx="7.06" ry="7.06"/>
  <g>
    <path class="cls-1" d="M62.55,8.77h2.1v9.01h2.77v1.78h-4.87v-10.79Z"/>
    <path class="cls-1" d="M70.47,17.1l-.48,2.46h-2.03l2.34-10.79h2.51l2.1,10.79h-2.03l-.46-2.46h-1.94ZM72.22,15.46l-.35-2.26c-.11-.66-.26-1.73-.35-2.45h-.05c-.11.72-.27,1.84-.38,2.47l-.4,2.24h1.54Z"/>
    <path class="cls-1" d="M75.85,17.42c.43.24,1.17.42,1.78.42.99,0,1.47-.51,1.47-1.22,0-.78-.48-1.17-1.39-1.76-1.47-.9-2.03-2.03-2.03-3.01,0-1.73,1.15-3.17,3.41-3.17.7,0,1.38.19,1.7.38l-.34,1.81c-.3-.19-.77-.37-1.38-.37-.9,0-1.33.54-1.33,1.12,0,.64.32.98,1.49,1.68,1.42.86,1.95,1.95,1.95,3.09,0,1.97-1.46,3.27-3.57,3.27-.86,0-1.71-.22-2.07-.43l.3-1.81Z"/>
    <path class="cls-1" d="M84.94,8.93c.59-.13,1.39-.21,2.19-.21,1.25,0,2.22.18,2.93.83.64.56.93,1.46.93,2.37,0,1.17-.35,1.98-.91,2.59-.67.7-1.76,1.02-2.62,1.02h-.42v4.02h-2.1v-10.63ZM87.04,13.83c.1.03.21.03.34.03,1.06,0,1.54-.75,1.54-1.76,0-.94-.38-1.68-1.36-1.68-.19,0-.38.03-.51.08v3.33Z"/>
    <path class="cls-1" d="M92.25,8.93c.66-.13,1.49-.21,2.29-.21,1.15,0,2.18.16,2.88.8.66.59.85,1.31.85,2.24,0,1.15-.56,2.19-1.67,2.71v.03c.74.29,1.1.98,1.31,2.13.21,1.2.5,2.53.69,2.93h-2.19c-.13-.3-.37-1.39-.53-2.58-.19-1.34-.53-1.73-1.23-1.73h-.3v4.31h-2.1v-10.63ZM94.35,13.64h.37c.91,0,1.44-.74,1.44-1.68s-.37-1.57-1.31-1.6c-.18,0-.38.02-.5.06v3.22Z"/>
    <path class="cls-1" d="M106.14,13.98c0,4.07-1.44,5.71-3.49,5.71-2.45,0-3.41-2.59-3.41-5.55s1.17-5.49,3.55-5.49c2.61,0,3.35,2.87,3.35,5.33ZM101.42,14.17c0,2.45.46,3.7,1.31,3.7s1.22-1.6,1.22-3.79c0-1.89-.29-3.6-1.23-3.6-.83,0-1.3,1.38-1.3,3.7Z"/>
    <path class="cls-1" d="M107.47,8.93c.59-.13,1.39-.21,2.19-.21,1.25,0,2.22.18,2.93.83.64.56.93,1.46.93,2.37,0,1.17-.35,1.98-.91,2.59-.67.7-1.76,1.02-2.62,1.02h-.42v4.02h-2.1v-10.63ZM109.56,13.83c.1.03.21.03.34.03,1.06,0,1.54-.75,1.54-1.76,0-.94-.38-1.68-1.36-1.68-.19,0-.38.03-.51.08v3.33Z"/>
    <path class="cls-1" d="M115.82,17.1l-.48,2.46h-2.03l2.34-10.79h2.51l2.1,10.79h-2.03l-.46-2.46h-1.94ZM117.56,15.46l-.35-2.26c-.11-.66-.26-1.73-.35-2.45h-.05c-.11.72-.27,1.84-.38,2.47l-.4,2.24h1.54Z"/>
    <path class="cls-1" d="M127.16,19.27c-.46.19-1.46.38-2.24.38-1.23,0-2.16-.35-2.88-1.07-.93-.9-1.42-2.5-1.39-4.35.05-3.92,2.29-5.55,4.58-5.55.82,0,1.42.16,1.76.32l-.37,1.81c-.3-.16-.7-.24-1.23-.24-1.42,0-2.56.98-2.56,3.79,0,2.59,1.01,3.52,1.98,3.52.19,0,.34-.02.42-.05v-2.61h-.96v-1.71h2.9v5.76Z"/>
    <path class="cls-1" d="M130.44,17.1l-.48,2.46h-2.03l2.34-10.79h2.51l2.1,10.79h-2.03l-.46-2.46h-1.94ZM132.19,15.46l-.35-2.26c-.11-.66-.26-1.73-.35-2.45h-.05c-.11.72-.27,1.84-.38,2.47l-.4,2.24h1.54Z"/>
    <path class="cls-1" d="M136.06,19.56v-10.79h1.92l1.66,4.23c.32.83.85,2.22,1.15,3.15h.03c-.06-1.14-.21-3.01-.21-4.99v-2.39h1.84v10.79h-1.92l-1.65-4.1c-.35-.91-.85-2.27-1.09-3.25h-.03c.05,1.09.13,2.75.13,4.91v2.43h-1.84Z"/>
    <path class="cls-1" d="M144.31,8.93c.53-.13,1.3-.21,2.13-.21,1.36,0,2.3.32,2.99.96.93.83,1.41,2.26,1.41,4.35s-.56,3.73-1.5,4.56c-.72.7-1.79,1.04-3.3,1.04-.66,0-1.31-.06-1.73-.11v-10.6ZM146.41,17.9c.1.03.26.03.37.03,1.01,0,1.89-.99,1.89-3.97,0-2.21-.58-3.55-1.84-3.55-.14,0-.29,0-.42.05v7.44Z"/>
    <path class="cls-1" d="M153.62,17.1l-.48,2.46h-2.03l2.34-10.79h2.51l2.1,10.79h-2.03l-.46-2.46h-1.94ZM155.37,15.46l-.35-2.26c-.11-.66-.26-1.73-.35-2.45h-.05c-.11.72-.27,1.84-.38,2.47l-.4,2.24h1.54Z"/>
    <path class="cls-1" d="M159,17.42c.43.24,1.17.42,1.78.42.99,0,1.47-.51,1.47-1.22,0-.78-.48-1.17-1.39-1.76-1.47-.9-2.03-2.03-2.03-3.01,0-1.73,1.15-3.17,3.41-3.17.7,0,1.38.19,1.7.38l-.34,1.81c-.3-.19-.77-.37-1.38-.37-.9,0-1.33.54-1.33,1.12,0,.64.32.98,1.49,1.68,1.42.86,1.95,1.95,1.95,3.09,0,1.97-1.46,3.27-3.57,3.27-.86,0-1.71-.22-2.07-.43l.3-1.81Z"/>
  </g>
  <rect class="cls-5" x="56.52" y="1.5" width="113.2" height="25.34" rx="7.06" ry="7.06"/>
  <line class="cls-3" x1="113.12" y1="162.12" x2="113.12" y2="204.01"/>
  <g>
    <g>
      <path class="cls-4" d="M96.4,187.41l-.06-.61h-.04c-.25.44-.66.71-1.15.71-.78,0-1.38-.66-1.38-1.65,0-1.45,1.16-2.1,2.47-2.11v-.18c0-.78-.19-1.32-.92-1.32-.36,0-.68.12-.96.3l-.2-.65c.24-.18.78-.38,1.36-.38,1.16,0,1.67.77,1.67,2.08v2.51c0,.44,0,.95.06,1.32h-.84ZM96.27,184.41c-.48,0-1.6.08-1.6,1.34,0,.76.38,1.03.71,1.03.41,0,.76-.3.86-.88.02-.11.02-.23.02-.32v-1.18Z"/>
      <path class="cls-4" d="M101.49,180.07v1.54h1.12v.71h-1.12v3.44c0,.76.28.96.61.96.14,0,.26-.01.37-.04l.04.71c-.17.06-.38.1-.68.1-.36,0-.68-.1-.91-.35-.23-.26-.35-.66-.35-1.46v-3.36h-.71v-.71h.71v-1.27l.92-.26Z"/>
      <path class="cls-4" d="M103.41,183.11c0-.49-.04-1.07-.05-1.5h.83l.05.91h.02c.19-.55.68-1.01,1.22-1.01.07,0,.13.01.19.01v.95c-.06-.01-.12-.01-.19-.01-.59,0-1.02.54-1.12,1.21-.02.16-.04.34-.04.53v3.21h-.92v-4.31Z"/>
      <path class="cls-4" d="M108.61,187.41l-.06-.61h-.04c-.25.44-.66.71-1.15.71-.78,0-1.38-.66-1.38-1.65,0-1.45,1.16-2.1,2.47-2.11v-.18c0-.78-.19-1.32-.92-1.32-.36,0-.68.12-.96.3l-.2-.65c.24-.18.78-.38,1.36-.38,1.16,0,1.67.77,1.67,2.08v2.51c0,.44,0,.95.06,1.32h-.84ZM108.48,184.41c-.48,0-1.6.08-1.6,1.34,0,.76.38,1.03.71,1.03.41,0,.76-.3.86-.88.02-.11.02-.23.02-.32v-1.18Z"/>
      <path class="cls-4" d="M111.04,181.61l.73,3.26c.08.4.18.91.25,1.42h.04c.06-.48.16-.97.24-1.42l.72-3.26h.91l-1.51,5.8h-.83l-1.51-5.8h.96Z"/>
      <path class="cls-4" d="M115.23,184.59c.01,1.77.71,2.16,1.38,2.16.4,0,.73-.1.96-.23l.14.68c-.32.18-.82.28-1.27.28-1.39,0-2.11-1.14-2.11-2.91,0-1.88.79-3.06,1.96-3.06s1.66,1.25,1.66,2.57c0,.22,0,.37-.01.52h-2.7ZM117.05,183.91c.02-1.16-.42-1.68-.86-1.68-.6,0-.91.89-.95,1.68h1.81ZM117.7,179.23l-1.26,1.62h-.61l.92-1.62h.95Z"/>
      <path class="cls-4" d="M118.78,186.45c.2.13.56.3.93.3.53,0,.85-.32.85-.84,0-.44-.16-.74-.74-1.14-.76-.49-1.16-.98-1.16-1.65,0-.94.7-1.61,1.59-1.61.46,0,.8.16,1.04.3l-.25.7c-.22-.14-.47-.25-.77-.25-.5,0-.76.36-.76.73,0,.4.14.61.72,1.01.67.43,1.2.96,1.2,1.76,0,1.16-.79,1.73-1.74,1.73-.43,0-.9-.13-1.15-.34l.23-.7Z"/>
      <path class="cls-4" d="M127.78,179.11v6.91c0,.4.04,1.06.05,1.39h-.79l-.06-.73h-.04c-.19.42-.6.83-1.21.83-.98,0-1.69-1.07-1.69-2.97,0-2.06.85-3.02,1.75-3.02.42,0,.83.2,1.06.7h.02v-3.09h.91ZM126.87,183.82c0-.12,0-.25-.01-.38-.06-.6-.42-1.13-.86-1.13-.77,0-1.03,1.07-1.03,2.23,0,1.22.31,2.21.98,2.21.29,0,.68-.16.89-1,.02-.11.04-.24.04-.38v-1.55Z"/>
      <path class="cls-4" d="M129.72,184.59c.01,1.77.71,2.16,1.38,2.16.4,0,.73-.1.96-.23l.14.68c-.32.18-.82.28-1.27.28-1.39,0-2.11-1.14-2.11-2.91,0-1.88.79-3.06,1.96-3.06s1.66,1.25,1.66,2.57c0,.22,0,.37-.01.52h-2.7ZM131.54,183.91c.02-1.16-.42-1.68-.86-1.68-.6,0-.91.89-.95,1.68h1.81Z"/>
    </g>
    <g>
      <path class="cls-2" d="M96.4,187.41l-.06-.61h-.04c-.25.44-.66.71-1.15.71-.78,0-1.38-.66-1.38-1.65,0-1.45,1.16-2.1,2.47-2.11v-.18c0-.78-.19-1.32-.92-1.32-.36,0-.68.12-.96.3l-.2-.65c.24-.18.78-.38,1.36-.38,1.16,0,1.67.77,1.67,2.08v2.51c0,.44,0,.95.06,1.32h-.84ZM96.27,184.41c-.48,0-1.6.08-1.6,1.34,0,.76.38,1.03.71,1.03.41,0,.76-.3.86-.88.02-.11.02-.23.02-.32v-1.18Z"/>
      <path class="cls-2" d="M101.49,180.07v1.54h1.12v.71h-1.12v3.44c0,.76.28.96.61.96.14,0,.26-.01.37-.04l.04.71c-.17.06-.38.1-.68.1-.36,0-.68-.1-.91-.35-.23-.26-.35-.66-.35-1.46v-3.36h-.71v-.71h.71v-1.27l.92-.26Z"/>
      <path class="cls-2" d="M103.41,183.11c0-.49-.04-1.07-.05-1.5h.83l.05.91h.02c.19-.55.68-1.01,1.22-1.01.07,0,.13.01.19.01v.95c-.06-.01-.12-.01-.19-.01-.59,0-1.02.54-1.12,1.21-.02.16-.04.34-.04.53v3.21h-.92v-4.31Z"/>
      <path class="cls-2" d="M108.61,187.41l-.06-.61h-.04c-.25.44-.66.71-1.15.71-.78,0-1.38-.66-1.38-1.65,0-1.45,1.16-2.1,2.47-2.11v-.18c0-.78-.19-1.32-.92-1.32-.36,0-.68.12-.96.3l-.2-.65c.24-.18.78-.38,1.36-.38,1.16,0,1.67.77,1.67,2.08v2.51c0,.44,0,.95.06,1.32h-.84ZM108.48,184.41c-.48,0-1.6.08-1.6,1.34,0,.76.38,1.03.71,1.03.41,0,.76-.3.86-.88.02-.11.02-.23.02-.32v-1.18Z"/>
      <path class="cls-2" d="M111.04,181.61l.73,3.26c.08.4.18.91.25,1.42h.04c.06-.48.16-.97.24-1.42l.72-3.26h.91l-1.51,5.8h-.83l-1.51-5.8h.96Z"/>
      <path class="cls-2" d="M115.23,184.59c.01,1.77.71,2.16,1.38,2.16.4,0,.73-.1.96-.23l.14.68c-.32.18-.82.28-1.27.28-1.39,0-2.11-1.14-2.11-2.91,0-1.88.79-3.06,1.96-3.06s1.66,1.25,1.66,2.57c0,.22,0,.37-.01.52h-2.7ZM117.05,183.91c.02-1.16-.42-1.68-.86-1.68-.6,0-.91.89-.95,1.68h1.81ZM117.7,179.23l-1.26,1.62h-.61l.92-1.62h.95Z"/>
      <path class="cls-2" d="M118.78,186.45c.2.13.56.3.93.3.53,0,.85-.32.85-.84,0-.44-.16-.74-.74-1.14-.76-.49-1.16-.98-1.16-1.65,0-.94.7-1.61,1.59-1.61.46,0,.8.16,1.04.3l-.25.7c-.22-.14-.47-.25-.77-.25-.5,0-.76.36-.76.73,0,.4.14.61.72,1.01.67.43,1.2.96,1.2,1.76,0,1.16-.79,1.73-1.74,1.73-.43,0-.9-.13-1.15-.34l.23-.7Z"/>
      <path class="cls-2" d="M127.78,179.11v6.91c0,.4.04,1.06.05,1.39h-.79l-.06-.73h-.04c-.19.42-.6.83-1.21.83-.98,0-1.69-1.07-1.69-2.97,0-2.06.85-3.02,1.75-3.02.42,0,.83.2,1.06.7h.02v-3.09h.91ZM126.87,183.82c0-.12,0-.25-.01-.38-.06-.6-.42-1.13-.86-1.13-.77,0-1.03,1.07-1.03,2.23,0,1.22.31,2.21.98,2.21.29,0,.68-.16.89-1,.02-.11.04-.24.04-.38v-1.55Z"/>
      <path class="cls-2" d="M129.72,184.59c.01,1.77.71,2.16,1.38,2.16.4,0,.73-.1.96-.23l.14.68c-.32.18-.82.28-1.27.28-1.39,0-2.11-1.14-2.11-2.91,0-1.88.79-3.06,1.96-3.06s1.66,1.25,1.66,2.57c0,.22,0,.37-.01.52h-2.7ZM131.54,183.91c.02-1.16-.42-1.68-.86-1.68-.6,0-.91.89-.95,1.68h1.81Z"/>
    </g>
    <g>
      <path class="cls-1" d="M96.4,187.41l-.06-.61h-.04c-.25.44-.66.71-1.15.71-.78,0-1.38-.66-1.38-1.65,0-1.45,1.16-2.1,2.47-2.11v-.18c0-.78-.19-1.32-.92-1.32-.36,0-.68.12-.96.3l-.2-.65c.24-.18.78-.38,1.36-.38,1.16,0,1.67.77,1.67,2.08v2.51c0,.44,0,.95.06,1.32h-.84ZM96.27,184.41c-.48,0-1.6.08-1.6,1.34,0,.76.38,1.03.71,1.03.41,0,.76-.3.86-.88.02-.11.02-.23.02-.32v-1.18Z"/>
      <path class="cls-1" d="M101.49,180.07v1.54h1.12v.71h-1.12v3.44c0,.76.28.96.61.96.14,0,.26-.01.37-.04l.04.71c-.17.06-.38.1-.68.1-.36,0-.68-.1-.91-.35-.23-.26-.35-.66-.35-1.46v-3.36h-.71v-.71h.71v-1.27l.92-.26Z"/>
      <path class="cls-1" d="M103.41,183.11c0-.49-.04-1.07-.05-1.5h.83l.05.91h.02c.19-.55.68-1.01,1.22-1.01.07,0,.13.01.19.01v.95c-.06-.01-.12-.01-.19-.01-.59,0-1.02.54-1.12,1.21-.02.16-.04.34-.04.53v3.21h-.92v-4.31Z"/>
      <path class="cls-1" d="M108.61,187.41l-.06-.61h-.04c-.25.44-.66.71-1.15.71-.78,0-1.38-.66-1.38-1.65,0-1.45,1.16-2.1,2.47-2.11v-.18c0-.78-.19-1.32-.92-1.32-.36,0-.68.12-.96.3l-.2-.65c.24-.18.78-.38,1.36-.38,1.16,0,1.67.77,1.67,2.08v2.51c0,.44,0,.95.06,1.32h-.84ZM108.48,184.41c-.48,0-1.6.08-1.6,1.34,0,.76.38,1.03.71,1.03.41,0,.76-.3.86-.88.02-.11.02-.23.02-.32v-1.18Z"/>
      <path class="cls-1" d="M111.04,181.61l.73,3.26c.08.4.18.91.25,1.42h.04c.06-.48.16-.97.24-1.42l.72-3.26h.91l-1.51,5.8h-.83l-1.51-5.8h.96Z"/>
      <path class="cls-1" d="M115.23,184.59c.01,1.77.71,2.16,1.38,2.16.4,0,.73-.1.96-.23l.14.68c-.32.18-.82.28-1.27.28-1.39,0-2.11-1.14-2.11-2.91,0-1.88.79-3.06,1.96-3.06s1.66,1.25,1.66,2.57c0,.22,0,.37-.01.52h-2.7ZM117.05,183.91c.02-1.16-.42-1.68-.86-1.68-.6,0-.91.89-.95,1.68h1.81ZM117.7,179.23l-1.26,1.62h-.61l.92-1.62h.95Z"/>
      <path class="cls-1" d="M118.78,186.45c.2.13.56.3.93.3.53,0,.85-.32.85-.84,0-.44-.16-.74-.74-1.14-.76-.49-1.16-.98-1.16-1.65,0-.94.7-1.61,1.59-1.61.46,0,.8.16,1.04.3l-.25.7c-.22-.14-.47-.25-.77-.25-.5,0-.76.36-.76.73,0,.4.14.61.72,1.01.67.43,1.2.96,1.2,1.76,0,1.16-.79,1.73-1.74,1.73-.43,0-.9-.13-1.15-.34l.23-.7Z"/>
      <path class="cls-1" d="M127.78,179.11v6.91c0,.4.04,1.06.05,1.39h-.79l-.06-.73h-.04c-.19.42-.6.83-1.21.83-.98,0-1.69-1.07-1.69-2.97,0-2.06.85-3.02,1.75-3.02.42,0,.83.2,1.06.7h.02v-3.09h.91ZM126.87,183.82c0-.12,0-.25-.01-.38-.06-.6-.42-1.13-.86-1.13-.77,0-1.03,1.07-1.03,2.23,0,1.22.31,2.21.98,2.21.29,0,.68-.16.89-1,.02-.11.04-.24.04-.38v-1.55Z"/>
      <path class="cls-1" d="M129.72,184.59c.01,1.77.71,2.16,1.38,2.16.4,0,.73-.1.96-.23l.14.68c-.32.18-.82.28-1.27.28-1.39,0-2.11-1.14-2.11-2.91,0-1.88.79-3.06,1.96-3.06s1.66,1.25,1.66,2.57c0,.22,0,.37-.01.52h-2.7ZM131.54,183.91c.02-1.16-.42-1.68-.86-1.68-.6,0-.91.89-.95,1.68h1.81Z"/>
    </g>
  </g>
  <g>
    <path class="cls-4" d="M113.17,231.47l.77,3.33c.11.46.17.84.24,1.2h.02c.06-.32.16-.77.25-1.19l.68-3.35h.91l-.95,3.73c-.36,1.46-.76,2.87-1.44,3.74-.41.52-.84.79-1.04.89l-.34-.79c.26-.14.55-.4.82-.73.24-.3.43-.7.53-.97.05-.14.06-.2.06-.29,0-.07,0-.14-.02-.22l-1.46-5.36h.97Z"/>
    <path class="cls-2" d="M113.17,231.47l.77,3.33c.11.46.17.84.24,1.2h.02c.06-.32.16-.77.25-1.19l.68-3.35h.91l-.95,3.73c-.36,1.46-.76,2.87-1.44,3.74-.41.52-.84.79-1.04.89l-.34-.79c.26-.14.55-.4.82-.73.24-.3.43-.7.53-.97.05-.14.06-.2.06-.29,0-.07,0-.14-.02-.22l-1.46-5.36h.97Z"/>
    <path class="cls-1" d="M113.17,231.47l.77,3.33c.11.46.17.84.24,1.2h.02c.06-.32.16-.77.25-1.19l.68-3.35h.91l-.95,3.73c-.36,1.46-.76,2.87-1.44,3.74-.41.52-.84.79-1.04.89l-.34-.79c.26-.14.55-.4.82-.73.24-.3.43-.7.53-.97.05-.14.06-.2.06-.29,0-.07,0-.14-.02-.22l-1.46-5.36h.97Z"/>
  </g>
  <g>
    <path class="cls-1" d="M152.6,228.96h1.23v9.75h3.04v1.04h-4.27v-10.79Z"/>
    <path class="cls-1" d="M159.45,236.51l-.72,3.23h-1.18l2.46-10.79h1.36l2.4,10.79h-1.22l-.72-3.23h-2.38ZM161.67,235.52l-.56-2.74c-.16-.77-.3-1.66-.43-2.46h-.06c-.13.82-.29,1.74-.43,2.46l-.56,2.74h2.05Z"/>
    <path class="cls-1" d="M168.86,228.96v10.79h-1.23v-10.79h1.23Z"/>
    <path class="cls-1" d="M170.81,239.75v-10.79h1.17l1.98,5.06c.45,1.15,1.01,2.59,1.38,3.76h.03c-.1-1.7-.14-3.09-.14-4.96v-3.86h1.1v10.79h-1.17l-2.05-5.19c-.43-1.09-.9-2.32-1.28-3.67h-.03c.1,1.44.13,2.82.13,5.12v3.73h-1.12Z"/>
    <path class="cls-1" d="M178.25,228.96h4.11v1.07h-2.88v3.78h2.69v1.04h-2.69v4.9h-1.23v-10.79Z"/>
    <path class="cls-1" d="M189.44,234.27c0,4.05-1.39,5.6-3.12,5.6s-2.99-1.9-2.99-5.54,1.28-5.51,3.17-5.51,2.95,2,2.95,5.44ZM184.6,234.35c0,2.22.43,4.43,1.79,4.43s1.76-2.35,1.76-4.47-.37-4.4-1.78-4.4-1.78,2.24-1.78,4.43Z"/>
    <path class="cls-1" d="M190.9,229.12c.53-.14,1.17-.21,1.78-.21,1.07,0,1.87.22,2.43.77.53.54.75,1.26.75,2.11,0,1.38-.64,2.27-1.73,2.77v.03c.8.24,1.22,1.01,1.46,2.42.24,1.49.46,2.4.61,2.74h-1.25c-.16-.32-.37-1.34-.58-2.67-.24-1.47-.7-2.03-1.76-2.03h-.48v4.71h-1.23v-10.63ZM192.14,234.1h.51c1.18,0,1.97-.86,1.97-2.16s-.51-2.02-1.84-2.03c-.24,0-.48.02-.64.06v4.13Z"/>
    <path class="cls-1" d="M203.98,235.11c-.08-1.42-.16-3.01-.11-4.23h-.06c-.24,1.2-.53,2.48-.87,3.75l-1.33,5.06h-.78l-1.26-4.85c-.35-1.38-.67-2.71-.88-3.95h-.05c0,1.26-.06,2.77-.13,4.31l-.21,4.56h-1.1l.64-10.79h1.33l1.26,4.93c.37,1.42.64,2.48.86,3.71h.05c.21-1.23.45-2.26.8-3.71l1.22-4.93h1.38l.62,10.79h-1.15l-.22-4.64Z"/>
    <path class="cls-1" d="M208.22,236.51l-.72,3.23h-1.18l2.46-10.79h1.36l2.4,10.79h-1.22l-.72-3.23h-2.38ZM210.44,235.52l-.56-2.74c-.16-.77-.3-1.66-.43-2.46h-.06c-.13.82-.29,1.74-.43,2.46l-.56,2.74h2.05Z"/>
    <path class="cls-1" d="M218.27,239.56c-.34.18-.86.29-1.54.29-2.11,0-3.62-1.7-3.62-5.36,0-4.26,2.11-5.62,3.81-5.62.66,0,1.12.13,1.34.27l-.27,1.04c-.26-.11-.53-.22-1.09-.22-1.15,0-2.5,1.12-2.5,4.42s1.22,4.39,2.53,4.39c.46,0,.88-.11,1.14-.24l.19,1.04Z"/>
    <path class="cls-1" d="M220.76,228.96v10.79h-1.23v-10.79h1.23Z"/>
    <path class="cls-1" d="M228.38,234.27c0,4.05-1.39,5.6-3.12,5.6s-2.99-1.9-2.99-5.54,1.28-5.51,3.17-5.51,2.95,2,2.95,5.44ZM223.55,234.35c0,2.22.43,4.43,1.79,4.43s1.76-2.35,1.76-4.47-.37-4.4-1.78-4.4-1.78,2.24-1.78,4.43ZM227.52,226.65l-1.99,1.73h-.98l1.5-1.73h1.46Z"/>
    <path class="cls-1" d="M229.85,239.75v-10.79h1.17l1.98,5.06c.45,1.15,1.01,2.59,1.38,3.76h.03c-.1-1.7-.14-3.09-.14-4.96v-3.86h1.1v10.79h-1.17l-2.05-5.19c-.43-1.09-.9-2.32-1.28-3.67h-.03c.1,1.44.13,2.82.13,5.12v3.73h-1.12Z"/>
  </g>
  <rect class="cls-3" x="146.87" y="221.69" width="94.24" height="25.34" rx="7.06" ry="7.06"/>
  <g>
    <path class="cls-1" d="M7.06,228.96h1.23v9.75h3.04v1.04h-4.27v-10.79Z"/>
    <path class="cls-1" d="M13.91,236.51l-.72,3.23h-1.18l2.46-10.79h1.36l2.4,10.79h-1.22l-.72-3.23h-2.38ZM16.13,235.52l-.56-2.74c-.16-.77-.3-1.66-.43-2.46h-.06c-.13.82-.29,1.74-.43,2.46l-.56,2.74h2.05Z"/>
    <path class="cls-1" d="M26.02,234.63h-2.71v4.05h3.07v1.07h-4.31v-10.79h4.11v1.07h-2.88v3.55h2.71v1.04Z"/>
    <path class="cls-1" d="M27.75,229.12c.48-.14,1.04-.21,1.67-.21,1.14,0,1.94.29,2.53.82.83.72,1.46,2.11,1.46,4.37,0,2.47-.61,3.81-1.3,4.55-.71.8-1.73,1.17-2.98,1.17-.5,0-1.01-.03-1.38-.11v-10.58ZM28.98,238.74c.18.03.35.03.46.03,1.36,0,2.67-.98,2.67-4.64,0-2.72-.83-4.21-2.56-4.21-.19,0-.42.02-.58.06v8.76Z"/>
    <path class="cls-1" d="M36.08,228.96v7.24c0,1.94.64,2.59,1.47,2.59.91,0,1.49-.7,1.49-2.59v-7.24h1.23v7.04c0,2.8-1.15,3.87-2.75,3.87s-2.67-1.06-2.67-3.73v-7.19h1.23Z"/>
    <path class="cls-1" d="M46.88,239.56c-.34.18-.86.29-1.54.29-2.11,0-3.62-1.7-3.62-5.36,0-4.26,2.11-5.62,3.81-5.62.66,0,1.12.13,1.34.27l-.27,1.04c-.26-.11-.53-.22-1.09-.22-1.15,0-2.5,1.12-2.5,4.42s1.22,4.39,2.53,4.39c.46,0,.88-.11,1.14-.24l.19,1.04Z"/>
    <path class="cls-1" d="M49.54,236.51l-.72,3.23h-1.18l2.46-10.79h1.36l2.4,10.79h-1.22l-.72-3.23h-2.38ZM51.76,235.52l-.56-2.74c-.16-.77-.3-1.66-.43-2.46h-.06c-.13.82-.29,1.74-.43,2.46l-.56,2.74h2.05Z"/>
    <path class="cls-1" d="M59.59,239.56c-.34.18-.86.29-1.54.29-2.11,0-3.62-1.7-3.62-5.36,0-4.26,2.11-5.62,3.81-5.62.66,0,1.12.13,1.34.27l-.27,1.04c-.26-.11-.53-.22-1.09-.22-1.15,0-2.5,1.12-2.5,4.42s1.22,4.39,2.53,4.39c.46,0,.88-.11,1.14-.24l.19,1.04Z"/>
    <path class="cls-1" d="M62.08,228.96v10.79h-1.23v-10.79h1.23Z"/>
    <path class="cls-1" d="M69.7,234.27c0,4.05-1.39,5.6-3.12,5.6s-2.99-1.9-2.99-5.54,1.28-5.51,3.17-5.51,2.95,2,2.95,5.44ZM64.87,234.35c0,2.22.43,4.43,1.79,4.43s1.76-2.35,1.76-4.47-.37-4.4-1.78-4.4-1.78,2.24-1.78,4.43ZM68.84,226.65l-1.99,1.73h-.98l1.5-1.73h1.46Z"/>
    <path class="cls-1" d="M71.17,239.75v-10.79h1.17l1.98,5.06c.45,1.15,1.01,2.59,1.38,3.76h.03c-.1-1.7-.14-3.09-.14-4.96v-3.86h1.1v10.79h-1.17l-2.05-5.19c-.43-1.09-.9-2.32-1.28-3.67h-.03c.1,1.44.13,2.82.13,5.12v3.73h-1.12Z"/>
  </g>
  <rect class="cls-3" x=".75" y="221.69" width="82.25" height="25.34" rx="7.06" ry="7.06"/>
  <path class="cls-3" d="M41.87,221.19v-8.24c0-4.93,4-8.93,8.93-8.93h134.24c4.93,0,8.93,4,8.93,8.93v8.24"/>
  <path class="cls-3" d="M41.87,247.52v8.24c0,4.93,4,8.93,8.93,8.93h134.24c4.93,0,8.93-4,8.93-8.93v-8.24"/>
  <line class="cls-3" x1="113.12" y1="94.88" x2="113.12" y2="136.78"/>
  <g>
    <g>
      <path class="cls-4" d="M90.44,111.88v6.91c0,.4.04,1.06.05,1.39h-.79l-.06-.73h-.04c-.19.42-.6.83-1.21.83-.98,0-1.69-1.07-1.69-2.97,0-2.06.85-3.02,1.75-3.02.42,0,.83.2,1.06.7h.02v-3.09h.91ZM89.53,116.58c0-.12,0-.25-.01-.38-.06-.6-.42-1.13-.86-1.13-.77,0-1.03,1.07-1.03,2.23,0,1.22.31,2.21.98,2.21.29,0,.68-.16.89-1,.02-.11.04-.24.04-.38v-1.55Z"/>
      <path class="cls-4" d="M92.39,117.36c.01,1.77.71,2.16,1.38,2.16.4,0,.73-.1.96-.23l.14.68c-.32.18-.82.28-1.27.28-1.39,0-2.11-1.14-2.11-2.91,0-1.88.79-3.06,1.96-3.06s1.66,1.25,1.66,2.57c0,.22,0,.37-.01.52h-2.7ZM94.21,116.68c.02-1.16-.42-1.68-.86-1.68-.6,0-.91.89-.95,1.68h1.81Z"/>
      <path class="cls-4" d="M96.03,120.18c.01-.34.05-1,.05-1.39v-6.91h.92v3.18h.02c.3-.58.73-.78,1.22-.78.9,0,1.58,1.04,1.58,2.94,0,2.1-.86,3.06-1.76,3.06-.61,0-.92-.36-1.15-.85h-.04l-.06.76h-.79ZM97.01,118.13c0,.13,0,.26.04.36.22.86.61,1.02.86,1.02.74,0,1.01-1.01,1.01-2.24,0-1.16-.28-2.19-1.02-2.19-.43,0-.79.54-.86,1.03-.02.13-.02.28-.02.41v1.62Z"/>
      <path class="cls-4" d="M101.53,117.36c.01,1.77.71,2.16,1.38,2.16.4,0,.73-.1.96-.23l.14.68c-.32.18-.82.28-1.27.28-1.39,0-2.11-1.14-2.11-2.91,0-1.88.79-3.06,1.96-3.06s1.66,1.25,1.66,2.57c0,.22,0,.37-.01.52h-2.7ZM103.35,116.68c.02-1.16-.42-1.68-.86-1.68-.6,0-.91.89-.95,1.68h1.81Z"/>
      <path class="cls-4" d="M105.24,115.87c0-.68-.04-1.03-.05-1.5h.8l.05.7h.02c.25-.47.72-.79,1.33-.79.8,0,1.4.6,1.4,2v3.9h-.92v-3.74c0-.68-.13-1.38-.8-1.38-.38,0-.75.32-.88.95-.02.14-.04.32-.04.52v3.66h-.92v-4.31Z"/>
      <path class="cls-4" d="M115.53,114.37c-.01.41-.05.92-.05,1.81v3.25c0,1.52-.19,2.1-.58,2.52-.35.4-.9.62-1.55.62-.49,0-.97-.12-1.27-.29l.22-.72c.23.12.61.25,1.08.25.73,0,1.19-.46,1.19-1.77v-.59h-.02c-.2.46-.62.71-1.12.71-1.03,0-1.7-1.16-1.7-2.87,0-2.13.97-3.02,1.82-3.02.62,0,.91.41,1.08.76h.02l.05-.66h.83ZM114.57,116.38c0-.14-.01-.3-.05-.42-.11-.4-.31-.89-.84-.89-.67,0-1.03.9-1.03,2.18,0,1.49.47,2.16,1.03,2.16.28,0,.64-.13.83-.83.05-.18.06-.36.06-.53v-1.68Z"/>
      <path class="cls-4" d="M117.42,117.36c.01,1.77.71,2.16,1.38,2.16.4,0,.73-.1.96-.23l.14.68c-.32.18-.82.28-1.27.28-1.39,0-2.11-1.14-2.11-2.91,0-1.88.79-3.06,1.96-3.06s1.66,1.25,1.66,2.57c0,.22,0,.37-.01.52h-2.7ZM119.24,116.68c.02-1.16-.42-1.68-.86-1.68-.6,0-.91.89-.95,1.68h1.81Z"/>
      <path class="cls-4" d="M121.12,115.87c0-.68-.04-1.03-.05-1.5h.8l.05.7h.02c.25-.47.72-.79,1.33-.79.8,0,1.4.6,1.4,2v3.9h-.92v-3.74c0-.68-.13-1.38-.8-1.38-.38,0-.76.32-.88.95-.02.14-.04.32-.04.52v3.66h-.92v-4.31Z"/>
      <path class="cls-4" d="M126.63,117.36c.01,1.77.71,2.16,1.38,2.16.4,0,.73-.1.96-.23l.14.68c-.32.18-.82.28-1.27.28-1.39,0-2.11-1.14-2.11-2.91,0-1.88.79-3.06,1.96-3.06s1.66,1.25,1.66,2.57c0,.22,0,.37-.01.52h-2.7ZM128.46,116.68c.02-1.16-.42-1.68-.86-1.68-.6,0-.91.89-.95,1.68h1.81Z"/>
      <path class="cls-4" d="M130.33,115.87c0-.49-.04-1.07-.05-1.5h.83l.05.91h.02c.19-.55.68-1.01,1.22-1.01.07,0,.13.01.19.01v.95c-.06-.01-.12-.01-.19-.01-.59,0-1.02.54-1.12,1.21-.02.16-.04.34-.04.53v3.21h-.92v-4.31Z"/>
      <path class="cls-4" d="M135.54,120.18l-.06-.61h-.04c-.25.44-.66.71-1.15.71-.78,0-1.38-.66-1.38-1.65,0-1.45,1.16-2.1,2.47-2.11v-.18c0-.78-.19-1.32-.92-1.32-.36,0-.68.12-.96.3l-.2-.65c.24-.18.78-.38,1.36-.38,1.16,0,1.67.77,1.67,2.08v2.51c0,.44,0,.95.06,1.32h-.84ZM135.4,117.18c-.48,0-1.6.08-1.6,1.34,0,.76.38,1.03.71,1.03.41,0,.76-.3.86-.88.02-.11.02-.23.02-.32v-1.18Z"/>
      <path class="cls-4" d="M137.6,115.87c0-.49-.04-1.07-.05-1.5h.83l.05.91h.02c.19-.55.68-1.01,1.22-1.01.07,0,.13.01.19.01v.95c-.06-.01-.12-.01-.19-.01-.59,0-1.02.54-1.12,1.21-.02.16-.04.34-.04.53v3.21h-.92v-4.31Z"/>
    </g>
    <g>
      <path class="cls-2" d="M90.44,111.88v6.91c0,.4.04,1.06.05,1.39h-.79l-.06-.73h-.04c-.19.42-.6.83-1.21.83-.98,0-1.69-1.07-1.69-2.97,0-2.06.85-3.02,1.75-3.02.42,0,.83.2,1.06.7h.02v-3.09h.91ZM89.53,116.58c0-.12,0-.25-.01-.38-.06-.6-.42-1.13-.86-1.13-.77,0-1.03,1.07-1.03,2.23,0,1.22.31,2.21.98,2.21.29,0,.68-.16.89-1,.02-.11.04-.24.04-.38v-1.55Z"/>
      <path class="cls-2" d="M92.39,117.36c.01,1.77.71,2.16,1.38,2.16.4,0,.73-.1.96-.23l.14.68c-.32.18-.82.28-1.27.28-1.39,0-2.11-1.14-2.11-2.91,0-1.88.79-3.06,1.96-3.06s1.66,1.25,1.66,2.57c0,.22,0,.37-.01.52h-2.7ZM94.21,116.68c.02-1.16-.42-1.68-.86-1.68-.6,0-.91.89-.95,1.68h1.81Z"/>
      <path class="cls-2" d="M96.03,120.18c.01-.34.05-1,.05-1.39v-6.91h.92v3.18h.02c.3-.58.73-.78,1.22-.78.9,0,1.58,1.04,1.58,2.94,0,2.1-.86,3.06-1.76,3.06-.61,0-.92-.36-1.15-.85h-.04l-.06.76h-.79ZM97.01,118.13c0,.13,0,.26.04.36.22.86.61,1.02.86,1.02.74,0,1.01-1.01,1.01-2.24,0-1.16-.28-2.19-1.02-2.19-.43,0-.79.54-.86,1.03-.02.13-.02.28-.02.41v1.62Z"/>
      <path class="cls-2" d="M101.53,117.36c.01,1.77.71,2.16,1.38,2.16.4,0,.73-.1.96-.23l.14.68c-.32.18-.82.28-1.27.28-1.39,0-2.11-1.14-2.11-2.91,0-1.88.79-3.06,1.96-3.06s1.66,1.25,1.66,2.57c0,.22,0,.37-.01.52h-2.7ZM103.35,116.68c.02-1.16-.42-1.68-.86-1.68-.6,0-.91.89-.95,1.68h1.81Z"/>
      <path class="cls-2" d="M105.24,115.87c0-.68-.04-1.03-.05-1.5h.8l.05.7h.02c.25-.47.72-.79,1.33-.79.8,0,1.4.6,1.4,2v3.9h-.92v-3.74c0-.68-.13-1.38-.8-1.38-.38,0-.75.32-.88.95-.02.14-.04.32-.04.52v3.66h-.92v-4.31Z"/>
      <path class="cls-2" d="M115.53,114.37c-.01.41-.05.92-.05,1.81v3.25c0,1.52-.19,2.1-.58,2.52-.35.4-.9.62-1.55.62-.49,0-.97-.12-1.27-.29l.22-.72c.23.12.61.25,1.08.25.73,0,1.19-.46,1.19-1.77v-.59h-.02c-.2.46-.62.71-1.12.71-1.03,0-1.7-1.16-1.7-2.87,0-2.13.97-3.02,1.82-3.02.62,0,.91.41,1.08.76h.02l.05-.66h.83ZM114.57,116.38c0-.14-.01-.3-.05-.42-.11-.4-.31-.89-.84-.89-.67,0-1.03.9-1.03,2.18,0,1.49.47,2.16,1.03,2.16.28,0,.64-.13.83-.83.05-.18.06-.36.06-.53v-1.68Z"/>
      <path class="cls-2" d="M117.42,117.36c.01,1.77.71,2.16,1.38,2.16.4,0,.73-.1.96-.23l.14.68c-.32.18-.82.28-1.27.28-1.39,0-2.11-1.14-2.11-2.91,0-1.88.79-3.06,1.96-3.06s1.66,1.25,1.66,2.57c0,.22,0,.37-.01.52h-2.7ZM119.24,116.68c.02-1.16-.42-1.68-.86-1.68-.6,0-.91.89-.95,1.68h1.81Z"/>
      <path class="cls-2" d="M121.12,115.87c0-.68-.04-1.03-.05-1.5h.8l.05.7h.02c.25-.47.72-.79,1.33-.79.8,0,1.4.6,1.4,2v3.9h-.92v-3.74c0-.68-.13-1.38-.8-1.38-.38,0-.76.32-.88.95-.02.14-.04.32-.04.52v3.66h-.92v-4.31Z"/>
      <path class="cls-2" d="M126.63,117.36c.01,1.77.71,2.16,1.38,2.16.4,0,.73-.1.96-.23l.14.68c-.32.18-.82.28-1.27.28-1.39,0-2.11-1.14-2.11-2.91,0-1.88.79-3.06,1.96-3.06s1.66,1.25,1.66,2.57c0,.22,0,.37-.01.52h-2.7ZM128.46,116.68c.02-1.16-.42-1.68-.86-1.68-.6,0-.91.89-.95,1.68h1.81Z"/>
      <path class="cls-2" d="M130.33,115.87c0-.49-.04-1.07-.05-1.5h.83l.05.91h.02c.19-.55.68-1.01,1.22-1.01.07,0,.13.01.19.01v.95c-.06-.01-.12-.01-.19-.01-.59,0-1.02.54-1.12,1.21-.02.16-.04.34-.04.53v3.21h-.92v-4.31Z"/>
      <path class="cls-2" d="M135.54,120.18l-.06-.61h-.04c-.25.44-.66.71-1.15.71-.78,0-1.38-.66-1.38-1.65,0-1.45,1.16-2.1,2.47-2.11v-.18c0-.78-.19-1.32-.92-1.32-.36,0-.68.12-.96.3l-.2-.65c.24-.18.78-.38,1.36-.38,1.16,0,1.67.77,1.67,2.08v2.51c0,.44,0,.95.06,1.32h-.84ZM135.4,117.18c-.48,0-1.6.08-1.6,1.34,0,.76.38,1.03.71,1.03.41,0,.76-.3.86-.88.02-.11.02-.23.02-.32v-1.18Z"/>
      <path class="cls-2" d="M137.6,115.87c0-.49-.04-1.07-.05-1.5h.83l.05.91h.02c.19-.55.68-1.01,1.22-1.01.07,0,.13.01.19.01v.95c-.06-.01-.12-.01-.19-.01-.59,0-1.02.54-1.12,1.21-.02.16-.04.34-.04.53v3.21h-.92v-4.31Z"/>
    </g>
    <g>
      <path class="cls-1" d="M90.44,111.88v6.91c0,.4.04,1.06.05,1.39h-.79l-.06-.73h-.04c-.19.42-.6.83-1.21.83-.98,0-1.69-1.07-1.69-2.97,0-2.06.85-3.02,1.75-3.02.42,0,.83.2,1.06.7h.02v-3.09h.91ZM89.53,116.58c0-.12,0-.25-.01-.38-.06-.6-.42-1.13-.86-1.13-.77,0-1.03,1.07-1.03,2.23,0,1.22.31,2.21.98,2.21.29,0,.68-.16.89-1,.02-.11.04-.24.04-.38v-1.55Z"/>
      <path class="cls-1" d="M92.39,117.36c.01,1.77.71,2.16,1.38,2.16.4,0,.73-.1.96-.23l.14.68c-.32.18-.82.28-1.27.28-1.39,0-2.11-1.14-2.11-2.91,0-1.88.79-3.06,1.96-3.06s1.66,1.25,1.66,2.57c0,.22,0,.37-.01.52h-2.7ZM94.21,116.68c.02-1.16-.42-1.68-.86-1.68-.6,0-.91.89-.95,1.68h1.81Z"/>
      <path class="cls-1" d="M96.03,120.18c.01-.34.05-1,.05-1.39v-6.91h.92v3.18h.02c.3-.58.73-.78,1.22-.78.9,0,1.58,1.04,1.58,2.94,0,2.1-.86,3.06-1.76,3.06-.61,0-.92-.36-1.15-.85h-.04l-.06.76h-.79ZM97.01,118.13c0,.13,0,.26.04.36.22.86.61,1.02.86,1.02.74,0,1.01-1.01,1.01-2.24,0-1.16-.28-2.19-1.02-2.19-.43,0-.79.54-.86,1.03-.02.13-.02.28-.02.41v1.62Z"/>
      <path class="cls-1" d="M101.53,117.36c.01,1.77.71,2.16,1.38,2.16.4,0,.73-.1.96-.23l.14.68c-.32.18-.82.28-1.27.28-1.39,0-2.11-1.14-2.11-2.91,0-1.88.79-3.06,1.96-3.06s1.66,1.25,1.66,2.57c0,.22,0,.37-.01.52h-2.7ZM103.35,116.68c.02-1.16-.42-1.68-.86-1.68-.6,0-.91.89-.95,1.68h1.81Z"/>
      <path class="cls-1" d="M105.24,115.87c0-.68-.04-1.03-.05-1.5h.8l.05.7h.02c.25-.47.72-.79,1.33-.79.8,0,1.4.6,1.4,2v3.9h-.92v-3.74c0-.68-.13-1.38-.8-1.38-.38,0-.75.32-.88.95-.02.14-.04.32-.04.52v3.66h-.92v-4.31Z"/>
      <path class="cls-1" d="M115.53,114.37c-.01.41-.05.92-.05,1.81v3.25c0,1.52-.19,2.1-.58,2.52-.35.4-.9.62-1.55.62-.49,0-.97-.12-1.27-.29l.22-.72c.23.12.61.25,1.08.25.73,0,1.19-.46,1.19-1.77v-.59h-.02c-.2.46-.62.71-1.12.71-1.03,0-1.7-1.16-1.7-2.87,0-2.13.97-3.02,1.82-3.02.62,0,.91.41,1.08.76h.02l.05-.66h.83ZM114.57,116.38c0-.14-.01-.3-.05-.42-.11-.4-.31-.89-.84-.89-.67,0-1.03.9-1.03,2.18,0,1.49.47,2.16,1.03,2.16.28,0,.64-.13.83-.83.05-.18.06-.36.06-.53v-1.68Z"/>
      <path class="cls-1" d="M117.42,117.36c.01,1.77.71,2.16,1.38,2.16.4,0,.73-.1.96-.23l.14.68c-.32.18-.82.28-1.27.28-1.39,0-2.11-1.14-2.11-2.91,0-1.88.79-3.06,1.96-3.06s1.66,1.25,1.66,2.57c0,.22,0,.37-.01.52h-2.7ZM119.24,116.68c.02-1.16-.42-1.68-.86-1.68-.6,0-.91.89-.95,1.68h1.81Z"/>
      <path class="cls-1" d="M121.12,115.87c0-.68-.04-1.03-.05-1.5h.8l.05.7h.02c.25-.47.72-.79,1.33-.79.8,0,1.4.6,1.4,2v3.9h-.92v-3.74c0-.68-.13-1.38-.8-1.38-.38,0-.76.32-.88.95-.02.14-.04.32-.04.52v3.66h-.92v-4.31Z"/>
      <path class="cls-1" d="M126.63,117.36c.01,1.77.71,2.16,1.38,2.16.4,0,.73-.1.96-.23l.14.68c-.32.18-.82.28-1.27.28-1.39,0-2.11-1.14-2.11-2.91,0-1.88.79-3.06,1.96-3.06s1.66,1.25,1.66,2.57c0,.22,0,.37-.01.52h-2.7ZM128.46,116.68c.02-1.16-.42-1.68-.86-1.68-.6,0-.91.89-.95,1.68h1.81Z"/>
      <path class="cls-1" d="M130.33,115.87c0-.49-.04-1.07-.05-1.5h.83l.05.91h.02c.19-.55.68-1.01,1.22-1.01.07,0,.13.01.19.01v.95c-.06-.01-.12-.01-.19-.01-.59,0-1.02.54-1.12,1.21-.02.16-.04.34-.04.53v3.21h-.92v-4.31Z"/>
      <path class="cls-1" d="M135.54,120.18l-.06-.61h-.04c-.25.44-.66.71-1.15.71-.78,0-1.38-.66-1.38-1.65,0-1.45,1.16-2.1,2.47-2.11v-.18c0-.78-.19-1.32-.92-1.32-.36,0-.68.12-.96.3l-.2-.65c.24-.18.78-.38,1.36-.38,1.16,0,1.67.77,1.67,2.08v2.51c0,.44,0,.95.06,1.32h-.84ZM135.4,117.18c-.48,0-1.6.08-1.6,1.34,0,.76.38,1.03.71,1.03.41,0,.76-.3.86-.88.02-.11.02-.23.02-.32v-1.18Z"/>
      <path class="cls-1" d="M137.6,115.87c0-.49-.04-1.07-.05-1.5h.83l.05.91h.02c.19-.55.68-1.01,1.22-1.01.07,0,.13.01.19.01v.95c-.06-.01-.12-.01-.19-.01-.59,0-1.02.54-1.12,1.21-.02.16-.04.34-.04.53v3.21h-.92v-4.31Z"/>
    </g>
  </g>
  <g>
    <path class="cls-1" d="M75.16,144.05v10.79h-1.23v-10.79h1.23Z"/>
    <path class="cls-1" d="M83.64,150.2c-.08-1.42-.16-3.01-.11-4.23h-.06c-.24,1.2-.53,2.48-.87,3.75l-1.33,5.06h-.78l-1.26-4.85c-.35-1.38-.67-2.71-.88-3.95h-.05c0,1.26-.06,2.77-.13,4.31l-.21,4.56h-1.1l.64-10.79h1.33l1.26,4.93c.37,1.42.64,2.48.86,3.71h.05c.21-1.23.45-2.26.8-3.71l1.22-4.93h1.38l.62,10.79h-1.15l-.22-4.64Z"/>
    <path class="cls-1" d="M86.69,144.21c.5-.13,1.09-.21,1.79-.21.99,0,1.83.24,2.38.8.53.51.8,1.3.8,2.23,0,.99-.24,1.66-.66,2.21-.59.8-1.58,1.2-2.54,1.2-.21,0-.37,0-.54-.02v4.42h-1.23v-10.63ZM87.92,149.38c.14.03.27.05.48.05,1.22,0,2.03-.8,2.03-2.32,0-1.1-.46-2.1-1.83-2.1-.29,0-.53.03-.69.08v4.29Z"/>
    <path class="cls-1" d="M93.46,151.61l-.72,3.23h-1.18l2.46-10.79h1.36l2.4,10.79h-1.22l-.72-3.23h-2.38ZM95.68,150.62l-.56-2.74c-.16-.77-.3-1.66-.43-2.46h-.06c-.13.82-.29,1.74-.43,2.46l-.56,2.74h2.05Z"/>
    <path class="cls-1" d="M103.51,154.65c-.34.18-.86.29-1.54.29-2.11,0-3.62-1.7-3.62-5.36,0-4.26,2.11-5.62,3.81-5.62.66,0,1.12.13,1.34.27l-.27,1.04c-.26-.11-.53-.22-1.09-.22-1.15,0-2.5,1.12-2.5,4.42s1.22,4.39,2.53,4.39c.46,0,.88-.11,1.14-.24l.19,1.04Z"/>
    <path class="cls-1" d="M106.18,145.16h-1.97v-1.1h5.17v1.1h-1.97v9.68h-1.23v-9.68Z"/>
    <path class="cls-1" d="M115.73,149.37c0,4.05-1.39,5.6-3.12,5.6s-2.99-1.9-2.99-5.54,1.28-5.51,3.17-5.51,2.95,2,2.95,5.44ZM110.9,149.45c0,2.22.43,4.43,1.79,4.43s1.76-2.35,1.76-4.47-.37-4.4-1.78-4.4-1.78,2.24-1.78,4.43Z"/>
    <path class="cls-1" d="M119.47,153.42c.37.24,1.01.43,1.55.43,1.12,0,1.79-.74,1.79-1.83,0-.99-.58-1.6-1.42-2.24-.85-.59-2.03-1.6-2.03-2.99,0-1.63,1.14-2.83,2.85-2.83.67,0,1.26.21,1.52.4l-.3,1.06c-.27-.19-.72-.37-1.28-.37-1.06,0-1.55.8-1.55,1.54,0,1.07.56,1.49,1.58,2.22,1.3.91,1.87,1.9,1.87,3.11,0,1.86-1.31,3.03-3.03,3.03-.74,0-1.52-.24-1.82-.46l.27-1.06Z"/>
    <path class="cls-1" d="M131.16,149.37c0,4.05-1.39,5.6-3.12,5.6s-2.99-1.9-2.99-5.54,1.28-5.51,3.17-5.51,2.95,2,2.95,5.44ZM126.32,149.45c0,2.22.43,4.43,1.79,4.43s1.76-2.35,1.76-4.47-.37-4.4-1.78-4.4-1.78,2.24-1.78,4.43Z"/>
    <path class="cls-1" d="M137.33,154.65c-.34.18-.86.29-1.54.29-2.11,0-3.62-1.7-3.62-5.36,0-4.26,2.11-5.62,3.81-5.62.66,0,1.12.13,1.34.27l-.27,1.04c-.26-.11-.53-.22-1.09-.22-1.15,0-2.5,1.12-2.5,4.42s1.22,4.39,2.53,4.39c.46,0,.88-.11,1.14-.24l.19,1.04Z"/>
    <path class="cls-1" d="M139.83,144.05v10.79h-1.23v-10.79h1.23Z"/>
    <path class="cls-1" d="M143.07,151.61l-.72,3.23h-1.18l2.46-10.79h1.36l2.4,10.79h-1.22l-.72-3.23h-2.38ZM145.3,150.62l-.56-2.74c-.16-.77-.3-1.66-.43-2.46h-.06c-.13.82-.29,1.74-.43,2.46l-.56,2.74h2.05Z"/>
    <path class="cls-1" d="M148.74,144.05h1.23v9.75h3.04v1.04h-4.27v-10.79Z"/>
  </g>
  <rect class="cls-3" x="68.55" y="136.78" width="89.13" height="25.34" rx="7.06" ry="7.06"/>
  <line class="cls-3" x1="113.12" y1="27.65" x2="113.12" y2="69.54"/>
  <g>
    <g>
      <path class="cls-4" d="M112.69,44.65v6.91c0,.4.04,1.06.05,1.39h-.79l-.06-.73h-.04c-.19.42-.6.83-1.21.83-.98,0-1.69-1.07-1.69-2.97,0-2.06.85-3.02,1.75-3.02.42,0,.83.2,1.06.7h.02v-3.09h.91ZM111.78,49.35c0-.12,0-.25-.01-.38-.06-.6-.42-1.13-.86-1.13-.77,0-1.03,1.07-1.03,2.23,0,1.22.31,2.21.98,2.21.29,0,.68-.16.89-1,.02-.11.04-.24.04-.38v-1.55Z"/>
      <path class="cls-4" d="M114.63,50.13c.01,1.77.71,2.16,1.38,2.16.4,0,.73-.1.96-.23l.14.68c-.32.18-.82.28-1.27.28-1.39,0-2.11-1.14-2.11-2.91,0-1.88.79-3.06,1.96-3.06s1.66,1.25,1.66,2.57c0,.22,0,.37-.01.52h-2.7ZM116.46,49.44c.02-1.16-.42-1.68-.86-1.68-.6,0-.91.89-.95,1.68h1.81Z"/>
    </g>
    <g>
      <path class="cls-2" d="M112.69,44.65v6.91c0,.4.04,1.06.05,1.39h-.79l-.06-.73h-.04c-.19.42-.6.83-1.21.83-.98,0-1.69-1.07-1.69-2.97,0-2.06.85-3.02,1.75-3.02.42,0,.83.2,1.06.7h.02v-3.09h.91ZM111.78,49.35c0-.12,0-.25-.01-.38-.06-.6-.42-1.13-.86-1.13-.77,0-1.03,1.07-1.03,2.23,0,1.22.31,2.21.98,2.21.29,0,.68-.16.89-1,.02-.11.04-.24.04-.38v-1.55Z"/>
      <path class="cls-2" d="M114.63,50.13c.01,1.77.71,2.16,1.38,2.16.4,0,.73-.1.96-.23l.14.68c-.32.18-.82.28-1.27.28-1.39,0-2.11-1.14-2.11-2.91,0-1.88.79-3.06,1.96-3.06s1.66,1.25,1.66,2.57c0,.22,0,.37-.01.52h-2.7ZM116.46,49.44c.02-1.16-.42-1.68-.86-1.68-.6,0-.91.89-.95,1.68h1.81Z"/>
    </g>
    <g>
      <path class="cls-1" d="M112.69,44.65v6.91c0,.4.04,1.06.05,1.39h-.79l-.06-.73h-.04c-.19.42-.6.83-1.21.83-.98,0-1.69-1.07-1.69-2.97,0-2.06.85-3.02,1.75-3.02.42,0,.83.2,1.06.7h.02v-3.09h.91ZM111.78,49.35c0-.12,0-.25-.01-.38-.06-.6-.42-1.13-.86-1.13-.77,0-1.03,1.07-1.03,2.23,0,1.22.31,2.21.98,2.21.29,0,.68-.16.89-1,.02-.11.04-.24.04-.38v-1.55Z"/>
      <path class="cls-1" d="M114.63,50.13c.01,1.77.71,2.16,1.38,2.16.4,0,.73-.1.96-.23l.14.68c-.32.18-.82.28-1.27.28-1.39,0-2.11-1.14-2.11-2.91,0-1.88.79-3.06,1.96-3.06s1.66,1.25,1.66,2.57c0,.22,0,.37-.01.52h-2.7ZM116.46,49.44c.02-1.16-.42-1.68-.86-1.68-.6,0-.91.89-.95,1.68h1.81Z"/>
    </g>
  </g>
  <g>
    <path class="cls-1" d="M82.93,76.98c.5-.13,1.09-.21,1.79-.21.99,0,1.83.24,2.38.8.53.51.8,1.3.8,2.23,0,.99-.24,1.66-.66,2.21-.59.8-1.58,1.2-2.54,1.2-.21,0-.37,0-.54-.02v4.42h-1.23v-10.63ZM84.16,82.15c.14.03.27.05.48.05,1.22,0,2.03-.8,2.03-2.32,0-1.1-.46-2.1-1.83-2.1-.29,0-.53.03-.69.08v4.29Z"/>
    <path class="cls-1" d="M89.31,76.98c.53-.14,1.17-.21,1.78-.21,1.07,0,1.87.22,2.43.77.53.54.75,1.26.75,2.11,0,1.38-.64,2.27-1.73,2.77v.03c.8.24,1.22,1.01,1.46,2.42.24,1.49.46,2.4.61,2.74h-1.25c-.16-.32-.37-1.34-.58-2.67-.24-1.47-.7-2.03-1.76-2.03h-.48v4.71h-1.23v-10.63ZM90.55,81.96h.51c1.18,0,1.97-.86,1.97-2.16s-.51-2.02-1.84-2.03c-.24,0-.48.02-.64.06v4.13Z"/>
    <path class="cls-1" d="M99.8,82.48h-2.71v4.05h3.07v1.07h-4.31v-10.79h4.11v1.07h-2.88v3.55h2.71v1.04Z"/>
    <path class="cls-1" d="M103.43,87.61l-2.46-10.79h1.31l1.06,5.06c.26,1.22.58,2.77.77,4.15h.05c.16-1.39.46-2.9.72-4.18l1.02-5.03h1.31l-2.51,10.79h-1.26Z"/>
    <path class="cls-1" d="M112.34,82.48h-2.71v4.05h3.07v1.07h-4.31v-10.79h4.11v1.07h-2.88v3.55h2.71v1.04Z"/>
    <path class="cls-1" d="M114.07,87.61v-10.79h1.17l1.98,5.06c.45,1.15,1.01,2.59,1.38,3.76h.03c-.1-1.7-.14-3.09-.14-4.96v-3.86h1.1v10.79h-1.17l-2.05-5.19c-.43-1.09-.9-2.32-1.28-3.67h-.03c.1,1.44.13,2.82.13,5.12v3.73h-1.12Z"/>
    <path class="cls-1" d="M126.21,87.41c-.34.18-.86.29-1.54.29-2.11,0-3.62-1.7-3.62-5.36,0-4.26,2.11-5.62,3.81-5.62.66,0,1.12.13,1.34.27l-.27,1.04c-.26-.11-.53-.22-1.09-.22-1.15,0-2.5,1.12-2.5,4.42s1.22,4.39,2.53,4.39c.46,0,.88-.11,1.14-.24l.19,1.04Z"/>
    <path class="cls-1" d="M128.71,76.82v10.79h-1.23v-10.79h1.23Z"/>
    <path class="cls-1" d="M136.32,82.13c0,4.05-1.39,5.6-3.12,5.6s-2.99-1.9-2.99-5.54,1.28-5.51,3.17-5.51,2.95,2,2.95,5.44ZM131.49,82.21c0,2.22.43,4.43,1.79,4.43s1.76-2.35,1.76-4.47-.37-4.4-1.78-4.4-1.78,2.24-1.78,4.43ZM135.46,74.51l-1.99,1.73h-.98l1.5-1.73h1.46Z"/>
    <path class="cls-1" d="M137.79,87.61v-10.79h1.17l1.98,5.06c.45,1.15,1.01,2.59,1.38,3.76h.03c-.1-1.7-.14-3.09-.14-4.96v-3.86h1.1v10.79h-1.17l-2.05-5.19c-.43-1.09-.9-2.32-1.28-3.67h-.03c.1,1.44.13,2.82.13,5.12v3.73h-1.12Z"/>
  </g>
  <rect class="cls-3" x="78.02" y="69.54" width="70.21" height="25.34" rx="7.06" ry="7.06"/>
  <line class="cls-3" x1="113.12" y1="264.7" x2="113.12" y2="306.6"/>
  <g>
    <g>
      <path class="cls-4" d="M103.61,289.04c.2.13.56.3.93.3.53,0,.85-.32.85-.84,0-.44-.16-.74-.74-1.14-.76-.49-1.16-.98-1.16-1.65,0-.94.7-1.61,1.59-1.61.46,0,.8.16,1.04.3l-.25.7c-.22-.14-.47-.25-.77-.25-.5,0-.76.36-.76.73,0,.4.14.61.72,1.01.67.43,1.2.96,1.2,1.76,0,1.16-.79,1.73-1.74,1.73-.43,0-.9-.13-1.15-.34l.23-.7Z"/>
      <path class="cls-4" d="M110.79,287.09c0,2.24-1.04,3-1.93,3-1.04,0-1.88-.95-1.88-2.99s.95-3.01,1.94-3.01,1.87.97,1.87,3ZM107.9,287.09c0,.96.17,2.27,1.01,2.27.79,0,.95-1.37.95-2.27s-.16-2.25-.97-2.25-.98,1.37-.98,2.25Z"/>
      <path class="cls-4" d="M111.76,289.99c.01-.34.05-1,.05-1.39v-6.91h.92v3.18h.02c.3-.58.73-.78,1.22-.78.9,0,1.58,1.04,1.58,2.94,0,2.1-.86,3.06-1.76,3.06-.61,0-.92-.36-1.15-.85h-.04l-.06.76h-.79ZM112.74,287.94c0,.13,0,.26.04.36.22.86.61,1.02.86,1.02.74,0,1.01-1.01,1.01-2.24,0-1.16-.28-2.19-1.02-2.19-.43,0-.79.54-.86,1.03-.02.13-.02.28-.02.41v1.62Z"/>
      <path class="cls-4" d="M116.6,285.69c0-.49-.04-1.07-.05-1.5h.83l.05.91h.02c.19-.55.68-1.01,1.22-1.01.07,0,.13.01.19.01v.95c-.06-.01-.12-.01-.19-.01-.59,0-1.02.54-1.12,1.21-.02.16-.04.34-.04.53v3.21h-.92v-4.31Z"/>
      <path class="cls-4" d="M120.07,287.18c.01,1.77.71,2.16,1.38,2.16.4,0,.73-.1.96-.23l.14.68c-.32.18-.82.28-1.27.28-1.39,0-2.11-1.14-2.11-2.91,0-1.88.79-3.06,1.96-3.06s1.66,1.25,1.66,2.57c0,.22,0,.37-.01.52h-2.7ZM121.89,286.49c.02-1.16-.42-1.68-.86-1.68-.6,0-.91.89-.95,1.68h1.81Z"/>
    </g>
    <g>
      <path class="cls-2" d="M103.61,289.04c.2.13.56.3.93.3.53,0,.85-.32.85-.84,0-.44-.16-.74-.74-1.14-.76-.49-1.16-.98-1.16-1.65,0-.94.7-1.61,1.59-1.61.46,0,.8.16,1.04.3l-.25.7c-.22-.14-.47-.25-.77-.25-.5,0-.76.36-.76.73,0,.4.14.61.72,1.01.67.43,1.2.96,1.2,1.76,0,1.16-.79,1.73-1.74,1.73-.43,0-.9-.13-1.15-.34l.23-.7Z"/>
      <path class="cls-2" d="M110.79,287.09c0,2.24-1.04,3-1.93,3-1.04,0-1.88-.95-1.88-2.99s.95-3.01,1.94-3.01,1.87.97,1.87,3ZM107.9,287.09c0,.96.17,2.27,1.01,2.27.79,0,.95-1.37.95-2.27s-.16-2.25-.97-2.25-.98,1.37-.98,2.25Z"/>
      <path class="cls-2" d="M111.76,289.99c.01-.34.05-1,.05-1.39v-6.91h.92v3.18h.02c.3-.58.73-.78,1.22-.78.9,0,1.58,1.04,1.58,2.94,0,2.1-.86,3.06-1.76,3.06-.61,0-.92-.36-1.15-.85h-.04l-.06.76h-.79ZM112.74,287.94c0,.13,0,.26.04.36.22.86.61,1.02.86,1.02.74,0,1.01-1.01,1.01-2.24,0-1.16-.28-2.19-1.02-2.19-.43,0-.79.54-.86,1.03-.02.13-.02.28-.02.41v1.62Z"/>
      <path class="cls-2" d="M116.6,285.69c0-.49-.04-1.07-.05-1.5h.83l.05.91h.02c.19-.55.68-1.01,1.22-1.01.07,0,.13.01.19.01v.95c-.06-.01-.12-.01-.19-.01-.59,0-1.02.54-1.12,1.21-.02.16-.04.34-.04.53v3.21h-.92v-4.31Z"/>
      <path class="cls-2" d="M120.07,287.18c.01,1.77.71,2.16,1.38,2.16.4,0,.73-.1.96-.23l.14.68c-.32.18-.82.28-1.27.28-1.39,0-2.11-1.14-2.11-2.91,0-1.88.79-3.06,1.96-3.06s1.66,1.25,1.66,2.57c0,.22,0,.37-.01.52h-2.7ZM121.89,286.49c.02-1.16-.42-1.68-.86-1.68-.6,0-.91.89-.95,1.68h1.81Z"/>
    </g>
    <g>
      <path class="cls-1" d="M103.61,289.04c.2.13.56.3.93.3.53,0,.85-.32.85-.84,0-.44-.16-.74-.74-1.14-.76-.49-1.16-.98-1.16-1.65,0-.94.7-1.61,1.59-1.61.46,0,.8.16,1.04.3l-.25.7c-.22-.14-.47-.25-.77-.25-.5,0-.76.36-.76.73,0,.4.14.61.72,1.01.67.43,1.2.96,1.2,1.76,0,1.16-.79,1.73-1.74,1.73-.43,0-.9-.13-1.15-.34l.23-.7Z"/>
      <path class="cls-1" d="M110.79,287.09c0,2.24-1.04,3-1.93,3-1.04,0-1.88-.95-1.88-2.99s.95-3.01,1.94-3.01,1.87.97,1.87,3ZM107.9,287.09c0,.96.17,2.27,1.01,2.27.79,0,.95-1.37.95-2.27s-.16-2.25-.97-2.25-.98,1.37-.98,2.25Z"/>
      <path class="cls-1" d="M111.76,289.99c.01-.34.05-1,.05-1.39v-6.91h.92v3.18h.02c.3-.58.73-.78,1.22-.78.9,0,1.58,1.04,1.58,2.94,0,2.1-.86,3.06-1.76,3.06-.61,0-.92-.36-1.15-.85h-.04l-.06.76h-.79ZM112.74,287.94c0,.13,0,.26.04.36.22.86.61,1.02.86,1.02.74,0,1.01-1.01,1.01-2.24,0-1.16-.28-2.19-1.02-2.19-.43,0-.79.54-.86,1.03-.02.13-.02.28-.02.41v1.62Z"/>
      <path class="cls-1" d="M116.6,285.69c0-.49-.04-1.07-.05-1.5h.83l.05.91h.02c.19-.55.68-1.01,1.22-1.01.07,0,.13.01.19.01v.95c-.06-.01-.12-.01-.19-.01-.59,0-1.02.54-1.12,1.21-.02.16-.04.34-.04.53v3.21h-.92v-4.31Z"/>
      <path class="cls-1" d="M120.07,287.18c.01,1.77.71,2.16,1.38,2.16.4,0,.73-.1.96-.23l.14.68c-.32.18-.82.28-1.27.28-1.39,0-2.11-1.14-2.11-2.91,0-1.88.79-3.06,1.96-3.06s1.66,1.25,1.66,2.57c0,.22,0,.37-.01.52h-2.7ZM121.89,286.49c.02-1.16-.42-1.68-.86-1.68-.6,0-.91.89-.95,1.68h1.81Z"/>
    </g>
  </g>
  <g>
    <path class="cls-1" d="M56.76,314.03c.48-.14,1.04-.21,1.67-.21,1.14,0,1.94.29,2.53.82.83.72,1.46,2.11,1.46,4.37,0,2.47-.61,3.81-1.3,4.55-.71.8-1.73,1.17-2.98,1.17-.5,0-1.01-.03-1.38-.11v-10.58ZM58,323.65c.18.03.35.03.46.03,1.36,0,2.67-.98,2.67-4.64,0-2.72-.83-4.21-2.56-4.21-.19,0-.42.02-.58.06v8.76Z"/>
    <path class="cls-1" d="M65.12,313.87v10.79h-1.23v-10.79h1.23Z"/>
    <path class="cls-1" d="M67.07,313.87h4.11v1.07h-2.88v3.78h2.69v1.04h-2.69v4.9h-1.23v-10.79Z"/>
    <path class="cls-1" d="M76.52,319.54h-2.71v4.05h3.07v1.07h-4.31v-10.79h4.11v1.07h-2.88v3.55h2.71v1.04Z"/>
    <path class="cls-1" d="M78.25,314.03c.53-.14,1.17-.21,1.78-.21,1.07,0,1.87.22,2.43.77.53.54.75,1.26.75,2.11,0,1.38-.64,2.27-1.73,2.77v.03c.8.24,1.22,1.01,1.46,2.42.24,1.49.46,2.4.61,2.74h-1.25c-.16-.32-.37-1.34-.58-2.67-.24-1.47-.7-2.03-1.76-2.03h-.48v4.71h-1.23v-10.63ZM79.48,319.01h.51c1.18,0,1.97-.86,1.97-2.16s-.51-2.02-1.84-2.03c-.24,0-.48.02-.64.06v4.13Z"/>
    <path class="cls-1" d="M88.73,319.54h-2.71v4.05h3.07v1.07h-4.31v-10.79h4.11v1.07h-2.88v3.55h2.71v1.04Z"/>
    <path class="cls-1" d="M90.46,324.66v-10.79h1.17l1.98,5.06c.45,1.15,1.01,2.59,1.38,3.76h.03c-.1-1.7-.14-3.09-.14-4.96v-3.86h1.1v10.79h-1.17l-2.05-5.19c-.43-1.09-.9-2.32-1.28-3.67h-.03c.1,1.44.13,2.82.13,5.12v3.73h-1.12Z"/>
    <path class="cls-1" d="M99.16,314.97h-1.97v-1.1h5.17v1.1h-1.97v9.68h-1.23v-9.68Z"/>
    <path class="cls-1" d="M107.5,319.54h-2.71v4.05h3.07v1.07h-4.31v-10.79h4.11v1.07h-2.88v3.55h2.71v1.04Z"/>
    <path class="cls-1" d="M108.99,323.23c.37.24,1.01.43,1.55.43,1.12,0,1.79-.74,1.79-1.83,0-.99-.58-1.6-1.42-2.24-.85-.59-2.03-1.6-2.03-2.99,0-1.63,1.14-2.83,2.85-2.83.67,0,1.26.21,1.52.4l-.3,1.06c-.27-.19-.72-.37-1.28-.37-1.06,0-1.55.8-1.55,1.54,0,1.07.56,1.49,1.58,2.22,1.3.91,1.87,1.9,1.87,3.11,0,1.86-1.31,3.03-3.03,3.03-.74,0-1.52-.24-1.82-.46l.27-1.06Z"/>
    <path class="cls-1" d="M118.22,314.97h-1.97v-1.1h5.17v1.1h-1.97v9.68h-1.23v-9.68Z"/>
    <path class="cls-1" d="M126.56,319.54h-2.71v4.05h3.07v1.07h-4.31v-10.79h4.11v1.07h-2.88v3.55h2.71v1.04Z"/>
    <path class="cls-1" d="M134.81,320.02c-.08-1.42-.16-3.01-.11-4.23h-.06c-.24,1.2-.53,2.48-.87,3.75l-1.33,5.06h-.78l-1.26-4.85c-.35-1.38-.67-2.71-.88-3.95h-.05c0,1.26-.06,2.77-.13,4.31l-.21,4.56h-1.1l.64-10.79h1.33l1.26,4.93c.37,1.42.64,2.48.86,3.71h.05c.21-1.23.45-2.26.8-3.71l1.22-4.93h1.38l.62,10.79h-1.15l-.22-4.64Z"/>
    <path class="cls-1" d="M139.05,321.42l-.72,3.23h-1.18l2.46-10.79h1.36l2.4,10.79h-1.22l-.72-3.23h-2.38ZM141.27,320.43l-.56-2.74c-.16-.77-.3-1.66-.43-2.46h-.06c-.13.82-.29,1.74-.43,2.46l-.56,2.74h2.05ZM142.44,311.56l-1.99,1.73h-.98l1.5-1.73h1.46Z"/>
    <path class="cls-1" d="M145.02,314.97h-1.97v-1.1h5.17v1.1h-1.97v9.68h-1.23v-9.68Z"/>
    <path class="cls-1" d="M150.65,313.87v10.79h-1.23v-10.79h1.23Z"/>
    <path class="cls-1" d="M157.31,324.47c-.34.18-.86.29-1.54.29-2.11,0-3.62-1.7-3.62-5.36,0-4.26,2.11-5.62,3.81-5.62.66,0,1.12.13,1.34.27l-.27,1.04c-.26-.11-.53-.22-1.09-.22-1.15,0-2.5,1.12-2.5,4.42s1.22,4.39,2.53,4.39c.46,0,.88-.11,1.14-.24l.19,1.04Z"/>
    <path class="cls-1" d="M159.96,321.42l-.72,3.23h-1.18l2.46-10.79h1.36l2.4,10.79h-1.22l-.72-3.23h-2.38ZM162.19,320.43l-.56-2.74c-.16-.77-.3-1.66-.43-2.46h-.06c-.13.82-.29,1.74-.43,2.46l-.56,2.74h2.05Z"/>
    <path class="cls-1" d="M165.39,323.23c.37.24,1.01.43,1.55.43,1.12,0,1.79-.74,1.79-1.83,0-.99-.58-1.6-1.42-2.24-.85-.59-2.03-1.6-2.03-2.99,0-1.63,1.14-2.83,2.85-2.83.67,0,1.26.21,1.52.4l-.3,1.06c-.27-.19-.72-.37-1.28-.37-1.06,0-1.55.8-1.55,1.54,0,1.07.56,1.49,1.58,2.22,1.3.91,1.87,1.9,1.87,3.11,0,1.86-1.31,3.03-3.03,3.03-.74,0-1.52-.24-1.82-.46l.27-1.06Z"/>
  </g>
  <rect class="cls-3" x="49.81" y="306.6" width="126.62" height="25.34" rx="7.06" ry="7.06"/>
</svg>