<?xml version="1.0" encoding="UTF-8"?>
<svg id="Capa_1_copia" data-name="Capa 1 copia" xmlns="http://www.w3.org/2000/svg" viewBox="0 0 347.62 331.88">
  <defs>
    <style>
      .cls-1 {
        fill: #000;
      }

      .cls-1, .cls-2 {
        stroke-width: 0px;
      }

      .cls-3 {
        stroke-width: 1.5px;
      }

      .cls-3, .cls-4, .cls-5 {
        fill: none;
      }

      .cls-3, .cls-5 {
        stroke: #000;
        stroke-miterlimit: 10;
      }

      .cls-2 {
        fill: #1d1d1b;
      }

      .cls-4 {
        stroke: #fff;
        stroke-width: 4px;
      }

      .cls-5 {
        stroke-width: 3px;
      }
    </style>
  </defs>
  <line class="cls-3" x1="175.84" y1="26.84" x2="175.84" y2="68.73"/>
  <g>
    <g>
      <path class="cls-4" d="M142.37,44.8v1.54h1.12v.71h-1.12v3.44c0,.76.28.96.61.96.14,0,.26-.01.37-.04l.04.71c-.17.06-.38.1-.68.1-.36,0-.68-.1-.91-.35-.23-.26-.35-.66-.35-1.46v-3.36h-.71v-.71h.71v-1.27l.92-.26Z"/>
      <path class="cls-4" d="M147.78,50.55c0,.65.04,1.15.05,1.58h-.8l-.06-.61h-.02c-.18.29-.62.71-1.25.71-1.02,0-1.42-.79-1.42-2.23v-3.67h.92v3.54c0,.91.14,1.58.78,1.58.54,0,.78-.5.83-.77.04-.16.05-.34.05-.53v-3.83h.92v4.22Z"/>
      <path class="cls-4" d="M149.54,46.33l.73,3.26c.08.4.18.91.25,1.42h.04c.06-.48.16-.97.24-1.42l.72-3.26h.91l-1.51,5.8h-.83l-1.51-5.8h.96Z"/>
      <path class="cls-4" d="M156.65,49.23c0,2.24-1.04,3-1.93,3-1.04,0-1.88-.95-1.88-2.99s.95-3.01,1.94-3.01,1.87.97,1.87,3ZM153.76,49.23c0,.96.17,2.27,1.01,2.27.79,0,.95-1.37.95-2.27s-.16-2.25-.97-2.25-.98,1.37-.98,2.25Z"/>
      <path class="cls-4" d="M162.4,51.99c-.2.12-.55.22-.96.22-1.27,0-2.12-1.02-2.12-2.94,0-1.67.84-3.02,2.29-3.02.31,0,.65.08.82.18l-.18.76c-.12-.06-.36-.16-.66-.16-.92,0-1.34,1.1-1.34,2.24,0,1.35.52,2.17,1.37,2.17.25,0,.46-.06.67-.16l.12.71Z"/>
      <path class="cls-4" d="M166.68,49.23c0,2.24-1.04,3-1.93,3-1.04,0-1.88-.95-1.88-2.99s.95-3.01,1.94-3.01,1.87.97,1.87,3ZM163.79,49.23c0,.96.17,2.27,1.01,2.27.79,0,.95-1.37.95-2.27s-.16-2.25-.97-2.25-.98,1.37-.98,2.25Z"/>
      <path class="cls-4" d="M167.71,47.83c0-.68-.04-1.03-.05-1.5h.8l.05.7h.02c.25-.47.72-.79,1.33-.79.8,0,1.4.6,1.4,2v3.9h-.92v-3.74c0-.68-.13-1.38-.8-1.38-.38,0-.76.32-.88.95-.02.14-.04.32-.04.52v3.66h-.92v-4.31Z"/>
      <path class="cls-4" d="M172.42,51.18c.2.13.56.3.93.3.53,0,.85-.32.85-.84,0-.44-.16-.74-.74-1.14-.76-.49-1.16-.98-1.16-1.65,0-.94.7-1.61,1.59-1.61.46,0,.8.16,1.04.3l-.25.7c-.22-.14-.47-.25-.77-.25-.5,0-.76.36-.76.73,0,.4.14.61.72,1.01.67.43,1.2.96,1.2,1.76,0,1.16-.79,1.73-1.74,1.73-.43,0-.9-.13-1.15-.34l.23-.7Z"/>
      <path class="cls-4" d="M176.69,49.32c.01,1.77.71,2.16,1.38,2.16.4,0,.73-.1.96-.23l.14.68c-.32.18-.82.28-1.27.28-1.39,0-2.11-1.14-2.11-2.91,0-1.88.79-3.06,1.96-3.06s1.66,1.25,1.66,2.57c0,.22,0,.37-.01.52h-2.7ZM178.51,48.63c.02-1.16-.42-1.68-.86-1.68-.6,0-.91.89-.95,1.68h1.81Z"/>
      <path class="cls-4" d="M183.23,51.99c-.2.12-.55.22-.96.22-1.27,0-2.12-1.02-2.12-2.94,0-1.67.84-3.02,2.29-3.02.31,0,.65.08.82.18l-.18.76c-.12-.06-.36-.16-.66-.16-.92,0-1.34,1.1-1.34,2.24,0,1.35.52,2.17,1.37,2.17.25,0,.46-.06.67-.16l.12.71Z"/>
      <path class="cls-4" d="M187.55,50.55c0,.65.04,1.15.05,1.58h-.8l-.06-.61h-.02c-.18.29-.62.71-1.25.71-1.02,0-1.42-.79-1.42-2.23v-3.67h.92v3.54c0,.91.14,1.58.78,1.58.54,0,.78-.5.83-.77.04-.16.05-.34.05-.53v-3.83h.92v4.22Z"/>
      <path class="cls-4" d="M189.49,49.32c.01,1.77.71,2.16,1.38,2.16.4,0,.73-.1.96-.23l.14.68c-.32.18-.82.28-1.27.28-1.39,0-2.11-1.14-2.11-2.91,0-1.88.79-3.06,1.96-3.06s1.66,1.25,1.66,2.57c0,.22,0,.37-.01.52h-2.7ZM191.31,48.63c.02-1.16-.42-1.68-.86-1.68-.6,0-.91.89-.95,1.68h1.81Z"/>
      <path class="cls-4" d="M193.2,47.83c0-.68-.04-1.03-.05-1.5h.8l.05.7h.02c.25-.47.72-.79,1.33-.79.8,0,1.4.6,1.4,2v3.9h-.92v-3.74c0-.68-.13-1.38-.8-1.38-.38,0-.75.32-.88.95-.02.14-.04.32-.04.52v3.66h-.92v-4.31Z"/>
      <path class="cls-4" d="M200.89,51.99c-.2.12-.55.22-.96.22-1.27,0-2.12-1.02-2.12-2.94,0-1.67.84-3.02,2.29-3.02.31,0,.65.08.82.18l-.18.76c-.12-.06-.36-.16-.66-.16-.92,0-1.34,1.1-1.34,2.24,0,1.35.52,2.17,1.37,2.17.25,0,.46-.06.67-.16l.12.71Z"/>
      <path class="cls-4" d="M202.68,44.83c.01.36-.22.6-.56.6-.3,0-.53-.24-.53-.6s.24-.6.54-.6c.33,0,.55.24.55.6ZM201.68,52.14v-5.8h.92v5.8h-.92Z"/>
      <path class="cls-4" d="M206.18,52.14l-.06-.61h-.04c-.25.44-.66.71-1.15.71-.78,0-1.38-.66-1.38-1.65,0-1.45,1.16-2.1,2.47-2.11v-.18c0-.78-.19-1.32-.92-1.32-.36,0-.68.12-.96.3l-.2-.65c.24-.18.78-.38,1.36-.38,1.16,0,1.67.77,1.67,2.08v2.51c0,.44,0,.95.06,1.32h-.84ZM206.05,49.14c-.48,0-1.6.08-1.6,1.34,0,.76.38,1.03.71,1.03.41,0,.76-.3.86-.88.02-.11.02-.23.02-.32v-1.18Z"/>
      <path class="cls-4" d="M208.1,51.18c.2.13.56.3.93.3.53,0,.85-.32.85-.84,0-.44-.16-.74-.74-1.14-.76-.49-1.16-.98-1.16-1.65,0-.94.7-1.61,1.59-1.61.46,0,.8.16,1.04.3l-.25.7c-.22-.14-.47-.25-.77-.25-.5,0-.76.36-.76.73,0,.4.14.61.72,1.01.67.43,1.2.96,1.2,1.76,0,1.16-.79,1.73-1.74,1.73-.43,0-.9-.13-1.15-.34l.23-.7Z"/>
    </g>
    <g>
      <path class="cls-2" d="M142.37,44.8v1.54h1.12v.71h-1.12v3.44c0,.76.28.96.61.96.14,0,.26-.01.37-.04l.04.71c-.17.06-.38.1-.68.1-.36,0-.68-.1-.91-.35-.23-.26-.35-.66-.35-1.46v-3.36h-.71v-.71h.71v-1.27l.92-.26Z"/>
      <path class="cls-2" d="M147.78,50.55c0,.65.04,1.15.05,1.58h-.8l-.06-.61h-.02c-.18.29-.62.71-1.25.71-1.02,0-1.42-.79-1.42-2.23v-3.67h.92v3.54c0,.91.14,1.58.78,1.58.54,0,.78-.5.83-.77.04-.16.05-.34.05-.53v-3.83h.92v4.22Z"/>
      <path class="cls-2" d="M149.54,46.33l.73,3.26c.08.4.18.91.25,1.42h.04c.06-.48.16-.97.24-1.42l.72-3.26h.91l-1.51,5.8h-.83l-1.51-5.8h.96Z"/>
      <path class="cls-2" d="M156.65,49.23c0,2.24-1.04,3-1.93,3-1.04,0-1.88-.95-1.88-2.99s.95-3.01,1.94-3.01,1.87.97,1.87,3ZM153.76,49.23c0,.96.17,2.27,1.01,2.27.79,0,.95-1.37.95-2.27s-.16-2.25-.97-2.25-.98,1.37-.98,2.25Z"/>
      <path class="cls-2" d="M162.4,51.99c-.2.12-.55.22-.96.22-1.27,0-2.12-1.02-2.12-2.94,0-1.67.84-3.02,2.29-3.02.31,0,.65.08.82.18l-.18.76c-.12-.06-.36-.16-.66-.16-.92,0-1.34,1.1-1.34,2.24,0,1.35.52,2.17,1.37,2.17.25,0,.46-.06.67-.16l.12.71Z"/>
      <path class="cls-2" d="M166.68,49.23c0,2.24-1.04,3-1.93,3-1.04,0-1.88-.95-1.88-2.99s.95-3.01,1.94-3.01,1.87.97,1.87,3ZM163.79,49.23c0,.96.17,2.27,1.01,2.27.79,0,.95-1.37.95-2.27s-.16-2.25-.97-2.25-.98,1.37-.98,2.25Z"/>
      <path class="cls-2" d="M167.71,47.83c0-.68-.04-1.03-.05-1.5h.8l.05.7h.02c.25-.47.72-.79,1.33-.79.8,0,1.4.6,1.4,2v3.9h-.92v-3.74c0-.68-.13-1.38-.8-1.38-.38,0-.76.32-.88.95-.02.14-.04.32-.04.52v3.66h-.92v-4.31Z"/>
      <path class="cls-2" d="M172.42,51.18c.2.13.56.3.93.3.53,0,.85-.32.85-.84,0-.44-.16-.74-.74-1.14-.76-.49-1.16-.98-1.16-1.65,0-.94.7-1.61,1.59-1.61.46,0,.8.16,1.04.3l-.25.7c-.22-.14-.47-.25-.77-.25-.5,0-.76.36-.76.73,0,.4.14.61.72,1.01.67.43,1.2.96,1.2,1.76,0,1.16-.79,1.73-1.74,1.73-.43,0-.9-.13-1.15-.34l.23-.7Z"/>
      <path class="cls-2" d="M176.69,49.32c.01,1.77.71,2.16,1.38,2.16.4,0,.73-.1.96-.23l.14.68c-.32.18-.82.28-1.27.28-1.39,0-2.11-1.14-2.11-2.91,0-1.88.79-3.06,1.96-3.06s1.66,1.25,1.66,2.57c0,.22,0,.37-.01.52h-2.7ZM178.51,48.63c.02-1.16-.42-1.68-.86-1.68-.6,0-.91.89-.95,1.68h1.81Z"/>
      <path class="cls-2" d="M183.23,51.99c-.2.12-.55.22-.96.22-1.27,0-2.12-1.02-2.12-2.94,0-1.67.84-3.02,2.29-3.02.31,0,.65.08.82.18l-.18.76c-.12-.06-.36-.16-.66-.16-.92,0-1.34,1.1-1.34,2.24,0,1.35.52,2.17,1.37,2.17.25,0,.46-.06.67-.16l.12.71Z"/>
      <path class="cls-2" d="M187.55,50.55c0,.65.04,1.15.05,1.58h-.8l-.06-.61h-.02c-.18.29-.62.71-1.25.71-1.02,0-1.42-.79-1.42-2.23v-3.67h.92v3.54c0,.91.14,1.58.78,1.58.54,0,.78-.5.83-.77.04-.16.05-.34.05-.53v-3.83h.92v4.22Z"/>
      <path class="cls-2" d="M189.49,49.32c.01,1.77.71,2.16,1.38,2.16.4,0,.73-.1.96-.23l.14.68c-.32.18-.82.28-1.27.28-1.39,0-2.11-1.14-2.11-2.91,0-1.88.79-3.06,1.96-3.06s1.66,1.25,1.66,2.57c0,.22,0,.37-.01.52h-2.7ZM191.31,48.63c.02-1.16-.42-1.68-.86-1.68-.6,0-.91.89-.95,1.68h1.81Z"/>
      <path class="cls-2" d="M193.2,47.83c0-.68-.04-1.03-.05-1.5h.8l.05.7h.02c.25-.47.72-.79,1.33-.79.8,0,1.4.6,1.4,2v3.9h-.92v-3.74c0-.68-.13-1.38-.8-1.38-.38,0-.75.32-.88.95-.02.14-.04.32-.04.52v3.66h-.92v-4.31Z"/>
      <path class="cls-2" d="M200.89,51.99c-.2.12-.55.22-.96.22-1.27,0-2.12-1.02-2.12-2.94,0-1.67.84-3.02,2.29-3.02.31,0,.65.08.82.18l-.18.76c-.12-.06-.36-.16-.66-.16-.92,0-1.34,1.1-1.34,2.24,0,1.35.52,2.17,1.37,2.17.25,0,.46-.06.67-.16l.12.71Z"/>
      <path class="cls-2" d="M202.68,44.83c.01.36-.22.6-.56.6-.3,0-.53-.24-.53-.6s.24-.6.54-.6c.33,0,.55.24.55.6ZM201.68,52.14v-5.8h.92v5.8h-.92Z"/>
      <path class="cls-2" d="M206.18,52.14l-.06-.61h-.04c-.25.44-.66.71-1.15.71-.78,0-1.38-.66-1.38-1.65,0-1.45,1.16-2.1,2.47-2.11v-.18c0-.78-.19-1.32-.92-1.32-.36,0-.68.12-.96.3l-.2-.65c.24-.18.78-.38,1.36-.38,1.16,0,1.67.77,1.67,2.08v2.51c0,.44,0,.95.06,1.32h-.84ZM206.05,49.14c-.48,0-1.6.08-1.6,1.34,0,.76.38,1.03.71,1.03.41,0,.76-.3.86-.88.02-.11.02-.23.02-.32v-1.18Z"/>
      <path class="cls-2" d="M208.1,51.18c.2.13.56.3.93.3.53,0,.85-.32.85-.84,0-.44-.16-.74-.74-1.14-.76-.49-1.16-.98-1.16-1.65,0-.94.7-1.61,1.59-1.61.46,0,.8.16,1.04.3l-.25.7c-.22-.14-.47-.25-.77-.25-.5,0-.76.36-.76.73,0,.4.14.61.72,1.01.67.43,1.2.96,1.2,1.76,0,1.16-.79,1.73-1.74,1.73-.43,0-.9-.13-1.15-.34l.23-.7Z"/>
    </g>
    <g>
      <path class="cls-1" d="M142.37,44.8v1.54h1.12v.71h-1.12v3.44c0,.76.28.96.61.96.14,0,.26-.01.37-.04l.04.71c-.17.06-.38.1-.68.1-.36,0-.68-.1-.91-.35-.23-.26-.35-.66-.35-1.46v-3.36h-.71v-.71h.71v-1.27l.92-.26Z"/>
      <path class="cls-1" d="M147.78,50.55c0,.65.04,1.15.05,1.58h-.8l-.06-.61h-.02c-.18.29-.62.71-1.25.71-1.02,0-1.42-.79-1.42-2.23v-3.67h.92v3.54c0,.91.14,1.58.78,1.58.54,0,.78-.5.83-.77.04-.16.05-.34.05-.53v-3.83h.92v4.22Z"/>
      <path class="cls-1" d="M149.54,46.33l.73,3.26c.08.4.18.91.25,1.42h.04c.06-.48.16-.97.24-1.42l.72-3.26h.91l-1.51,5.8h-.83l-1.51-5.8h.96Z"/>
      <path class="cls-1" d="M156.65,49.23c0,2.24-1.04,3-1.93,3-1.04,0-1.88-.95-1.88-2.99s.95-3.01,1.94-3.01,1.87.97,1.87,3ZM153.76,49.23c0,.96.17,2.27,1.01,2.27.79,0,.95-1.37.95-2.27s-.16-2.25-.97-2.25-.98,1.37-.98,2.25Z"/>
      <path class="cls-1" d="M162.4,51.99c-.2.12-.55.22-.96.22-1.27,0-2.12-1.02-2.12-2.94,0-1.67.84-3.02,2.29-3.02.31,0,.65.08.82.18l-.18.76c-.12-.06-.36-.16-.66-.16-.92,0-1.34,1.1-1.34,2.24,0,1.35.52,2.17,1.37,2.17.25,0,.46-.06.67-.16l.12.71Z"/>
      <path class="cls-1" d="M166.68,49.23c0,2.24-1.04,3-1.93,3-1.04,0-1.88-.95-1.88-2.99s.95-3.01,1.94-3.01,1.87.97,1.87,3ZM163.79,49.23c0,.96.17,2.27,1.01,2.27.79,0,.95-1.37.95-2.27s-.16-2.25-.97-2.25-.98,1.37-.98,2.25Z"/>
      <path class="cls-1" d="M167.71,47.83c0-.68-.04-1.03-.05-1.5h.8l.05.7h.02c.25-.47.72-.79,1.33-.79.8,0,1.4.6,1.4,2v3.9h-.92v-3.74c0-.68-.13-1.38-.8-1.38-.38,0-.76.32-.88.95-.02.14-.04.32-.04.52v3.66h-.92v-4.31Z"/>
      <path class="cls-1" d="M172.42,51.18c.2.13.56.3.93.3.53,0,.85-.32.85-.84,0-.44-.16-.74-.74-1.14-.76-.49-1.16-.98-1.16-1.65,0-.94.7-1.61,1.59-1.61.46,0,.8.16,1.04.3l-.25.7c-.22-.14-.47-.25-.77-.25-.5,0-.76.36-.76.73,0,.4.14.61.72,1.01.67.43,1.2.96,1.2,1.76,0,1.16-.79,1.73-1.74,1.73-.43,0-.9-.13-1.15-.34l.23-.7Z"/>
      <path class="cls-1" d="M176.69,49.32c.01,1.77.71,2.16,1.38,2.16.4,0,.73-.1.96-.23l.14.68c-.32.18-.82.28-1.27.28-1.39,0-2.11-1.14-2.11-2.91,0-1.88.79-3.06,1.96-3.06s1.66,1.25,1.66,2.57c0,.22,0,.37-.01.52h-2.7ZM178.51,48.63c.02-1.16-.42-1.68-.86-1.68-.6,0-.91.89-.95,1.68h1.81Z"/>
      <path class="cls-1" d="M183.23,51.99c-.2.12-.55.22-.96.22-1.27,0-2.12-1.02-2.12-2.94,0-1.67.84-3.02,2.29-3.02.31,0,.65.08.82.18l-.18.76c-.12-.06-.36-.16-.66-.16-.92,0-1.34,1.1-1.34,2.24,0,1.35.52,2.17,1.37,2.17.25,0,.46-.06.67-.16l.12.71Z"/>
      <path class="cls-1" d="M187.55,50.55c0,.65.04,1.15.05,1.58h-.8l-.06-.61h-.02c-.18.29-.62.71-1.25.71-1.02,0-1.42-.79-1.42-2.23v-3.67h.92v3.54c0,.91.14,1.58.78,1.58.54,0,.78-.5.83-.77.04-.16.05-.34.05-.53v-3.83h.92v4.22Z"/>
      <path class="cls-1" d="M189.49,49.32c.01,1.77.71,2.16,1.38,2.16.4,0,.73-.1.96-.23l.14.68c-.32.18-.82.28-1.27.28-1.39,0-2.11-1.14-2.11-2.91,0-1.88.79-3.06,1.96-3.06s1.66,1.25,1.66,2.57c0,.22,0,.37-.01.52h-2.7ZM191.31,48.63c.02-1.16-.42-1.68-.86-1.68-.6,0-.91.89-.95,1.68h1.81Z"/>
      <path class="cls-1" d="M193.2,47.83c0-.68-.04-1.03-.05-1.5h.8l.05.7h.02c.25-.47.72-.79,1.33-.79.8,0,1.4.6,1.4,2v3.9h-.92v-3.74c0-.68-.13-1.38-.8-1.38-.38,0-.75.32-.88.95-.02.14-.04.32-.04.52v3.66h-.92v-4.31Z"/>
      <path class="cls-1" d="M200.89,51.99c-.2.12-.55.22-.96.22-1.27,0-2.12-1.02-2.12-2.94,0-1.67.84-3.02,2.29-3.02.31,0,.65.08.82.18l-.18.76c-.12-.06-.36-.16-.66-.16-.92,0-1.34,1.1-1.34,2.24,0,1.35.52,2.17,1.37,2.17.25,0,.46-.06.67-.16l.12.71Z"/>
      <path class="cls-1" d="M202.68,44.83c.01.36-.22.6-.56.6-.3,0-.53-.24-.53-.6s.24-.6.54-.6c.33,0,.55.24.55.6ZM201.68,52.14v-5.8h.92v5.8h-.92Z"/>
      <path class="cls-1" d="M206.18,52.14l-.06-.61h-.04c-.25.44-.66.71-1.15.71-.78,0-1.38-.66-1.38-1.65,0-1.45,1.16-2.1,2.47-2.11v-.18c0-.78-.19-1.32-.92-1.32-.36,0-.68.12-.96.3l-.2-.65c.24-.18.78-.38,1.36-.38,1.16,0,1.67.77,1.67,2.08v2.51c0,.44,0,.95.06,1.32h-.84ZM206.05,49.14c-.48,0-1.6.08-1.6,1.34,0,.76.38,1.03.71,1.03.41,0,.76-.3.86-.88.02-.11.02-.23.02-.32v-1.18Z"/>
      <path class="cls-1" d="M208.1,51.18c.2.13.56.3.93.3.53,0,.85-.32.85-.84,0-.44-.16-.74-.74-1.14-.76-.49-1.16-.98-1.16-1.65,0-.94.7-1.61,1.59-1.61.46,0,.8.16,1.04.3l-.25.7c-.22-.14-.47-.25-.77-.25-.5,0-.76.36-.76.73,0,.4.14.61.72,1.01.67.43,1.2.96,1.2,1.76,0,1.16-.79,1.73-1.74,1.73-.43,0-.9-.13-1.15-.34l.23-.7Z"/>
    </g>
  </g>
  <g>
    <path class="cls-1" d="M132.06,8.78h2.1v9.01h2.77v1.78h-4.87v-10.79Z"/>
    <path class="cls-1" d="M139.98,17.1l-.48,2.46h-2.03l2.34-10.79h2.51l2.1,10.79h-2.03l-.46-2.46h-1.94ZM141.72,15.47l-.35-2.26c-.11-.66-.26-1.73-.35-2.45h-.05c-.11.72-.27,1.84-.38,2.47l-.4,2.24h1.54Z"/>
    <path class="cls-1" d="M153.31,19.4c-.3.14-.9.26-1.63.26-2.75,0-4.07-2.27-4.07-5.33,0-4.07,2.26-5.65,4.35-5.65.74,0,1.25.14,1.46.29l-.35,1.76c-.24-.11-.51-.21-.98-.21-1.18,0-2.26,1.02-2.26,3.7s.98,3.59,2.26,3.59c.35,0,.75-.08,1.01-.16l.21,1.76Z"/>
    <path class="cls-1" d="M154.45,8.94c.66-.13,1.49-.21,2.29-.21,1.15,0,2.18.16,2.88.8.66.59.85,1.31.85,2.24,0,1.15-.56,2.19-1.67,2.71v.03c.74.29,1.1.98,1.31,2.13.21,1.2.5,2.53.69,2.93h-2.19c-.13-.3-.37-1.39-.53-2.58-.19-1.34-.53-1.73-1.23-1.73h-.3v4.31h-2.1v-10.63ZM156.55,13.64h.37c.91,0,1.44-.74,1.44-1.68s-.37-1.57-1.31-1.6c-.18,0-.38.02-.5.06v3.22Z"/>
    <path class="cls-1" d="M164.07,8.78v10.79h-2.1v-10.79h2.1Z"/>
    <path class="cls-1" d="M165.7,17.42c.43.24,1.17.42,1.78.42.99,0,1.47-.51,1.47-1.22,0-.78-.48-1.17-1.39-1.76-1.47-.9-2.03-2.03-2.03-3.01,0-1.73,1.15-3.17,3.41-3.17.7,0,1.38.19,1.7.38l-.34,1.81c-.3-.19-.77-.37-1.38-.37-.9,0-1.33.54-1.33,1.12,0,.64.32.98,1.49,1.68,1.42.86,1.95,1.95,1.95,3.09,0,1.97-1.46,3.27-3.57,3.27-.86,0-1.71-.22-2.07-.43l.3-1.81Z"/>
    <path class="cls-1" d="M174.34,8.78v10.79h-2.1v-10.79h2.1Z"/>
    <path class="cls-1" d="M175.97,17.42c.43.24,1.17.42,1.78.42.99,0,1.47-.51,1.47-1.22,0-.78-.48-1.17-1.39-1.76-1.47-.9-2.03-2.03-2.03-3.01,0-1.73,1.15-3.17,3.41-3.17.7,0,1.38.19,1.7.38l-.34,1.81c-.3-.19-.77-.37-1.38-.37-.9,0-1.33.54-1.33,1.12,0,.64.32.98,1.49,1.68,1.42.86,1.95,1.95,1.95,3.09,0,1.97-1.46,3.27-3.57,3.27-.86,0-1.71-.22-2.07-.43l.3-1.81Z"/>
    <path class="cls-1" d="M185.06,8.94c.53-.13,1.3-.21,2.13-.21,1.36,0,2.3.32,2.99.96.93.83,1.41,2.26,1.41,4.35s-.56,3.73-1.5,4.56c-.72.7-1.79,1.04-3.3,1.04-.66,0-1.31-.06-1.73-.11v-10.6ZM187.16,17.9c.1.03.26.03.37.03,1.01,0,1.89-.99,1.89-3.97,0-2.21-.58-3.55-1.84-3.55-.14,0-.29,0-.42.05v7.44Z"/>
    <path class="cls-1" d="M197.48,14.83h-2.46v2.91h2.79v1.82h-4.88v-10.79h4.69v1.82h-2.59v2.48h2.46v1.74Z"/>
    <path class="cls-1" d="M199.22,8.78h2.1v9.01h2.77v1.78h-4.87v-10.79Z"/>
    <path class="cls-1" d="M207.3,19.56v-1.41l1.04-1.33c1.34-1.71,2.45-3.14,2.45-4.63,0-.83-.46-1.42-1.33-1.42-.66,0-1.18.29-1.57.53l-.37-1.63c.48-.3,1.38-.64,2.32-.64,2.27,0,3.01,1.52,3.01,3.01,0,1.95-1.22,3.52-2.42,4.91l-.62.74v.03h3.18v1.84h-5.7Z"/>
    <path class="cls-1" d="M214.92,17.95c.4,0,.61-.02.96-.08.4-.08.86-.29,1.22-.62.45-.43.83-1.17,1.01-2.1h-.05c-.34.37-.82.64-1.49.64-1.34,0-2.45-1.2-2.45-3.11,0-1.79,1.1-3.65,3.11-3.65s2.95,1.76,2.95,4.27c0,2.35-.75,4-1.71,5.03-.64.69-1.55,1.15-2.56,1.31-.34.05-.66.05-.98.05v-1.74ZM216.18,12.5c.02,1.01.34,1.84.98,1.84.37,0,.69-.27.8-.54.08-.21.1-.42.1-1.1,0-1.38-.38-2.15-.94-2.15s-.94.69-.93,1.95Z"/>
  </g>
  <rect class="cls-5" x="122.61" y="1.5" width="106.45" height="25.34" rx="7.06" ry="7.06"/>
  <g>
    <path class="cls-1" d="M127.63,178.75c.5-.13,1.09-.21,1.79-.21.99,0,1.83.24,2.38.8.53.51.8,1.3.8,2.23,0,.99-.24,1.66-.66,2.21-.59.8-1.58,1.2-2.54,1.2-.21,0-.37,0-.54-.02v4.42h-1.23v-10.63ZM128.86,183.92c.14.03.27.05.48.05,1.22,0,2.03-.8,2.03-2.32,0-1.1-.46-2.1-1.83-2.1-.29,0-.53.03-.69.08v4.29Z"/>
    <path class="cls-1" d="M139.68,183.91c0,4.05-1.39,5.6-3.12,5.6s-2.99-1.9-2.99-5.54,1.28-5.51,3.17-5.51,2.95,2,2.95,5.44ZM134.85,183.99c0,2.22.43,4.43,1.79,4.43s1.76-2.35,1.76-4.47-.37-4.4-1.78-4.4-1.78,2.24-1.78,4.43Z"/>
    <path class="cls-1" d="M141.15,178.59h1.23v9.75h3.04v1.04h-4.27v-10.79Z"/>
    <path class="cls-1" d="M149.41,176.29l-1.99,1.73h-.98l1.52-1.73h1.44ZM147.89,178.59v10.79h-1.23v-10.79h1.23Z"/>
    <path class="cls-1" d="M151.1,179.7h-1.97v-1.1h5.17v1.1h-1.97v9.68h-1.23v-9.68Z"/>
    <path class="cls-1" d="M156.73,178.59v10.79h-1.23v-10.79h1.23Z"/>
    <path class="cls-1" d="M163.39,189.19c-.34.18-.86.29-1.54.29-2.11,0-3.62-1.7-3.62-5.36,0-4.26,2.11-5.62,3.81-5.62.66,0,1.12.13,1.34.27l-.27,1.04c-.26-.11-.53-.22-1.09-.22-1.15,0-2.5,1.12-2.5,4.42s1.22,4.39,2.53,4.39c.46,0,.88-.11,1.14-.24l.19,1.04Z"/>
    <path class="cls-1" d="M166.05,186.15l-.72,3.23h-1.18l2.46-10.79h1.36l2.4,10.79h-1.22l-.72-3.23h-2.38ZM168.27,185.15l-.56-2.74c-.16-.77-.3-1.66-.43-2.46h-.06c-.13.82-.29,1.74-.43,2.46l-.56,2.74h2.05Z"/>
    <path class="cls-1" d="M171.47,187.96c.37.24,1.01.43,1.55.43,1.12,0,1.79-.74,1.79-1.83,0-.99-.58-1.6-1.42-2.24-.85-.59-2.03-1.6-2.03-2.99,0-1.63,1.14-2.83,2.85-2.83.67,0,1.26.21,1.52.4l-.3,1.06c-.27-.19-.72-.37-1.28-.37-1.06,0-1.55.8-1.55,1.54,0,1.07.56,1.49,1.58,2.22,1.3.91,1.87,1.9,1.87,3.11,0,1.86-1.31,3.03-3.03,3.03-.74,0-1.52-.24-1.82-.46l.27-1.06Z"/>
    <path class="cls-1" d="M179.76,187.96c.37.24,1.01.43,1.55.43,1.12,0,1.79-.74,1.79-1.83,0-.99-.58-1.6-1.42-2.24-.85-.59-2.03-1.6-2.03-2.99,0-1.63,1.14-2.83,2.85-2.83.67,0,1.26.21,1.52.4l-.3,1.06c-.27-.19-.72-.37-1.28-.37-1.06,0-1.55.8-1.55,1.54,0,1.07.56,1.49,1.58,2.22,1.3.91,1.87,1.9,1.87,3.11,0,1.86-1.31,3.03-3.03,3.03-.74,0-1.52-.24-1.82-.46l.27-1.06Z"/>
    <path class="cls-1" d="M191.44,183.91c0,4.05-1.39,5.6-3.12,5.6s-2.99-1.9-2.99-5.54,1.28-5.51,3.17-5.51,2.95,2,2.95,5.44ZM186.61,183.99c0,2.22.43,4.43,1.79,4.43s1.76-2.35,1.76-4.47-.37-4.4-1.78-4.4-1.78,2.24-1.78,4.43Z"/>
    <path class="cls-1" d="M197.61,189.19c-.34.18-.86.29-1.54.29-2.11,0-3.62-1.7-3.62-5.36,0-4.26,2.11-5.62,3.81-5.62.66,0,1.12.13,1.34.27l-.27,1.04c-.26-.11-.53-.22-1.09-.22-1.15,0-2.5,1.12-2.5,4.42s1.22,4.39,2.53,4.39c.46,0,.88-.11,1.14-.24l.19,1.04Z"/>
    <path class="cls-1" d="M200.11,178.59v10.79h-1.23v-10.79h1.23Z"/>
    <path class="cls-1" d="M203.36,186.15l-.72,3.23h-1.18l2.46-10.79h1.36l2.4,10.79h-1.22l-.72-3.23h-2.38ZM205.58,185.15l-.56-2.74c-.16-.77-.3-1.66-.43-2.46h-.06c-.13.82-.29,1.74-.43,2.46l-.56,2.74h2.05Z"/>
    <path class="cls-1" d="M209.02,178.59h1.23v9.75h3.04v1.04h-4.27v-10.79Z"/>
    <path class="cls-1" d="M218.46,184.26h-2.71v4.05h3.07v1.07h-4.31v-10.79h4.11v1.07h-2.88v3.55h2.71v1.04Z"/>
    <path class="cls-1" d="M219.95,187.96c.37.24,1.01.43,1.55.43,1.12,0,1.79-.74,1.79-1.83,0-.99-.58-1.6-1.42-2.24-.85-.59-2.03-1.6-2.03-2.99,0-1.63,1.14-2.83,2.85-2.83.67,0,1.26.21,1.52.4l-.3,1.06c-.27-.19-.72-.37-1.28-.37-1.06,0-1.55.8-1.55,1.54,0,1.07.56,1.49,1.58,2.22,1.3.91,1.87,1.9,1.87,3.11,0,1.86-1.31,3.03-3.03,3.03-.74,0-1.52-.24-1.82-.46l.27-1.06Z"/>
  </g>
  <rect class="cls-3" x="121.19" y="171.32" width="109.3" height="25.34" rx="7.06" ry="7.06"/>
  <line class="cls-3" x1="175.84" y1="129.42" x2="175.84" y2="171.32"/>
  <g>
    <g>
      <path class="cls-4" d="M131.3,154.12h-.04c-.19.4-.59.7-1.12.7-.94,0-1.68-1.02-1.68-2.93,0-2.05.86-3.07,1.82-3.07.37,0,.8.17,1.08.77h.02s.05-.67.05-.67h.83c-.02.41-.05.92-.05,1.81v6.3h-.92v-2.9ZM131.3,151.08c0-.12,0-.28-.02-.38-.07-.61-.43-1.09-.84-1.09-.75,0-1.04,1.01-1.04,2.23s.31,2.21,1.02,2.21c.29,0,.65-.17.84-.97.05-.14.05-.34.05-.49v-1.5Z"/>
      <path class="cls-4" d="M136.99,153.14c0,.65.04,1.15.05,1.58h-.8l-.06-.61h-.02c-.18.29-.62.71-1.25.71-1.02,0-1.42-.79-1.42-2.23v-3.67h.92v3.54c0,.91.14,1.58.78,1.58.54,0,.78-.5.83-.77.04-.16.05-.34.05-.53v-3.83h.92v4.22Z"/>
      <path class="cls-4" d="M138.93,151.9c.01,1.77.71,2.16,1.38,2.16.4,0,.73-.1.96-.23l.14.68c-.32.18-.82.28-1.27.28-1.39,0-2.11-1.14-2.11-2.91,0-1.88.79-3.06,1.96-3.06s1.66,1.25,1.66,2.57c0,.22,0,.37-.01.52h-2.7ZM140.75,151.22c.02-1.16-.42-1.68-.86-1.68-.6,0-.91.89-.95,1.68h1.81Z"/>
      <path class="cls-4" d="M145.52,147.41c.01.36-.22.6-.56.6-.3,0-.53-.24-.53-.6s.24-.6.54-.6c.33,0,.55.24.55.6ZM144.52,154.72v-5.8h.92v5.8h-.92Z"/>
      <path class="cls-4" d="M146.73,150.41c0-.68-.04-1.03-.05-1.5h.8l.05.72h.02c.25-.47.7-.82,1.31-.82.54,0,1,.26,1.21.89h.02c.16-.29.36-.52.58-.66.23-.16.5-.23.8-.23.78,0,1.39.58,1.39,2.05v3.85h-.91v-3.63c0-.76-.11-1.49-.82-1.49-.38,0-.72.32-.85.86-.02.16-.04.34-.04.53v3.73h-.91v-3.8c0-.65-.12-1.32-.8-1.32-.37,0-.76.32-.86.94-.02.16-.04.32-.04.5v3.68h-.91v-4.31Z"/>
      <path class="cls-4" d="M154.16,150.72c0-.89-.04-1.4-.05-1.81h.83l.05.74h.02c.31-.62.77-.84,1.22-.84,1.01,0,1.68,1.08,1.68,2.99,0,2.15-.89,3.01-1.8,3.01-.54,0-.85-.35-1.01-.67h-.02v2.88h-.92v-6.3ZM155.08,152.58c0,.18,0,.35.04.48.18.83.6.98.85.98.77,0,1.01-1.06,1.01-2.23s-.29-2.21-1.02-2.21c-.42,0-.79.53-.85,1.06-.02.14-.02.29-.02.44v1.48Z"/>
      <path class="cls-4" d="M159.96,147.41c.01.36-.22.6-.56.6-.3,0-.53-.24-.53-.6s.24-.6.54-.6c.33,0,.55.24.55.6ZM158.96,154.72v-5.8h.92v5.8h-.92Z"/>
      <path class="cls-4" d="M164.66,146.42v6.91c0,.4.04,1.06.05,1.39h-.79l-.06-.73h-.04c-.19.42-.6.83-1.21.83-.98,0-1.69-1.07-1.69-2.97,0-2.06.85-3.02,1.75-3.02.42,0,.83.2,1.06.7h.02v-3.09h.91ZM163.75,151.12c0-.12,0-.25-.01-.38-.06-.6-.42-1.13-.86-1.13-.77,0-1.03,1.07-1.03,2.23,0,1.22.31,2.21.98,2.21.29,0,.68-.16.89-1,.02-.11.04-.24.04-.38v-1.55Z"/>
      <path class="cls-4" d="M166.95,147.41c.01.36-.22.6-.56.6-.3,0-.53-.24-.53-.6s.24-.6.54-.6c.33,0,.55.24.55.6ZM165.96,154.72v-5.8h.92v5.8h-.92Z"/>
      <path class="cls-4" d="M168.81,151.9c.01,1.77.71,2.16,1.38,2.16.4,0,.73-.1.96-.23l.14.68c-.32.18-.82.28-1.27.28-1.39,0-2.11-1.14-2.11-2.91,0-1.88.79-3.06,1.96-3.06s1.66,1.25,1.66,2.57c0,.22,0,.37-.01.52h-2.7ZM170.63,151.22c.02-1.16-.42-1.68-.86-1.68-.6,0-.91.89-.95,1.68h1.81Z"/>
      <path class="cls-4" d="M172.51,150.41c0-.49-.04-1.07-.05-1.5h.83l.05.91h.02c.19-.55.68-1.01,1.22-1.01.07,0,.13.01.19.01v.95c-.06-.01-.12-.01-.19-.01-.59,0-1.02.54-1.12,1.21-.02.16-.04.34-.04.53v3.21h-.92v-4.31Z"/>
      <path class="cls-4" d="M178.89,151.82c0,2.24-1.04,3-1.93,3-1.04,0-1.88-.95-1.88-2.99s.95-3.01,1.94-3.01,1.87.97,1.87,3ZM176,151.82c0,.96.17,2.27,1.01,2.27.79,0,.95-1.37.95-2.27s-.16-2.25-.97-2.25-.98,1.37-.98,2.25Z"/>
      <path class="cls-4" d="M179.92,150.41c0-.68-.04-1.03-.05-1.5h.8l.05.7h.02c.25-.47.72-.79,1.33-.79.8,0,1.4.6,1.4,2v3.9h-.92v-3.74c0-.68-.13-1.38-.8-1.38-.38,0-.75.32-.88.95-.02.14-.04.32-.04.52v3.66h-.92v-4.31Z"/>
      <path class="cls-4" d="M190.22,148.91c-.01.41-.05.92-.05,1.81v3.25c0,1.52-.19,2.1-.58,2.52-.35.4-.9.62-1.55.62-.49,0-.97-.12-1.27-.29l.22-.72c.23.12.61.25,1.08.25.73,0,1.19-.46,1.19-1.77v-.59h-.02c-.2.46-.62.71-1.12.71-1.03,0-1.7-1.16-1.7-2.87,0-2.13.97-3.02,1.82-3.02.62,0,.91.41,1.08.76h.02l.05-.66h.83ZM189.26,150.92c0-.14-.01-.3-.05-.42-.11-.4-.31-.89-.84-.89-.67,0-1.03.9-1.03,2.18,0,1.49.47,2.16,1.03,2.16.28,0,.64-.13.83-.83.05-.18.06-.36.06-.53v-1.68Z"/>
      <path class="cls-4" d="M193.75,154.72l-.06-.61h-.04c-.25.44-.66.71-1.15.71-.78,0-1.38-.66-1.38-1.65,0-1.45,1.16-2.1,2.47-2.11v-.18c0-.78-.19-1.32-.92-1.32-.36,0-.68.12-.96.3l-.2-.65c.24-.18.78-.38,1.36-.38,1.16,0,1.67.77,1.67,2.08v2.51c0,.44,0,.95.06,1.32h-.84ZM193.61,151.72c-.48,0-1.6.08-1.6,1.34,0,.76.38,1.03.71,1.03.41,0,.76-.3.86-.88.02-.11.02-.23.02-.32v-1.18Z"/>
      <path class="cls-4" d="M195.81,150.41c0-.49-.04-1.07-.05-1.5h.83l.05.91h.02c.19-.55.68-1.01,1.22-1.01.07,0,.13.01.19.01v.95c-.06-.01-.12-.01-.19-.01-.59,0-1.02.54-1.12,1.21-.02.16-.04.34-.04.53v3.21h-.92v-4.31Z"/>
      <path class="cls-4" d="M201.02,154.72l-.06-.61h-.04c-.25.44-.66.71-1.15.71-.78,0-1.38-.66-1.38-1.65,0-1.45,1.16-2.1,2.47-2.11v-.18c0-.78-.19-1.32-.92-1.32-.36,0-.68.12-.96.3l-.2-.65c.24-.18.78-.38,1.36-.38,1.16,0,1.67.77,1.67,2.08v2.51c0,.44,0,.95.06,1.32h-.84ZM200.89,151.72c-.48,0-1.6.08-1.6,1.34,0,.76.38,1.03.71,1.03.41,0,.76-.3.86-.88.02-.11.02-.23.02-.32v-1.18Z"/>
      <path class="cls-4" d="M203.09,150.41c0-.68-.04-1.03-.05-1.5h.8l.05.7h.02c.25-.47.72-.79,1.33-.79.8,0,1.4.6,1.4,2v3.9h-.92v-3.74c0-.68-.13-1.38-.8-1.38-.38,0-.76.32-.88.95-.02.14-.04.32-.04.52v3.66h-.92v-4.31Z"/>
      <path class="cls-4" d="M209.01,147.38v1.54h1.12v.71h-1.12v3.44c0,.76.28.96.61.96.14,0,.26-.01.37-.04l.04.71c-.17.06-.38.1-.68.1-.36,0-.68-.1-.91-.35-.23-.26-.35-.66-.35-1.46v-3.36h-.71v-.71h.71v-1.27l.92-.26Z"/>
      <path class="cls-4" d="M211.94,147.41c.01.36-.22.6-.56.6-.3,0-.53-.24-.53-.6s.24-.6.54-.6c.33,0,.55.24.55.6ZM210.94,154.72v-5.8h.92v5.8h-.92Z"/>
      <path class="cls-4" d="M212.69,154.15l1.83-3.59c.16-.3.33-.6.47-.86v-.02h-2.08v-.77h3.09v.61l-1.81,3.54c-.16.3-.34.6-.47.86v.02h2.28v.77h-3.32v-.56Z"/>
      <path class="cls-4" d="M219.2,154.72l-.06-.61h-.04c-.25.44-.66.71-1.15.71-.78,0-1.38-.66-1.38-1.65,0-1.45,1.16-2.1,2.47-2.11v-.18c0-.78-.19-1.32-.92-1.32-.36,0-.68.12-.96.3l-.2-.65c.24-.18.78-.38,1.36-.38,1.16,0,1.67.77,1.67,2.08v2.51c0,.44,0,.95.06,1.32h-.84ZM219.06,151.72c-.48,0-1.6.08-1.6,1.34,0,.76.38,1.03.71,1.03.41,0,.76-.3.86-.88.02-.11.02-.23.02-.32v-1.18Z"/>
      <path class="cls-4" d="M221.26,150.41c0-.49-.04-1.07-.05-1.5h.83l.05.91h.02c.19-.55.68-1.01,1.22-1.01.07,0,.13.01.19.01v.95c-.06-.01-.12-.01-.19-.01-.59,0-1.02.54-1.12,1.21-.02.16-.04.34-.04.53v3.21h-.92v-4.31Z"/>
    </g>
    <g>
      <path class="cls-2" d="M131.3,154.12h-.04c-.19.4-.59.7-1.12.7-.94,0-1.68-1.02-1.68-2.93,0-2.05.86-3.07,1.82-3.07.37,0,.8.17,1.08.77h.02s.05-.67.05-.67h.83c-.02.41-.05.92-.05,1.81v6.3h-.92v-2.9ZM131.3,151.08c0-.12,0-.28-.02-.38-.07-.61-.43-1.09-.84-1.09-.75,0-1.04,1.01-1.04,2.23s.31,2.21,1.02,2.21c.29,0,.65-.17.84-.97.05-.14.05-.34.05-.49v-1.5Z"/>
      <path class="cls-2" d="M136.99,153.14c0,.65.04,1.15.05,1.58h-.8l-.06-.61h-.02c-.18.29-.62.71-1.25.71-1.02,0-1.42-.79-1.42-2.23v-3.67h.92v3.54c0,.91.14,1.58.78,1.58.54,0,.78-.5.83-.77.04-.16.05-.34.05-.53v-3.83h.92v4.22Z"/>
      <path class="cls-2" d="M138.93,151.9c.01,1.77.71,2.16,1.38,2.16.4,0,.73-.1.96-.23l.14.68c-.32.18-.82.28-1.27.28-1.39,0-2.11-1.14-2.11-2.91,0-1.88.79-3.06,1.96-3.06s1.66,1.25,1.66,2.57c0,.22,0,.37-.01.52h-2.7ZM140.75,151.22c.02-1.16-.42-1.68-.86-1.68-.6,0-.91.89-.95,1.68h1.81Z"/>
      <path class="cls-2" d="M145.52,147.41c.01.36-.22.6-.56.6-.3,0-.53-.24-.53-.6s.24-.6.54-.6c.33,0,.55.24.55.6ZM144.52,154.72v-5.8h.92v5.8h-.92Z"/>
      <path class="cls-2" d="M146.73,150.41c0-.68-.04-1.03-.05-1.5h.8l.05.72h.02c.25-.47.7-.82,1.31-.82.54,0,1,.26,1.21.89h.02c.16-.29.36-.52.58-.66.23-.16.5-.23.8-.23.78,0,1.39.58,1.39,2.05v3.85h-.91v-3.63c0-.76-.11-1.49-.82-1.49-.38,0-.72.32-.85.86-.02.16-.04.34-.04.53v3.73h-.91v-3.8c0-.65-.12-1.32-.8-1.32-.37,0-.76.32-.86.94-.02.16-.04.32-.04.5v3.68h-.91v-4.31Z"/>
      <path class="cls-2" d="M154.16,150.72c0-.89-.04-1.4-.05-1.81h.83l.05.74h.02c.31-.62.77-.84,1.22-.84,1.01,0,1.68,1.08,1.68,2.99,0,2.15-.89,3.01-1.8,3.01-.54,0-.85-.35-1.01-.67h-.02v2.88h-.92v-6.3ZM155.08,152.58c0,.18,0,.35.04.48.18.83.6.98.85.98.77,0,1.01-1.06,1.01-2.23s-.29-2.21-1.02-2.21c-.42,0-.79.53-.85,1.06-.02.14-.02.29-.02.44v1.48Z"/>
      <path class="cls-2" d="M159.96,147.41c.01.36-.22.6-.56.6-.3,0-.53-.24-.53-.6s.24-.6.54-.6c.33,0,.55.24.55.6ZM158.96,154.72v-5.8h.92v5.8h-.92Z"/>
      <path class="cls-2" d="M164.66,146.42v6.91c0,.4.04,1.06.05,1.39h-.79l-.06-.73h-.04c-.19.42-.6.83-1.21.83-.98,0-1.69-1.07-1.69-2.97,0-2.06.85-3.02,1.75-3.02.42,0,.83.2,1.06.7h.02v-3.09h.91ZM163.75,151.12c0-.12,0-.25-.01-.38-.06-.6-.42-1.13-.86-1.13-.77,0-1.03,1.07-1.03,2.23,0,1.22.31,2.21.98,2.21.29,0,.68-.16.89-1,.02-.11.04-.24.04-.38v-1.55Z"/>
      <path class="cls-2" d="M166.95,147.41c.01.36-.22.6-.56.6-.3,0-.53-.24-.53-.6s.24-.6.54-.6c.33,0,.55.24.55.6ZM165.96,154.72v-5.8h.92v5.8h-.92Z"/>
      <path class="cls-2" d="M168.81,151.9c.01,1.77.71,2.16,1.38,2.16.4,0,.73-.1.96-.23l.14.68c-.32.18-.82.28-1.27.28-1.39,0-2.11-1.14-2.11-2.91,0-1.88.79-3.06,1.96-3.06s1.66,1.25,1.66,2.57c0,.22,0,.37-.01.52h-2.7ZM170.63,151.22c.02-1.16-.42-1.68-.86-1.68-.6,0-.91.89-.95,1.68h1.81Z"/>
      <path class="cls-2" d="M172.51,150.41c0-.49-.04-1.07-.05-1.5h.83l.05.91h.02c.19-.55.68-1.01,1.22-1.01.07,0,.13.01.19.01v.95c-.06-.01-.12-.01-.19-.01-.59,0-1.02.54-1.12,1.21-.02.16-.04.34-.04.53v3.21h-.92v-4.31Z"/>
      <path class="cls-2" d="M178.89,151.82c0,2.24-1.04,3-1.93,3-1.04,0-1.88-.95-1.88-2.99s.95-3.01,1.94-3.01,1.87.97,1.87,3ZM176,151.82c0,.96.17,2.27,1.01,2.27.79,0,.95-1.37.95-2.27s-.16-2.25-.97-2.25-.98,1.37-.98,2.25Z"/>
      <path class="cls-2" d="M179.92,150.41c0-.68-.04-1.03-.05-1.5h.8l.05.7h.02c.25-.47.72-.79,1.33-.79.8,0,1.4.6,1.4,2v3.9h-.92v-3.74c0-.68-.13-1.38-.8-1.38-.38,0-.75.32-.88.95-.02.14-.04.32-.04.52v3.66h-.92v-4.31Z"/>
      <path class="cls-2" d="M190.22,148.91c-.01.41-.05.92-.05,1.81v3.25c0,1.52-.19,2.1-.58,2.52-.35.4-.9.62-1.55.62-.49,0-.97-.12-1.27-.29l.22-.72c.23.12.61.25,1.08.25.73,0,1.19-.46,1.19-1.77v-.59h-.02c-.2.46-.62.71-1.12.71-1.03,0-1.7-1.16-1.7-2.87,0-2.13.97-3.02,1.82-3.02.62,0,.91.41,1.08.76h.02l.05-.66h.83ZM189.26,150.92c0-.14-.01-.3-.05-.42-.11-.4-.31-.89-.84-.89-.67,0-1.03.9-1.03,2.18,0,1.49.47,2.16,1.03,2.16.28,0,.64-.13.83-.83.05-.18.06-.36.06-.53v-1.68Z"/>
      <path class="cls-2" d="M193.75,154.72l-.06-.61h-.04c-.25.44-.66.71-1.15.71-.78,0-1.38-.66-1.38-1.65,0-1.45,1.16-2.1,2.47-2.11v-.18c0-.78-.19-1.32-.92-1.32-.36,0-.68.12-.96.3l-.2-.65c.24-.18.78-.38,1.36-.38,1.16,0,1.67.77,1.67,2.08v2.51c0,.44,0,.95.06,1.32h-.84ZM193.61,151.72c-.48,0-1.6.08-1.6,1.34,0,.76.38,1.03.71,1.03.41,0,.76-.3.86-.88.02-.11.02-.23.02-.32v-1.18Z"/>
      <path class="cls-2" d="M195.81,150.41c0-.49-.04-1.07-.05-1.5h.83l.05.91h.02c.19-.55.68-1.01,1.22-1.01.07,0,.13.01.19.01v.95c-.06-.01-.12-.01-.19-.01-.59,0-1.02.54-1.12,1.21-.02.16-.04.34-.04.53v3.21h-.92v-4.31Z"/>
      <path class="cls-2" d="M201.02,154.72l-.06-.61h-.04c-.25.44-.66.71-1.15.71-.78,0-1.38-.66-1.38-1.65,0-1.45,1.16-2.1,2.47-2.11v-.18c0-.78-.19-1.32-.92-1.32-.36,0-.68.12-.96.3l-.2-.65c.24-.18.78-.38,1.36-.38,1.16,0,1.67.77,1.67,2.08v2.51c0,.44,0,.95.06,1.32h-.84ZM200.89,151.72c-.48,0-1.6.08-1.6,1.34,0,.76.38,1.03.71,1.03.41,0,.76-.3.86-.88.02-.11.02-.23.02-.32v-1.18Z"/>
      <path class="cls-2" d="M203.09,150.41c0-.68-.04-1.03-.05-1.5h.8l.05.7h.02c.25-.47.72-.79,1.33-.79.8,0,1.4.6,1.4,2v3.9h-.92v-3.74c0-.68-.13-1.38-.8-1.38-.38,0-.76.32-.88.95-.02.14-.04.32-.04.52v3.66h-.92v-4.31Z"/>
      <path class="cls-2" d="M209.01,147.38v1.54h1.12v.71h-1.12v3.44c0,.76.28.96.61.96.14,0,.26-.01.37-.04l.04.71c-.17.06-.38.1-.68.1-.36,0-.68-.1-.91-.35-.23-.26-.35-.66-.35-1.46v-3.36h-.71v-.71h.71v-1.27l.92-.26Z"/>
      <path class="cls-2" d="M211.94,147.41c.01.36-.22.6-.56.6-.3,0-.53-.24-.53-.6s.24-.6.54-.6c.33,0,.55.24.55.6ZM210.94,154.72v-5.8h.92v5.8h-.92Z"/>
      <path class="cls-2" d="M212.69,154.15l1.83-3.59c.16-.3.33-.6.47-.86v-.02h-2.08v-.77h3.09v.61l-1.81,3.54c-.16.3-.34.6-.47.86v.02h2.28v.77h-3.32v-.56Z"/>
      <path class="cls-2" d="M219.2,154.72l-.06-.61h-.04c-.25.44-.66.71-1.15.71-.78,0-1.38-.66-1.38-1.65,0-1.45,1.16-2.1,2.47-2.11v-.18c0-.78-.19-1.32-.92-1.32-.36,0-.68.12-.96.3l-.2-.65c.24-.18.78-.38,1.36-.38,1.16,0,1.67.77,1.67,2.08v2.51c0,.44,0,.95.06,1.32h-.84ZM219.06,151.72c-.48,0-1.6.08-1.6,1.34,0,.76.38,1.03.71,1.03.41,0,.76-.3.86-.88.02-.11.02-.23.02-.32v-1.18Z"/>
      <path class="cls-2" d="M221.26,150.41c0-.49-.04-1.07-.05-1.5h.83l.05.91h.02c.19-.55.68-1.01,1.22-1.01.07,0,.13.01.19.01v.95c-.06-.01-.12-.01-.19-.01-.59,0-1.02.54-1.12,1.21-.02.16-.04.34-.04.53v3.21h-.92v-4.31Z"/>
    </g>
    <g>
      <path class="cls-1" d="M131.3,154.12h-.04c-.19.4-.59.7-1.12.7-.94,0-1.68-1.02-1.68-2.93,0-2.05.86-3.07,1.82-3.07.37,0,.8.17,1.08.77h.02s.05-.67.05-.67h.83c-.02.41-.05.92-.05,1.81v6.3h-.92v-2.9ZM131.3,151.08c0-.12,0-.28-.02-.38-.07-.61-.43-1.09-.84-1.09-.75,0-1.04,1.01-1.04,2.23s.31,2.21,1.02,2.21c.29,0,.65-.17.84-.97.05-.14.05-.34.05-.49v-1.5Z"/>
      <path class="cls-1" d="M136.99,153.14c0,.65.04,1.15.05,1.58h-.8l-.06-.61h-.02c-.18.29-.62.71-1.25.71-1.02,0-1.42-.79-1.42-2.23v-3.67h.92v3.54c0,.91.14,1.58.78,1.58.54,0,.78-.5.83-.77.04-.16.05-.34.05-.53v-3.83h.92v4.22Z"/>
      <path class="cls-1" d="M138.93,151.9c.01,1.77.71,2.16,1.38,2.16.4,0,.73-.1.96-.23l.14.68c-.32.18-.82.28-1.27.28-1.39,0-2.11-1.14-2.11-2.91,0-1.88.79-3.06,1.96-3.06s1.66,1.25,1.66,2.57c0,.22,0,.37-.01.52h-2.7ZM140.75,151.22c.02-1.16-.42-1.68-.86-1.68-.6,0-.91.89-.95,1.68h1.81Z"/>
      <path class="cls-1" d="M145.52,147.41c.01.36-.22.6-.56.6-.3,0-.53-.24-.53-.6s.24-.6.54-.6c.33,0,.55.24.55.6ZM144.52,154.72v-5.8h.92v5.8h-.92Z"/>
      <path class="cls-1" d="M146.73,150.41c0-.68-.04-1.03-.05-1.5h.8l.05.72h.02c.25-.47.7-.82,1.31-.82.54,0,1,.26,1.21.89h.02c.16-.29.36-.52.58-.66.23-.16.5-.23.8-.23.78,0,1.39.58,1.39,2.05v3.85h-.91v-3.63c0-.76-.11-1.49-.82-1.49-.38,0-.72.32-.85.86-.02.16-.04.34-.04.53v3.73h-.91v-3.8c0-.65-.12-1.32-.8-1.32-.37,0-.76.32-.86.94-.02.16-.04.32-.04.5v3.68h-.91v-4.31Z"/>
      <path class="cls-1" d="M154.16,150.72c0-.89-.04-1.4-.05-1.81h.83l.05.74h.02c.31-.62.77-.84,1.22-.84,1.01,0,1.68,1.08,1.68,2.99,0,2.15-.89,3.01-1.8,3.01-.54,0-.85-.35-1.01-.67h-.02v2.88h-.92v-6.3ZM155.08,152.58c0,.18,0,.35.04.48.18.83.6.98.85.98.77,0,1.01-1.06,1.01-2.23s-.29-2.21-1.02-2.21c-.42,0-.79.53-.85,1.06-.02.14-.02.29-.02.44v1.48Z"/>
      <path class="cls-1" d="M159.96,147.41c.01.36-.22.6-.56.6-.3,0-.53-.24-.53-.6s.24-.6.54-.6c.33,0,.55.24.55.6ZM158.96,154.72v-5.8h.92v5.8h-.92Z"/>
      <path class="cls-1" d="M164.66,146.42v6.91c0,.4.04,1.06.05,1.39h-.79l-.06-.73h-.04c-.19.42-.6.83-1.21.83-.98,0-1.69-1.07-1.69-2.97,0-2.06.85-3.02,1.75-3.02.42,0,.83.2,1.06.7h.02v-3.09h.91ZM163.75,151.12c0-.12,0-.25-.01-.38-.06-.6-.42-1.13-.86-1.13-.77,0-1.03,1.07-1.03,2.23,0,1.22.31,2.21.98,2.21.29,0,.68-.16.89-1,.02-.11.04-.24.04-.38v-1.55Z"/>
      <path class="cls-1" d="M166.95,147.41c.01.36-.22.6-.56.6-.3,0-.53-.24-.53-.6s.24-.6.54-.6c.33,0,.55.24.55.6ZM165.96,154.72v-5.8h.92v5.8h-.92Z"/>
      <path class="cls-1" d="M168.81,151.9c.01,1.77.71,2.16,1.38,2.16.4,0,.73-.1.96-.23l.14.68c-.32.18-.82.28-1.27.28-1.39,0-2.11-1.14-2.11-2.91,0-1.88.79-3.06,1.96-3.06s1.66,1.25,1.66,2.57c0,.22,0,.37-.01.52h-2.7ZM170.63,151.22c.02-1.16-.42-1.68-.86-1.68-.6,0-.91.89-.95,1.68h1.81Z"/>
      <path class="cls-1" d="M172.51,150.41c0-.49-.04-1.07-.05-1.5h.83l.05.91h.02c.19-.55.68-1.01,1.22-1.01.07,0,.13.01.19.01v.95c-.06-.01-.12-.01-.19-.01-.59,0-1.02.54-1.12,1.21-.02.16-.04.34-.04.53v3.21h-.92v-4.31Z"/>
      <path class="cls-1" d="M178.89,151.82c0,2.24-1.04,3-1.93,3-1.04,0-1.88-.95-1.88-2.99s.95-3.01,1.94-3.01,1.87.97,1.87,3ZM176,151.82c0,.96.17,2.27,1.01,2.27.79,0,.95-1.37.95-2.27s-.16-2.25-.97-2.25-.98,1.37-.98,2.25Z"/>
      <path class="cls-1" d="M179.92,150.41c0-.68-.04-1.03-.05-1.5h.8l.05.7h.02c.25-.47.72-.79,1.33-.79.8,0,1.4.6,1.4,2v3.9h-.92v-3.74c0-.68-.13-1.38-.8-1.38-.38,0-.75.32-.88.95-.02.14-.04.32-.04.52v3.66h-.92v-4.31Z"/>
      <path class="cls-1" d="M190.22,148.91c-.01.41-.05.92-.05,1.81v3.25c0,1.52-.19,2.1-.58,2.52-.35.4-.9.62-1.55.62-.49,0-.97-.12-1.27-.29l.22-.72c.23.12.61.25,1.08.25.73,0,1.19-.46,1.19-1.77v-.59h-.02c-.2.46-.62.71-1.12.71-1.03,0-1.7-1.16-1.7-2.87,0-2.13.97-3.02,1.82-3.02.62,0,.91.41,1.08.76h.02l.05-.66h.83ZM189.26,150.92c0-.14-.01-.3-.05-.42-.11-.4-.31-.89-.84-.89-.67,0-1.03.9-1.03,2.18,0,1.49.47,2.16,1.03,2.16.28,0,.64-.13.83-.83.05-.18.06-.36.06-.53v-1.68Z"/>
      <path class="cls-1" d="M193.75,154.72l-.06-.61h-.04c-.25.44-.66.71-1.15.71-.78,0-1.38-.66-1.38-1.65,0-1.45,1.16-2.1,2.47-2.11v-.18c0-.78-.19-1.32-.92-1.32-.36,0-.68.12-.96.3l-.2-.65c.24-.18.78-.38,1.36-.38,1.16,0,1.67.77,1.67,2.08v2.51c0,.44,0,.95.06,1.32h-.84ZM193.61,151.72c-.48,0-1.6.08-1.6,1.34,0,.76.38,1.03.71,1.03.41,0,.76-.3.86-.88.02-.11.02-.23.02-.32v-1.18Z"/>
      <path class="cls-1" d="M195.81,150.41c0-.49-.04-1.07-.05-1.5h.83l.05.91h.02c.19-.55.68-1.01,1.22-1.01.07,0,.13.01.19.01v.95c-.06-.01-.12-.01-.19-.01-.59,0-1.02.54-1.12,1.21-.02.16-.04.34-.04.53v3.21h-.92v-4.31Z"/>
      <path class="cls-1" d="M201.02,154.72l-.06-.61h-.04c-.25.44-.66.71-1.15.71-.78,0-1.38-.66-1.38-1.65,0-1.45,1.16-2.1,2.47-2.11v-.18c0-.78-.19-1.32-.92-1.32-.36,0-.68.12-.96.3l-.2-.65c.24-.18.78-.38,1.36-.38,1.16,0,1.67.77,1.67,2.08v2.51c0,.44,0,.95.06,1.32h-.84ZM200.89,151.72c-.48,0-1.6.08-1.6,1.34,0,.76.38,1.03.71,1.03.41,0,.76-.3.86-.88.02-.11.02-.23.02-.32v-1.18Z"/>
      <path class="cls-1" d="M203.09,150.41c0-.68-.04-1.03-.05-1.5h.8l.05.7h.02c.25-.47.72-.79,1.33-.79.8,0,1.4.6,1.4,2v3.9h-.92v-3.74c0-.68-.13-1.38-.8-1.38-.38,0-.76.32-.88.95-.02.14-.04.32-.04.52v3.66h-.92v-4.31Z"/>
      <path class="cls-1" d="M209.01,147.38v1.54h1.12v.71h-1.12v3.44c0,.76.28.96.61.96.14,0,.26-.01.37-.04l.04.71c-.17.06-.38.1-.68.1-.36,0-.68-.1-.91-.35-.23-.26-.35-.66-.35-1.46v-3.36h-.71v-.71h.71v-1.27l.92-.26Z"/>
      <path class="cls-1" d="M211.94,147.41c.01.36-.22.6-.56.6-.3,0-.53-.24-.53-.6s.24-.6.54-.6c.33,0,.55.24.55.6ZM210.94,154.72v-5.8h.92v5.8h-.92Z"/>
      <path class="cls-1" d="M212.69,154.15l1.83-3.59c.16-.3.33-.6.47-.86v-.02h-2.08v-.77h3.09v.61l-1.81,3.54c-.16.3-.34.6-.47.86v.02h2.28v.77h-3.32v-.56Z"/>
      <path class="cls-1" d="M219.2,154.72l-.06-.61h-.04c-.25.44-.66.71-1.15.71-.78,0-1.38-.66-1.38-1.65,0-1.45,1.16-2.1,2.47-2.11v-.18c0-.78-.19-1.32-.92-1.32-.36,0-.68.12-.96.3l-.2-.65c.24-.18.78-.38,1.36-.38,1.16,0,1.67.77,1.67,2.08v2.51c0,.44,0,.95.06,1.32h-.84ZM219.06,151.72c-.48,0-1.6.08-1.6,1.34,0,.76.38,1.03.71,1.03.41,0,.76-.3.86-.88.02-.11.02-.23.02-.32v-1.18Z"/>
      <path class="cls-1" d="M221.26,150.41c0-.49-.04-1.07-.05-1.5h.83l.05.91h.02c.19-.55.68-1.01,1.22-1.01.07,0,.13.01.19.01v.95c-.06-.01-.12-.01-.19-.01-.59,0-1.02.54-1.12,1.21-.02.16-.04.34-.04.53v3.21h-.92v-4.31Z"/>
    </g>
  </g>
  <g>
    <path class="cls-1" d="M116.29,245.99c.5-.13,1.09-.21,1.79-.21.99,0,1.83.24,2.38.8.53.51.8,1.3.8,2.23,0,.99-.24,1.66-.66,2.21-.59.8-1.58,1.2-2.54,1.2-.21,0-.37,0-.54-.02v4.42h-1.23v-10.63ZM117.53,251.16c.14.03.27.05.48.05,1.22,0,2.03-.8,2.03-2.32,0-1.1-.46-2.1-1.83-2.1-.29,0-.53.03-.69.08v4.29Z"/>
    <path class="cls-1" d="M122.68,245.99c.53-.14,1.17-.21,1.78-.21,1.07,0,1.87.22,2.43.77.53.54.75,1.26.75,2.11,0,1.38-.64,2.27-1.73,2.77v.03c.8.24,1.22,1.01,1.46,2.42.24,1.49.46,2.4.61,2.74h-1.25c-.16-.32-.37-1.34-.58-2.67-.24-1.47-.7-2.03-1.76-2.03h-.48v4.71h-1.23v-10.63ZM123.91,250.96h.51c1.18,0,1.97-.86,1.97-2.16s-.51-2.02-1.84-2.03c-.24,0-.48.02-.64.06v4.13Z"/>
    <path class="cls-1" d="M134.89,251.14c0,4.05-1.39,5.6-3.12,5.6s-2.99-1.9-2.99-5.54,1.28-5.51,3.17-5.51,2.95,2,2.95,5.44ZM130.06,251.22c0,2.22.43,4.43,1.79,4.43s1.76-2.35,1.76-4.47-.37-4.4-1.78-4.4-1.78,2.24-1.78,4.43Z"/>
    <path class="cls-1" d="M137.24,246.93h-1.97v-1.1h5.17v1.1h-1.97v9.68h-1.23v-9.68Z"/>
    <path class="cls-1" d="M145.58,251.49h-2.71v4.05h3.07v1.07h-4.31v-10.79h4.11v1.07h-2.88v3.55h2.71v1.04Z"/>
    <path class="cls-1" d="M148.66,245.83h1.23v7.75c0,2.42-.98,3.17-2.53,3.17-.3,0-.59-.03-.8-.11l.11-1.04c.16.05.37.06.59.06.88,0,1.39-.35,1.39-2.06v-7.76Z"/>
    <path class="cls-1" d="M153.01,253.38l-.72,3.23h-1.18l2.46-10.79h1.36l2.4,10.79h-1.22l-.72-3.23h-2.38ZM155.24,252.39l-.56-2.74c-.16-.77-.3-1.66-.43-2.46h-.06c-.13.82-.29,1.74-.43,2.46l-.56,2.74h2.05Z"/>
    <path class="cls-1" d="M158.68,256.61v-10.79h1.17l1.98,5.06c.45,1.15,1.01,2.59,1.38,3.76h.03c-.1-1.7-.14-3.09-.14-4.96v-3.86h1.1v10.79h-1.17l-2.05-5.19c-.43-1.09-.9-2.32-1.28-3.67h-.03c.1,1.44.13,2.82.13,5.12v3.73h-1.12Z"/>
    <path class="cls-1" d="M169.64,256.61v-4.56l-2.37-6.23h1.3l.96,2.71c.27.75.56,1.6.8,2.43h.03c.22-.83.5-1.65.78-2.48l.91-2.66h1.3l-2.48,6.18v4.61h-1.23Z"/>
    <path class="cls-1" d="M181.59,256.42c-.34.18-.86.29-1.54.29-2.11,0-3.62-1.7-3.62-5.36,0-4.26,2.11-5.62,3.81-5.62.66,0,1.12.13,1.34.27l-.27,1.04c-.26-.11-.53-.22-1.09-.22-1.15,0-2.5,1.12-2.5,4.42s1.22,4.39,2.53,4.39c.46,0,.88-.11,1.14-.24l.19,1.04Z"/>
    <path class="cls-1" d="M188.25,251.14c0,4.05-1.39,5.6-3.12,5.6s-2.99-1.9-2.99-5.54,1.28-5.51,3.17-5.51,2.95,2,2.95,5.44ZM183.41,251.22c0,2.22.43,4.43,1.79,4.43s1.76-2.35,1.76-4.47-.37-4.4-1.78-4.4-1.78,2.24-1.78,4.43Z"/>
    <path class="cls-1" d="M189.72,256.61v-10.79h1.17l1.98,5.06c.45,1.15,1.01,2.59,1.38,3.76h.03c-.1-1.7-.14-3.09-.14-4.96v-3.86h1.1v10.79h-1.17l-2.05-5.19c-.43-1.09-.9-2.32-1.28-3.67h-.03c.1,1.44.13,2.82.13,5.12v3.73h-1.12Z"/>
    <path class="cls-1" d="M198.42,246.93h-1.97v-1.1h5.17v1.1h-1.97v9.68h-1.23v-9.68Z"/>
    <path class="cls-1" d="M206.76,251.49h-2.71v4.05h3.07v1.07h-4.31v-10.79h4.11v1.07h-2.88v3.55h2.71v1.04Z"/>
    <path class="cls-1" d="M208.48,256.61v-10.79h1.17l1.98,5.06c.45,1.15,1.01,2.59,1.38,3.76h.03c-.1-1.7-.14-3.09-.14-4.96v-3.86h1.1v10.79h-1.17l-2.05-5.19c-.43-1.09-.9-2.32-1.28-3.67h-.03c.1,1.44.13,2.82.13,5.12v3.73h-1.12Z"/>
    <path class="cls-1" d="M221.24,256.34c-.46.19-1.23.37-1.92.37-.94,0-1.82-.26-2.54-1.06-.78-.83-1.31-2.32-1.3-4.29.02-4.19,2.16-5.63,4.07-5.63.67,0,1.2.13,1.54.3l-.27,1.06c-.29-.14-.67-.26-1.25-.26-1.34,0-2.8,1.07-2.8,4.42s1.26,4.4,2.56,4.4c.42,0,.66-.08.75-.13v-3.52h-1.39v-1.02h2.56v5.36Z"/>
    <path class="cls-1" d="M224.2,253.38l-.72,3.23h-1.18l2.46-10.79h1.36l2.4,10.79h-1.22l-.72-3.23h-2.38ZM226.42,252.39l-.56-2.74c-.16-.77-.3-1.66-.43-2.46h-.06c-.13.82-.29,1.74-.43,2.46l-.56,2.74h2.05Z"/>
    <path class="cls-1" d="M229.86,256.61v-10.79h1.17l1.98,5.06c.45,1.15,1.01,2.59,1.38,3.76h.03c-.1-1.7-.14-3.09-.14-4.96v-3.86h1.1v10.79h-1.17l-2.05-5.19c-.43-1.09-.9-2.32-1.28-3.67h-.03c.1,1.44.13,2.82.13,5.12v3.73h-1.12Z"/>
  </g>
  <rect class="cls-3" x="109.42" y="238.55" width="132.84" height="25.34" rx="7.06" ry="7.06"/>
  <line class="cls-3" x1="175.84" y1="263.89" x2="175.84" y2="305.79"/>
  <g>
    <g>
      <path class="cls-4" d="M170.47,289.19l-.06-.61h-.04c-.25.44-.66.71-1.15.71-.78,0-1.38-.66-1.38-1.65,0-1.45,1.16-2.1,2.47-2.11v-.18c0-.78-.19-1.32-.92-1.32-.36,0-.68.12-.96.3l-.2-.65c.24-.18.78-.38,1.36-.38,1.16,0,1.67.77,1.67,2.08v2.51c0,.44,0,.95.06,1.32h-.84ZM170.34,286.19c-.48,0-1.6.08-1.6,1.34,0,.76.38,1.03.71,1.03.41,0,.76-.3.86-.88.02-.11.02-.23.02-.32v-1.18Z"/>
      <path class="cls-4" d="M174.43,280.89h.92v8.3h-.92v-8.3Z"/>
      <path class="cls-4" d="M180.29,286.28c0,2.24-1.04,3-1.93,3-1.04,0-1.88-.95-1.88-2.99s.95-3.01,1.94-3.01,1.87.97,1.87,3ZM177.4,286.28c0,.96.17,2.27,1.01,2.27.79,0,.95-1.37.95-2.27s-.16-2.25-.97-2.25-.98,1.37-.98,2.25Z"/>
      <path class="cls-4" d="M181.17,288.23c.2.13.56.3.93.3.53,0,.85-.32.85-.84,0-.44-.16-.74-.74-1.14-.76-.49-1.16-.98-1.16-1.65,0-.94.7-1.61,1.59-1.61.46,0,.8.16,1.04.3l-.25.7c-.22-.14-.47-.25-.77-.25-.5,0-.76.36-.76.73,0,.4.14.61.72,1.01.67.43,1.2.96,1.2,1.76,0,1.16-.79,1.73-1.74,1.73-.43,0-.9-.13-1.15-.34l.23-.7Z"/>
    </g>
    <g>
      <path class="cls-2" d="M170.47,289.19l-.06-.61h-.04c-.25.44-.66.71-1.15.71-.78,0-1.38-.66-1.38-1.65,0-1.45,1.16-2.1,2.47-2.11v-.18c0-.78-.19-1.32-.92-1.32-.36,0-.68.12-.96.3l-.2-.65c.24-.18.78-.38,1.36-.38,1.16,0,1.67.77,1.67,2.08v2.51c0,.44,0,.95.06,1.32h-.84ZM170.34,286.19c-.48,0-1.6.08-1.6,1.34,0,.76.38,1.03.71,1.03.41,0,.76-.3.86-.88.02-.11.02-.23.02-.32v-1.18Z"/>
      <path class="cls-2" d="M174.43,280.89h.92v8.3h-.92v-8.3Z"/>
      <path class="cls-2" d="M180.29,286.28c0,2.24-1.04,3-1.93,3-1.04,0-1.88-.95-1.88-2.99s.95-3.01,1.94-3.01,1.87.97,1.87,3ZM177.4,286.28c0,.96.17,2.27,1.01,2.27.79,0,.95-1.37.95-2.27s-.16-2.25-.97-2.25-.98,1.37-.98,2.25Z"/>
      <path class="cls-2" d="M181.17,288.23c.2.13.56.3.93.3.53,0,.85-.32.85-.84,0-.44-.16-.74-.74-1.14-.76-.49-1.16-.98-1.16-1.65,0-.94.7-1.61,1.59-1.61.46,0,.8.16,1.04.3l-.25.7c-.22-.14-.47-.25-.77-.25-.5,0-.76.36-.76.73,0,.4.14.61.72,1.01.67.43,1.2.96,1.2,1.76,0,1.16-.79,1.73-1.74,1.73-.43,0-.9-.13-1.15-.34l.23-.7Z"/>
    </g>
    <g>
      <path class="cls-1" d="M170.47,289.19l-.06-.61h-.04c-.25.44-.66.71-1.15.71-.78,0-1.38-.66-1.38-1.65,0-1.45,1.16-2.1,2.47-2.11v-.18c0-.78-.19-1.32-.92-1.32-.36,0-.68.12-.96.3l-.2-.65c.24-.18.78-.38,1.36-.38,1.16,0,1.67.77,1.67,2.08v2.51c0,.44,0,.95.06,1.32h-.84ZM170.34,286.19c-.48,0-1.6.08-1.6,1.34,0,.76.38,1.03.71,1.03.41,0,.76-.3.86-.88.02-.11.02-.23.02-.32v-1.18Z"/>
      <path class="cls-1" d="M174.43,280.89h.92v8.3h-.92v-8.3Z"/>
      <path class="cls-1" d="M180.29,286.28c0,2.24-1.04,3-1.93,3-1.04,0-1.88-.95-1.88-2.99s.95-3.01,1.94-3.01,1.87.97,1.87,3ZM177.4,286.28c0,.96.17,2.27,1.01,2.27.79,0,.95-1.37.95-2.27s-.16-2.25-.97-2.25-.98,1.37-.98,2.25Z"/>
      <path class="cls-1" d="M181.17,288.23c.2.13.56.3.93.3.53,0,.85-.32.85-.84,0-.44-.16-.74-.74-1.14-.76-.49-1.16-.98-1.16-1.65,0-.94.7-1.61,1.59-1.61.46,0,.8.16,1.04.3l-.25.7c-.22-.14-.47-.25-.77-.25-.5,0-.76.36-.76.73,0,.4.14.61.72,1.01.67.43,1.2.96,1.2,1.76,0,1.16-.79,1.73-1.74,1.73-.43,0-.9-.13-1.15-.34l.23-.7Z"/>
    </g>
  </g>
  <g>
    <path class="cls-1" d="M118.76,323.85v-10.79h1.17l1.98,5.06c.45,1.15,1.01,2.59,1.38,3.76h.03c-.1-1.7-.14-3.09-.14-4.96v-3.86h1.1v10.79h-1.17l-2.05-5.19c-.43-1.09-.9-2.32-1.28-3.67h-.03c.1,1.44.13,2.82.13,5.12v3.73h-1.12Z"/>
    <path class="cls-1" d="M127.43,313.06v10.79h-1.23v-10.79h1.23Z"/>
    <path class="cls-1" d="M129.38,323.85v-10.79h1.17l1.98,5.06c.45,1.15,1.01,2.59,1.38,3.76h.03c-.1-1.7-.14-3.09-.14-4.96v-3.86h1.1v10.79h-1.17l-2.05-5.19c-.43-1.09-.9-2.32-1.28-3.67h-.03c.1,1.44.13,2.82.13,5.12v3.73h-1.12ZM130.49,312.36c-.02-.9.35-1.5.94-1.5.32,0,.54.14.77.27.22.14.42.29.62.29.26,0,.38-.14.43-.58h.64c.02.9-.29,1.44-.99,1.44-.32,0-.58-.14-.78-.27-.22-.14-.4-.27-.59-.27-.24,0-.34.21-.38.62h-.66Z"/>
    <path class="cls-1" d="M142.49,318.38c0,4.05-1.39,5.6-3.12,5.6s-2.99-1.9-2.99-5.54,1.28-5.51,3.17-5.51,2.95,2,2.95,5.44ZM137.65,318.46c0,2.22.43,4.43,1.79,4.43s1.76-2.35,1.76-4.47-.37-4.4-1.78-4.4-1.78,2.24-1.78,4.43Z"/>
    <path class="cls-1" d="M143.72,322.43c.37.24,1.01.43,1.55.43,1.12,0,1.79-.74,1.79-1.83,0-.99-.58-1.6-1.42-2.24-.85-.59-2.03-1.6-2.03-2.99,0-1.63,1.14-2.83,2.85-2.83.67,0,1.26.21,1.52.4l-.3,1.06c-.27-.19-.72-.37-1.28-.37-1.06,0-1.55.8-1.55,1.54,0,1.07.56,1.49,1.58,2.22,1.3.91,1.87,1.9,1.87,3.11,0,1.86-1.31,3.03-3.03,3.03-.74,0-1.52-.24-1.82-.46l.27-1.06Z"/>
    <path class="cls-1" d="M153.26,323.85v-4.56l-2.37-6.23h1.3l.96,2.71c.27.75.56,1.6.8,2.43h.03c.22-.83.5-1.65.78-2.48l.91-2.66h1.3l-2.48,6.18v4.61h-1.23Z"/>
    <path class="cls-1" d="M161.8,320.62l-.72,3.23h-1.18l2.46-10.79h1.36l2.4,10.79h-1.22l-.72-3.23h-2.38ZM164.02,319.62l-.56-2.74c-.16-.77-.3-1.66-.43-2.46h-.06c-.13.82-.29,1.74-.43,2.46l-.56,2.74h2.05Z"/>
    <path class="cls-1" d="M167.46,313.22c.48-.14,1.04-.21,1.67-.21,1.14,0,1.94.29,2.53.82.83.72,1.46,2.11,1.46,4.37,0,2.47-.61,3.81-1.3,4.55-.71.8-1.73,1.17-2.98,1.17-.5,0-1.01-.03-1.38-.11v-10.58ZM168.69,322.84c.18.03.35.03.46.03,1.36,0,2.67-.98,2.67-4.64,0-2.72-.83-4.21-2.56-4.21-.19,0-.42.02-.58.06v8.76Z"/>
    <path class="cls-1" d="M180.25,318.38c0,4.05-1.39,5.6-3.12,5.6s-2.99-1.9-2.99-5.54,1.28-5.51,3.17-5.51,2.95,2,2.95,5.44ZM175.41,318.46c0,2.22.43,4.43,1.79,4.43s1.76-2.35,1.76-4.47-.37-4.4-1.78-4.4-1.78,2.24-1.78,4.43Z"/>
    <path class="cls-1" d="M181.72,313.06h1.23v9.75h3.04v1.04h-4.27v-10.79Z"/>
    <path class="cls-1" d="M191.16,318.73h-2.71v4.05h3.07v1.07h-4.31v-10.79h4.11v1.07h-2.88v3.55h2.71v1.04Z"/>
    <path class="cls-1" d="M192.65,322.43c.37.24,1.01.43,1.55.43,1.12,0,1.79-.74,1.79-1.83,0-.99-.58-1.6-1.42-2.24-.85-.59-2.03-1.6-2.03-2.99,0-1.63,1.14-2.83,2.85-2.83.67,0,1.26.21,1.52.4l-.3,1.06c-.27-.19-.72-.37-1.28-.37-1.06,0-1.55.8-1.55,1.54,0,1.07.56,1.49,1.58,2.22,1.3.91,1.87,1.9,1.87,3.11,0,1.86-1.31,3.03-3.03,3.03-.74,0-1.52-.24-1.82-.46l.27-1.06Z"/>
    <path class="cls-1" d="M203.37,323.66c-.34.18-.86.29-1.54.29-2.11,0-3.62-1.7-3.62-5.36,0-4.26,2.11-5.62,3.81-5.62.66,0,1.12.13,1.34.27l-.27,1.04c-.26-.11-.53-.22-1.09-.22-1.15,0-2.5,1.12-2.5,4.42s1.22,4.39,2.53,4.39c.46,0,.88-.11,1.14-.24l.19,1.04Z"/>
    <path class="cls-1" d="M208.57,318.73h-2.71v4.05h3.07v1.07h-4.31v-10.79h4.11v1.07h-2.88v3.55h2.71v1.04Z"/>
    <path class="cls-1" d="M210.29,323.85v-10.79h1.17l1.98,5.06c.45,1.15,1.01,2.59,1.38,3.76h.03c-.1-1.7-.14-3.09-.14-4.96v-3.86h1.1v10.79h-1.17l-2.05-5.19c-.43-1.09-.9-2.32-1.28-3.67h-.03c.1,1.44.13,2.82.13,5.12v3.73h-1.12Z"/>
    <path class="cls-1" d="M219,314.17h-1.97v-1.1h5.17v1.1h-1.97v9.68h-1.23v-9.68Z"/>
    <path class="cls-1" d="M227.34,318.73h-2.71v4.05h3.07v1.07h-4.31v-10.79h4.11v1.07h-2.88v3.55h2.71v1.04Z"/>
    <path class="cls-1" d="M228.82,322.43c.37.24,1.01.43,1.55.43,1.12,0,1.79-.74,1.79-1.83,0-.99-.58-1.6-1.42-2.24-.85-.59-2.03-1.6-2.03-2.99,0-1.63,1.14-2.83,2.85-2.83.67,0,1.26.21,1.52.4l-.3,1.06c-.27-.19-.72-.37-1.28-.37-1.06,0-1.55.8-1.55,1.54,0,1.07.56,1.49,1.58,2.22,1.3.91,1.87,1.9,1.87,3.11,0,1.86-1.31,3.03-3.03,3.03-.74,0-1.52-.24-1.82-.46l.27-1.06Z"/>
  </g>
  <rect class="cls-3" x="110.32" y="305.79" width="131.03" height="25.34" rx="7.06" ry="7.06"/>
  <line class="cls-3" x1="175.84" y1="196.66" x2="175.84" y2="238.55"/>
  <g>
    <g>
      <path class="cls-4" d="M172.1,221.35h-.04c-.19.4-.59.7-1.12.7-.94,0-1.68-1.02-1.68-2.93,0-2.05.86-3.07,1.82-3.07.37,0,.8.17,1.08.77h.02s.05-.67.05-.67h.83c-.02.41-.05.92-.05,1.81v6.3h-.92v-2.9ZM172.1,218.32c0-.12,0-.28-.02-.38-.07-.61-.43-1.09-.84-1.09-.75,0-1.04,1.01-1.04,2.23s.31,2.21,1.02,2.21c.29,0,.65-.17.84-.97.05-.14.05-.34.05-.49v-1.5Z"/>
      <path class="cls-4" d="M177.79,220.37c0,.65.04,1.15.05,1.58h-.8l-.06-.61h-.02c-.18.29-.62.71-1.25.71-1.02,0-1.42-.79-1.42-2.23v-3.67h.92v3.54c0,.91.14,1.58.78,1.58.54,0,.78-.5.83-.77.04-.16.05-.34.05-.53v-3.83h.92v4.22Z"/>
      <path class="cls-4" d="M179.74,219.13c.01,1.77.71,2.16,1.38,2.16.4,0,.73-.1.96-.23l.14.68c-.32.18-.82.28-1.27.28-1.39,0-2.11-1.14-2.11-2.91,0-1.88.79-3.06,1.96-3.06s1.66,1.25,1.66,2.57c0,.22,0,.37-.01.52h-2.7ZM181.56,218.45c.02-1.16-.42-1.68-.86-1.68-.6,0-.91.89-.95,1.68h1.81Z"/>
    </g>
    <g>
      <path class="cls-2" d="M172.1,221.35h-.04c-.19.4-.59.7-1.12.7-.94,0-1.68-1.02-1.68-2.93,0-2.05.86-3.07,1.82-3.07.37,0,.8.17,1.08.77h.02s.05-.67.05-.67h.83c-.02.41-.05.92-.05,1.81v6.3h-.92v-2.9ZM172.1,218.32c0-.12,0-.28-.02-.38-.07-.61-.43-1.09-.84-1.09-.75,0-1.04,1.01-1.04,2.23s.31,2.21,1.02,2.21c.29,0,.65-.17.84-.97.05-.14.05-.34.05-.49v-1.5Z"/>
      <path class="cls-2" d="M177.79,220.37c0,.65.04,1.15.05,1.58h-.8l-.06-.61h-.02c-.18.29-.62.71-1.25.71-1.02,0-1.42-.79-1.42-2.23v-3.67h.92v3.54c0,.91.14,1.58.78,1.58.54,0,.78-.5.83-.77.04-.16.05-.34.05-.53v-3.83h.92v4.22Z"/>
      <path class="cls-2" d="M179.74,219.13c.01,1.77.71,2.16,1.38,2.16.4,0,.73-.1.96-.23l.14.68c-.32.18-.82.28-1.27.28-1.39,0-2.11-1.14-2.11-2.91,0-1.88.79-3.06,1.96-3.06s1.66,1.25,1.66,2.57c0,.22,0,.37-.01.52h-2.7ZM181.56,218.45c.02-1.16-.42-1.68-.86-1.68-.6,0-.91.89-.95,1.68h1.81Z"/>
    </g>
    <g>
      <path class="cls-1" d="M172.1,221.35h-.04c-.19.4-.59.7-1.12.7-.94,0-1.68-1.02-1.68-2.93,0-2.05.86-3.07,1.82-3.07.37,0,.8.17,1.08.77h.02s.05-.67.05-.67h.83c-.02.41-.05.92-.05,1.81v6.3h-.92v-2.9ZM172.1,218.32c0-.12,0-.28-.02-.38-.07-.61-.43-1.09-.84-1.09-.75,0-1.04,1.01-1.04,2.23s.31,2.21,1.02,2.21c.29,0,.65-.17.84-.97.05-.14.05-.34.05-.49v-1.5Z"/>
      <path class="cls-1" d="M177.79,220.37c0,.65.04,1.15.05,1.58h-.8l-.06-.61h-.02c-.18.29-.62.71-1.25.71-1.02,0-1.42-.79-1.42-2.23v-3.67h.92v3.54c0,.91.14,1.58.78,1.58.54,0,.78-.5.83-.77.04-.16.05-.34.05-.53v-3.83h.92v4.22Z"/>
      <path class="cls-1" d="M179.74,219.13c.01,1.77.71,2.16,1.38,2.16.4,0,.73-.1.96-.23l.14.68c-.32.18-.82.28-1.27.28-1.39,0-2.11-1.14-2.11-2.91,0-1.88.79-3.06,1.96-3.06s1.66,1.25,1.66,2.57c0,.22,0,.37-.01.52h-2.7ZM181.56,218.45c.02-1.16-.42-1.68-.86-1.68-.6,0-.91.89-.95,1.68h1.81Z"/>
    </g>
  </g>
  <line class="cls-3" x1="216.88" y1="68.73" x2="216.88" y2="86.41"/>
  <line class="cls-3" x1="216.88" y1="111.75" x2="216.88" y2="129.42"/>
  <g>
    <path class="cls-1" d="M279.89,93.68v10.79h-1.23v-10.79h1.23Z"/>
    <path class="cls-1" d="M281.84,93.84c.48-.14,1.04-.21,1.67-.21,1.14,0,1.94.29,2.53.82.83.72,1.46,2.11,1.46,4.37,0,2.47-.61,3.81-1.3,4.55-.71.8-1.73,1.17-2.98,1.17-.5,0-1.01-.03-1.38-.11v-10.58ZM283.07,103.46c.18.03.35.03.46.03,1.36,0,2.67-.98,2.67-4.64,0-2.72-.83-4.21-2.56-4.21-.19,0-.42.02-.58.06v8.76Z"/>
    <path class="cls-1" d="M292.9,99.35h-2.71v4.05h3.07v1.07h-4.31v-10.79h4.11v1.07h-2.88v3.55h2.71v1.04Z"/>
    <path class="cls-1" d="M300.29,99c0,4.05-1.39,5.6-3.12,5.6s-2.99-1.9-2.99-5.54,1.28-5.51,3.17-5.51,2.95,2,2.95,5.44ZM295.46,99.08c0,2.22.43,4.43,1.79,4.43s1.76-2.35,1.76-4.47-.37-4.4-1.78-4.4-1.78,2.24-1.78,4.43Z"/>
    <path class="cls-1" d="M301.76,93.68h1.23v9.75h3.04v1.04h-4.27v-10.79Z"/>
    <path class="cls-1" d="M312.26,99c0,4.05-1.39,5.6-3.12,5.6s-2.99-1.9-2.99-5.54,1.28-5.51,3.17-5.51,2.95,2,2.95,5.44ZM307.42,99.08c0,2.22.43,4.43,1.79,4.43s1.76-2.35,1.76-4.47-.37-4.4-1.78-4.4-1.78,2.24-1.78,4.43ZM311.39,91.38l-1.99,1.73h-.98l1.5-1.73h1.46Z"/>
    <path class="cls-1" d="M319.04,104.2c-.46.19-1.23.37-1.92.37-.94,0-1.82-.26-2.54-1.06-.78-.83-1.31-2.32-1.3-4.29.02-4.19,2.16-5.63,4.07-5.63.67,0,1.2.13,1.54.3l-.27,1.06c-.29-.14-.67-.26-1.25-.26-1.34,0-2.8,1.07-2.8,4.42s1.26,4.4,2.56,4.4c.42,0,.66-.08.75-.13v-3.52h-1.39v-1.02h2.56v5.36Z"/>
    <path class="cls-1" d="M321.94,93.68v10.79h-1.23v-10.79h1.23Z"/>
    <path class="cls-1" d="M328.59,104.28c-.34.18-.86.29-1.54.29-2.11,0-3.62-1.7-3.62-5.36,0-4.26,2.11-5.62,3.81-5.62.66,0,1.12.13,1.34.27l-.27,1.04c-.26-.11-.53-.22-1.09-.22-1.15,0-2.5,1.12-2.5,4.42s1.22,4.39,2.53,4.39c.46,0,.88-.11,1.14-.24l.19,1.04Z"/>
    <path class="cls-1" d="M331.25,101.24l-.72,3.23h-1.18l2.46-10.79h1.36l2.4,10.79h-1.22l-.72-3.23h-2.38ZM333.47,100.25l-.56-2.74c-.16-.77-.3-1.66-.43-2.46h-.06c-.13.82-.29,1.74-.43,2.46l-.56,2.74h2.05Z"/>
    <path class="cls-1" d="M336.67,103.05c.37.24,1.01.43,1.55.43,1.12,0,1.79-.74,1.79-1.83,0-.99-.58-1.6-1.42-2.24-.85-.59-2.03-1.6-2.03-2.99,0-1.63,1.14-2.83,2.85-2.83.67,0,1.26.21,1.52.4l-.3,1.06c-.27-.19-.72-.37-1.28-.37-1.06,0-1.55.8-1.55,1.54,0,1.07.56,1.49,1.58,2.22,1.3.91,1.87,1.9,1.87,3.11,0,1.86-1.31,3.03-3.03,3.03-.74,0-1.52-.24-1.82-.46l.27-1.06Z"/>
  </g>
  <rect class="cls-3" x="272.56" y="86.41" width="74.31" height="25.34" rx="7.06" ry="7.06"/>
  <g>
    <path class="cls-1" d="M11.35,99.35h-2.71v4.05h3.07v1.07h-4.31v-10.79h4.11v1.07h-2.88v3.55h2.71v1.04Z"/>
    <path class="cls-1" d="M17.78,104.28c-.34.18-.86.29-1.54.29-2.11,0-3.62-1.7-3.62-5.36,0-4.26,2.11-5.62,3.81-5.62.66,0,1.12.13,1.34.27l-.27,1.04c-.26-.11-.53-.22-1.09-.22-1.15,0-2.5,1.12-2.5,4.42s1.22,4.39,2.53,4.39c.46,0,.88-.11,1.14-.24l.19,1.04Z"/>
    <path class="cls-1" d="M24.44,99c0,4.05-1.39,5.6-3.12,5.6s-2.99-1.9-2.99-5.54,1.28-5.51,3.17-5.51,2.95,2,2.95,5.44ZM19.6,99.08c0,2.22.43,4.43,1.79,4.43s1.76-2.35,1.76-4.47-.37-4.4-1.78-4.4-1.78,2.24-1.78,4.43Z"/>
    <path class="cls-1" d="M25.91,104.47v-10.79h1.17l1.98,5.06c.45,1.15,1.01,2.59,1.38,3.76h.03c-.1-1.7-.14-3.09-.14-4.96v-3.86h1.1v10.79h-1.17l-2.05-5.19c-.43-1.09-.9-2.32-1.28-3.67h-.03c.1,1.44.13,2.82.13,5.12v3.73h-1.12Z"/>
    <path class="cls-1" d="M39.01,99c0,4.05-1.39,5.6-3.12,5.6s-2.99-1.9-2.99-5.54,1.28-5.51,3.17-5.51,2.95,2,2.95,5.44ZM34.18,99.08c0,2.22.43,4.43,1.79,4.43s1.76-2.35,1.76-4.47-.37-4.4-1.78-4.4-1.78,2.24-1.78,4.43ZM38.15,91.38l-1.99,1.73h-.98l1.5-1.73h1.46Z"/>
    <path class="cls-1" d="M47.01,99.83c-.08-1.42-.16-3.01-.11-4.23h-.06c-.24,1.2-.53,2.48-.87,3.75l-1.33,5.06h-.78l-1.26-4.85c-.35-1.38-.67-2.71-.88-3.95h-.05c0,1.26-.06,2.77-.13,4.31l-.21,4.56h-1.1l.64-10.79h1.33l1.26,4.93c.37,1.42.64,2.48.86,3.71h.05c.21-1.23.45-2.26.8-3.71l1.22-4.93h1.38l.62,10.79h-1.15l-.22-4.64Z"/>
    <path class="cls-1" d="M51.3,93.68v10.79h-1.23v-10.79h1.23Z"/>
    <path class="cls-1" d="M57.96,104.28c-.34.18-.86.29-1.54.29-2.11,0-3.62-1.7-3.62-5.36,0-4.26,2.11-5.62,3.81-5.62.66,0,1.12.13,1.34.27l-.27,1.04c-.26-.11-.53-.22-1.09-.22-1.15,0-2.5,1.12-2.5,4.42s1.22,4.39,2.53,4.39c.46,0,.88-.11,1.14-.24l.19,1.04Z"/>
    <path class="cls-1" d="M60.61,101.24l-.72,3.23h-1.18l2.46-10.79h1.36l2.4,10.79h-1.22l-.72-3.23h-2.38ZM62.84,100.25l-.56-2.74c-.16-.77-.3-1.66-.43-2.46h-.06c-.13.82-.29,1.74-.43,2.46l-.56,2.74h2.05Z"/>
    <path class="cls-1" d="M66.04,103.05c.37.24,1.01.43,1.55.43,1.12,0,1.79-.74,1.79-1.83,0-.99-.58-1.6-1.42-2.24-.85-.59-2.03-1.6-2.03-2.99,0-1.63,1.14-2.83,2.85-2.83.67,0,1.26.21,1.52.4l-.3,1.06c-.27-.19-.72-.37-1.28-.37-1.06,0-1.55.8-1.55,1.54,0,1.07.56,1.49,1.58,2.22,1.3.91,1.87,1.9,1.87,3.11,0,1.86-1.31,3.03-3.03,3.03-.74,0-1.52-.24-1.82-.46l.27-1.06Z"/>
  </g>
  <rect class="cls-3" x=".75" y="86.41" width="76.04" height="25.34" rx="7.06" ry="7.06"/>
  <g>
    <path class="cls-1" d="M192.91,93.84c.5-.13,1.09-.21,1.79-.21.99,0,1.83.24,2.38.8.53.51.8,1.3.8,2.23,0,.99-.24,1.66-.66,2.21-.59.8-1.58,1.2-2.54,1.2-.21,0-.37,0-.54-.02v4.42h-1.23v-10.63ZM194.14,99.01c.14.03.27.05.48.05,1.22,0,2.03-.8,2.03-2.32,0-1.1-.46-2.1-1.83-2.1-.29,0-.53.03-.69.08v4.29Z"/>
    <path class="cls-1" d="M204.96,99c0,4.05-1.39,5.6-3.12,5.6s-2.99-1.9-2.99-5.54,1.28-5.51,3.17-5.51,2.95,2,2.95,5.44ZM200.12,99.08c0,2.22.43,4.43,1.79,4.43s1.76-2.35,1.76-4.47-.37-4.4-1.78-4.4-1.78,2.24-1.78,4.43Z"/>
    <path class="cls-1" d="M206.43,93.68h1.23v9.75h3.04v1.04h-4.27v-10.79Z"/>
    <path class="cls-1" d="M214.69,91.38l-1.99,1.73h-.98l1.52-1.73h1.44ZM213.16,93.68v10.79h-1.23v-10.79h1.23Z"/>
    <path class="cls-1" d="M216.38,94.79h-1.97v-1.1h5.17v1.1h-1.97v9.68h-1.23v-9.68Z"/>
    <path class="cls-1" d="M222.01,93.68v10.79h-1.23v-10.79h1.23Z"/>
    <path class="cls-1" d="M228.67,104.28c-.34.18-.86.29-1.54.29-2.11,0-3.62-1.7-3.62-5.36,0-4.26,2.11-5.62,3.81-5.62.66,0,1.12.13,1.34.27l-.27,1.04c-.26-.11-.53-.22-1.09-.22-1.15,0-2.5,1.12-2.5,4.42s1.22,4.39,2.53,4.39c.46,0,.88-.11,1.14-.24l.19,1.04Z"/>
    <path class="cls-1" d="M231.32,101.24l-.72,3.23h-1.18l2.46-10.79h1.36l2.4,10.79h-1.22l-.72-3.23h-2.38ZM233.55,100.25l-.56-2.74c-.16-.77-.3-1.66-.43-2.46h-.06c-.13.82-.29,1.74-.43,2.46l-.56,2.74h2.05Z"/>
    <path class="cls-1" d="M236.75,103.05c.37.24,1.01.43,1.55.43,1.12,0,1.79-.74,1.79-1.83,0-.99-.58-1.6-1.42-2.24-.85-.59-2.03-1.6-2.03-2.99,0-1.63,1.14-2.83,2.85-2.83.67,0,1.26.21,1.52.4l-.3,1.06c-.27-.19-.72-.37-1.28-.37-1.06,0-1.55.8-1.55,1.54,0,1.07.56,1.49,1.58,2.22,1.3.91,1.87,1.9,1.87,3.11,0,1.86-1.31,3.03-3.03,3.03-.74,0-1.52-.24-1.82-.46l.27-1.06Z"/>
  </g>
  <rect class="cls-3" x="186" y="86.41" width="61.74" height="25.34" rx="7.06" ry="7.06"/>
  <line class="cls-3" x1="131.19" y1="68.73" x2="131.19" y2="86.41"/>
  <line class="cls-3" x1="131.19" y1="111.75" x2="131.19" y2="129.42"/>
  <g>
    <path class="cls-1" d="M108.93,103.05c.37.24,1.01.43,1.55.43,1.12,0,1.79-.74,1.79-1.83,0-.99-.58-1.6-1.42-2.24-.85-.59-2.03-1.6-2.03-2.99,0-1.63,1.14-2.83,2.85-2.83.67,0,1.26.21,1.52.4l-.3,1.06c-.27-.19-.72-.37-1.28-.37-1.06,0-1.55.8-1.55,1.54,0,1.07.56,1.49,1.58,2.22,1.3.91,1.87,1.9,1.87,3.11,0,1.86-1.31,3.03-3.03,3.03-.74,0-1.52-.24-1.82-.46l.27-1.06Z"/>
    <path class="cls-1" d="M120.61,99c0,4.05-1.39,5.6-3.12,5.6s-2.99-1.9-2.99-5.54,1.28-5.51,3.17-5.51,2.95,2,2.95,5.44ZM115.77,99.08c0,2.22.43,4.43,1.79,4.43s1.76-2.35,1.76-4.47-.37-4.4-1.78-4.4-1.78,2.24-1.78,4.43Z"/>
    <path class="cls-1" d="M126.78,104.28c-.34.18-.86.29-1.54.29-2.11,0-3.62-1.7-3.62-5.36,0-4.26,2.11-5.62,3.81-5.62.66,0,1.12.13,1.34.27l-.27,1.04c-.26-.11-.53-.22-1.09-.22-1.15,0-2.5,1.12-2.5,4.42s1.22,4.39,2.53,4.39c.46,0,.88-.11,1.14-.24l.19,1.04Z"/>
    <path class="cls-1" d="M129.28,93.68v10.79h-1.23v-10.79h1.23Z"/>
    <path class="cls-1" d="M132.53,101.24l-.72,3.23h-1.18l2.46-10.79h1.36l2.4,10.79h-1.22l-.72-3.23h-2.38ZM134.75,100.25l-.56-2.74c-.16-.77-.3-1.66-.43-2.46h-.06c-.13.82-.29,1.74-.43,2.46l-.56,2.74h2.05Z"/>
    <path class="cls-1" d="M138.19,93.68h1.23v9.75h3.04v1.04h-4.27v-10.79Z"/>
    <path class="cls-1" d="M147.63,99.35h-2.71v4.05h3.07v1.07h-4.31v-10.79h4.11v1.07h-2.88v3.55h2.71v1.04Z"/>
    <path class="cls-1" d="M149.12,103.05c.37.24,1.01.43,1.55.43,1.12,0,1.79-.74,1.79-1.83,0-.99-.58-1.6-1.42-2.24-.85-.59-2.03-1.6-2.03-2.99,0-1.63,1.14-2.83,2.85-2.83.67,0,1.26.21,1.52.4l-.3,1.06c-.27-.19-.72-.37-1.28-.37-1.06,0-1.55.8-1.55,1.54,0,1.07.56,1.49,1.58,2.22,1.3.91,1.87,1.9,1.87,3.11,0,1.86-1.31,3.03-3.03,3.03-.74,0-1.52-.24-1.82-.46l.27-1.06Z"/>
  </g>
  <rect class="cls-3" x="102.06" y="86.41" width="58.27" height="25.34" rx="7.06" ry="7.06"/>
  <path class="cls-3" d="M38.77,85.91v-8.24c0-4.93,4-8.93,8.93-8.93h253.07c4.93,0,8.93,4,8.93,8.93v8.24"/>
  <path class="cls-3" d="M38.77,112.24v8.24c0,4.93,4,8.93,8.93,8.93h253.07c4.93,0,8.93-4,8.93-8.93v-8.24"/>
</svg>