<?xml version="1.0" encoding="UTF-8"?>
<svg id="Capa_1_copia" data-name="Capa 1 copia" xmlns="http://www.w3.org/2000/svg" viewBox="0 0 432.28 451.71">
  <defs>
    <style>
      .cls-1 {
        fill: #000;
      }

      .cls-1, .cls-2 {
        stroke-width: 0px;
      }

      .cls-3 {
        stroke-width: 1.5px;
      }

      .cls-3, .cls-4, .cls-5 {
        fill: none;
      }

      .cls-3, .cls-5 {
        stroke: #000;
        stroke-miterlimit: 10;
      }

      .cls-2 {
        fill: #1d1d1b;
      }

      .cls-4 {
        stroke: #fff;
        stroke-width: 4px;
      }

      .cls-5 {
        stroke-width: 3px;
      }
    </style>
  </defs>
  <line class="cls-3" x1="235.29" y1="407.94" x2="235.29" y2="425.62"/>
  <g>
    <path class="cls-1" d="M301.08,443.41c-.46.19-1.23.37-1.92.37-.94,0-1.82-.26-2.54-1.06-.78-.83-1.31-2.32-1.3-4.29.02-4.19,2.16-5.63,4.07-5.63.67,0,1.2.13,1.54.3l-.27,1.06c-.29-.14-.67-.26-1.25-.26-1.34,0-2.8,1.07-2.8,4.42s1.26,4.4,2.56,4.4c.42,0,.66-.08.75-.13v-3.52h-1.39v-1.02h2.56v5.36Z"/>
    <path class="cls-1" d="M302.74,433.05c.53-.14,1.17-.21,1.78-.21,1.07,0,1.87.22,2.43.77.53.54.75,1.26.75,2.11,0,1.38-.64,2.27-1.73,2.77v.03c.8.24,1.22,1.01,1.46,2.42.24,1.49.46,2.4.61,2.74h-1.25c-.16-.32-.37-1.34-.58-2.67-.24-1.47-.7-2.03-1.76-2.03h-.48v4.71h-1.23v-10.63ZM303.97,438.03h.51c1.18,0,1.97-.86,1.97-2.16s-.51-2.02-1.84-2.03c-.24,0-.48.02-.64.06v4.13Z"/>
    <path class="cls-1" d="M310.67,440.44l-.72,3.23h-1.18l2.46-10.79h1.36l2.4,10.79h-1.22l-.72-3.23h-2.38ZM312.9,439.45l-.56-2.74c-.16-.77-.3-1.66-.43-2.46h-.06c-.13.82-.29,1.74-.43,2.46l-.56,2.74h2.05Z"/>
    <path class="cls-1" d="M316.34,433.05c.51-.13,1.12-.21,1.81-.21.98,0,1.81.21,2.38.75.46.43.7,1.07.7,1.84,0,1.1-.61,1.98-1.67,2.4v.03c1.25.34,2,1.34,2,2.75,0,.9-.29,1.62-.77,2.14-.61.69-1.62.98-2.85.98-.8,0-1.28-.05-1.62-.11v-10.58ZM317.57,437.47h.56c1.01,0,1.87-.77,1.87-1.9,0-.99-.46-1.76-1.78-1.76-.29,0-.51.03-.66.08v3.59ZM317.57,442.7c.14.03.35.06.62.06,1.28,0,2.11-.75,2.11-2.14,0-1.49-1.04-2.19-2.19-2.21h-.54v4.29Z"/>
    <path class="cls-1" d="M324.29,440.44l-.72,3.23h-1.18l2.46-10.79h1.36l2.4,10.79h-1.22l-.72-3.23h-2.38ZM326.51,439.45l-.56-2.74c-.16-.77-.3-1.66-.43-2.46h-.06c-.13.82-.29,1.74-.43,2.46l-.56,2.74h2.05Z"/>
    <path class="cls-1" d="M329.95,433.05c.48-.14,1.04-.21,1.67-.21,1.14,0,1.94.29,2.53.82.83.72,1.46,2.11,1.46,4.37,0,2.47-.61,3.81-1.3,4.55-.7.8-1.73,1.17-2.98,1.17-.5,0-1.01-.03-1.38-.11v-10.58ZM331.19,442.67c.18.03.35.03.46.03,1.36,0,2.67-.98,2.67-4.64,0-2.72-.83-4.21-2.56-4.21-.19,0-.42.02-.58.06v8.76Z"/>
    <path class="cls-1" d="M342.74,438.2c0,4.05-1.39,5.6-3.12,5.6s-2.99-1.9-2.99-5.54,1.28-5.51,3.17-5.51,2.95,2,2.95,5.44ZM337.91,438.28c0,2.22.43,4.43,1.79,4.43s1.76-2.35,1.76-4.47-.37-4.4-1.78-4.4-1.78,2.24-1.78,4.43Z"/>
    <path class="cls-1" d="M347.73,443.68v-4.56l-2.37-6.23h1.3l.96,2.71c.27.75.56,1.6.8,2.43h.03c.22-.83.5-1.65.78-2.48l.91-2.66h1.3l-2.48,6.18v4.61h-1.23Z"/>
    <path class="cls-1" d="M356.27,440.44l-.72,3.23h-1.18l2.46-10.79h1.36l2.4,10.79h-1.22l-.72-3.23h-2.38ZM358.5,439.45l-.56-2.74c-.16-.77-.3-1.66-.43-2.46h-.06c-.13.82-.29,1.74-.43,2.46l-.56,2.74h2.05Z"/>
    <path class="cls-1" d="M361.94,433.05c.53-.14,1.17-.21,1.78-.21,1.07,0,1.87.22,2.43.77.53.54.75,1.26.75,2.11,0,1.38-.64,2.27-1.73,2.77v.03c.8.24,1.22,1.01,1.46,2.42.24,1.49.46,2.4.61,2.74h-1.25c-.16-.32-.37-1.34-.58-2.67-.24-1.47-.7-2.03-1.76-2.03h-.48v4.71h-1.23v-10.63ZM363.17,438.03h.51c1.18,0,1.97-.86,1.97-2.16s-.51-2.02-1.84-2.03c-.24,0-.48.02-.64.06v4.13Z"/>
    <path class="cls-1" d="M369.57,433.99h-1.97v-1.1h5.17v1.1h-1.97v9.68h-1.23v-9.68Z"/>
    <path class="cls-1" d="M377.91,438.56h-2.71v4.05h3.07v1.07h-4.31v-10.79h4.11v1.07h-2.88v3.55h2.71v1.04Z"/>
    <path class="cls-1" d="M383.38,432.89v10.79h-1.23v-10.79h1.23Z"/>
    <path class="cls-1" d="M391.86,439.04c-.08-1.42-.16-3.01-.11-4.23h-.06c-.24,1.2-.53,2.48-.87,3.75l-1.33,5.06h-.78l-1.26-4.85c-.35-1.38-.67-2.71-.88-3.95h-.05c0,1.26-.06,2.77-.13,4.31l-.21,4.56h-1.1l.64-10.79h1.33l1.26,4.93c.37,1.42.64,2.48.86,3.71h.05c.21-1.23.45-2.26.8-3.71l1.22-4.93h1.38l.62,10.79h-1.15l-.22-4.64Z"/>
    <path class="cls-1" d="M394.91,433.05c.5-.13,1.09-.21,1.79-.21.99,0,1.83.24,2.38.8.53.51.8,1.3.8,2.23,0,.99-.24,1.66-.66,2.21-.59.8-1.58,1.2-2.54,1.2-.21,0-.37,0-.54-.02v4.42h-1.23v-10.63ZM396.15,438.22c.14.03.27.05.48.05,1.22,0,2.03-.8,2.03-2.32,0-1.1-.46-2.1-1.83-2.1-.29,0-.53.03-.69.08v4.29Z"/>
    <path class="cls-1" d="M401.3,433.05c.53-.14,1.17-.21,1.78-.21,1.07,0,1.87.22,2.43.77.53.54.75,1.26.75,2.11,0,1.38-.64,2.27-1.73,2.77v.03c.8.24,1.22,1.01,1.46,2.42.24,1.49.46,2.4.61,2.74h-1.25c-.16-.32-.37-1.34-.58-2.67-.24-1.47-.7-2.03-1.76-2.03h-.48v4.71h-1.23v-10.63ZM402.53,438.03h.51c1.18,0,1.97-.86,1.97-2.16s-.51-2.02-1.84-2.03c-.24,0-.48.02-.64.06v4.13Z"/>
    <path class="cls-1" d="M411.78,438.56h-2.71v4.05h3.07v1.07h-4.31v-10.79h4.11v1.07h-2.88v3.55h2.71v1.04Z"/>
    <path class="cls-1" d="M413.26,442.25c.37.24,1.01.43,1.55.43,1.12,0,1.79-.74,1.79-1.83,0-.99-.58-1.6-1.42-2.24-.85-.59-2.03-1.6-2.03-2.99,0-1.63,1.14-2.83,2.85-2.83.67,0,1.26.21,1.52.4l-.3,1.06c-.27-.19-.72-.37-1.28-.37-1.06,0-1.55.8-1.55,1.54,0,1.07.56,1.49,1.58,2.22,1.3.91,1.87,1.9,1.87,3.11,0,1.86-1.31,3.03-3.03,3.03-.74,0-1.52-.24-1.82-.46l.27-1.06Z"/>
    <path class="cls-1" d="M424.95,438.2c0,4.05-1.39,5.6-3.12,5.6s-2.99-1.9-2.99-5.54,1.28-5.51,3.17-5.51,2.95,2,2.95,5.44ZM420.11,438.28c0,2.22.43,4.43,1.79,4.43s1.76-2.35,1.76-4.47-.37-4.4-1.78-4.4-1.78,2.24-1.78,4.43Z"/>
  </g>
  <rect class="cls-3" x="288.73" y="425.62" width="142.8" height="25.34" rx="7.06" ry="7.06"/>
  <g>
    <path class="cls-1" d="M11.93,440.44l-.72,3.23h-1.18l2.46-10.79h1.36l2.4,10.79h-1.22l-.72-3.23h-2.38ZM14.15,439.45l-.56-2.74c-.16-.77-.3-1.66-.43-2.46h-.06c-.13.82-.29,1.74-.43,2.46l-.56,2.74h2.05Z"/>
    <path class="cls-1" d="M17.59,433.05c.53-.14,1.17-.21,1.78-.21,1.07,0,1.87.22,2.43.77.53.54.75,1.26.75,2.11,0,1.38-.64,2.27-1.73,2.77v.03c.8.24,1.22,1.01,1.46,2.42.24,1.49.46,2.4.61,2.74h-1.25c-.16-.32-.37-1.34-.58-2.67-.24-1.47-.7-2.03-1.76-2.03h-.48v4.71h-1.23v-10.63ZM18.82,438.03h.51c1.18,0,1.97-.86,1.97-2.16s-.51-2.02-1.84-2.03c-.24,0-.48.02-.64.06v4.13Z"/>
    <path class="cls-1" d="M25.22,433.99h-1.97v-1.1h5.17v1.1h-1.97v9.68h-1.23v-9.68Z"/>
    <path class="cls-1" d="M33.56,438.56h-2.71v4.05h3.07v1.07h-4.31v-10.79h4.11v1.07h-2.88v3.55h2.71v1.04Z"/>
    <path class="cls-1" d="M37.8,433.05c.48-.14,1.04-.21,1.67-.21,1.14,0,1.94.29,2.53.82.83.72,1.46,2.11,1.46,4.37,0,2.47-.61,3.81-1.3,4.55-.71.8-1.73,1.17-2.98,1.17-.5,0-1.01-.03-1.38-.11v-10.58ZM39.03,442.67c.18.03.35.03.46.03,1.36,0,2.67-.98,2.67-4.64,0-2.72-.83-4.21-2.56-4.21-.19,0-.42.02-.58.06v8.76Z"/>
    <path class="cls-1" d="M46.15,432.89v10.79h-1.23v-10.79h1.23Z"/>
    <path class="cls-1" d="M53.41,443.41c-.46.19-1.23.37-1.92.37-.94,0-1.82-.26-2.54-1.06-.78-.83-1.31-2.32-1.3-4.29.02-4.19,2.16-5.63,4.07-5.63.67,0,1.2.13,1.54.3l-.27,1.06c-.29-.14-.67-.26-1.25-.26-1.34,0-2.8,1.07-2.8,4.42s1.26,4.4,2.56,4.4c.42,0,.66-.08.75-.13v-3.52h-1.39v-1.02h2.56v5.36Z"/>
    <path class="cls-1" d="M56.31,432.89v10.79h-1.23v-10.79h1.23Z"/>
    <path class="cls-1" d="M59.52,433.99h-1.97v-1.1h5.17v1.1h-1.97v9.68h-1.23v-9.68Z"/>
    <path class="cls-1" d="M64.5,440.44l-.72,3.23h-1.18l2.46-10.79h1.36l2.4,10.79h-1.22l-.72-3.23h-2.38ZM66.72,439.45l-.56-2.74c-.16-.77-.3-1.66-.43-2.46h-.06c-.13.82-.29,1.74-.43,2.46l-.56,2.74h2.05Z"/>
    <path class="cls-1" d="M70.16,432.89h1.23v9.75h3.04v1.04h-4.27v-10.79Z"/>
  </g>
  <rect class="cls-3" x=".75" y="425.62" width="82.88" height="25.34" rx="7.06" ry="7.06"/>
  <g>
    <path class="cls-1" d="M215.51,433.05c.48-.14,1.04-.21,1.67-.21,1.14,0,1.94.29,2.53.82.83.72,1.46,2.11,1.46,4.37,0,2.47-.61,3.81-1.3,4.55-.7.8-1.73,1.17-2.98,1.17-.5,0-1.01-.03-1.38-.11v-10.58ZM216.74,442.67c.18.03.35.03.46.03,1.36,0,2.67-.98,2.67-4.64,0-2.72-.83-4.21-2.56-4.21-.19,0-.42.02-.58.06v8.76Z"/>
    <path class="cls-1" d="M223.86,432.89v10.79h-1.23v-10.79h1.23Z"/>
    <path class="cls-1" d="M225.81,433.05c.51-.13,1.12-.21,1.81-.21.98,0,1.81.21,2.38.75.46.43.7,1.07.7,1.84,0,1.1-.61,1.98-1.67,2.4v.03c1.25.34,2,1.34,2,2.75,0,.9-.29,1.62-.77,2.14-.61.69-1.62.98-2.85.98-.8,0-1.28-.05-1.62-.11v-10.58ZM227.05,437.47h.56c1.01,0,1.87-.77,1.87-1.9,0-.99-.46-1.76-1.78-1.76-.29,0-.51.03-.66.08v3.59ZM227.05,442.7c.14.03.35.06.62.06,1.28,0,2.11-.75,2.11-2.14,0-1.49-1.04-2.19-2.19-2.21h-.54v4.29Z"/>
    <path class="cls-1" d="M233.75,432.89v7.24c0,1.94.64,2.59,1.47,2.59.91,0,1.49-.7,1.49-2.59v-7.24h1.23v7.04c0,2.8-1.15,3.87-2.75,3.87s-2.67-1.06-2.67-3.73v-7.19h1.23Z"/>
    <path class="cls-1" d="M241.03,432.89h1.23v7.75c0,2.42-.98,3.17-2.53,3.17-.3,0-.59-.03-.8-.11l.11-1.04c.16.05.37.06.59.06.88,0,1.39-.35,1.39-2.06v-7.76Z"/>
    <path class="cls-1" d="M249.75,438.2c0,4.05-1.39,5.6-3.12,5.6s-2.99-1.9-2.99-5.54,1.28-5.51,3.17-5.51,2.95,2,2.95,5.44ZM244.92,438.28c0,2.22.43,4.43,1.79,4.43s1.76-2.35,1.76-4.47-.37-4.4-1.78-4.4-1.78,2.24-1.78,4.43Z"/>
    <path class="cls-1" d="M250.98,442.25c.37.24,1.01.43,1.55.43,1.12,0,1.79-.74,1.79-1.83,0-.99-.58-1.6-1.42-2.24-.85-.59-2.03-1.6-2.03-2.99,0-1.63,1.14-2.83,2.85-2.83.67,0,1.26.21,1.52.4l-.3,1.06c-.27-.19-.72-.37-1.28-.37-1.06,0-1.55.8-1.55,1.54,0,1.07.56,1.49,1.58,2.22,1.3.91,1.87,1.9,1.87,3.11,0,1.86-1.31,3.03-3.03,3.03-.74,0-1.52-.24-1.82-.46l.27-1.06Z"/>
  </g>
  <rect class="cls-3" x="207.03" y="425.62" width="56.52" height="25.34" rx="7.06" ry="7.06"/>
  <line class="cls-3" x1="145.61" y1="407.94" x2="145.61" y2="425.62"/>
  <g>
    <path class="cls-1" d="M116.17,432.89h4.11v1.07h-2.88v3.78h2.69v1.04h-2.69v4.9h-1.23v-10.79Z"/>
    <path class="cls-1" d="M127.35,438.2c0,4.05-1.39,5.6-3.12,5.6s-2.99-1.9-2.99-5.54,1.28-5.51,3.17-5.51,2.95,2,2.95,5.44ZM122.52,438.28c0,2.22.43,4.43,1.79,4.43s1.76-2.35,1.76-4.47-.37-4.4-1.78-4.4-1.78,2.24-1.78,4.43Z"/>
    <path class="cls-1" d="M129.7,433.99h-1.97v-1.1h5.17v1.1h-1.97v9.68h-1.23v-9.68Z"/>
    <path class="cls-1" d="M139.26,438.2c0,4.05-1.39,5.6-3.12,5.6s-2.99-1.9-2.99-5.54,1.28-5.51,3.17-5.51,2.95,2,2.95,5.44ZM134.42,438.28c0,2.22.43,4.43,1.79,4.43s1.76-2.35,1.76-4.47-.37-4.4-1.78-4.4-1.78,2.24-1.78,4.43Z"/>
    <path class="cls-1" d="M146.04,443.41c-.46.19-1.23.37-1.92.37-.94,0-1.82-.26-2.54-1.06-.78-.83-1.31-2.32-1.3-4.29.02-4.19,2.16-5.63,4.07-5.63.67,0,1.2.13,1.54.3l-.27,1.06c-.29-.14-.67-.26-1.25-.26-1.34,0-2.8,1.07-2.8,4.42s1.26,4.4,2.56,4.4c.42,0,.66-.08.75-.13v-3.52h-1.39v-1.02h2.56v5.36Z"/>
    <path class="cls-1" d="M147.7,433.05c.53-.14,1.17-.21,1.78-.21,1.07,0,1.87.22,2.43.77.53.54.75,1.26.75,2.11,0,1.38-.64,2.27-1.73,2.77v.03c.8.24,1.22,1.01,1.46,2.42.24,1.49.46,2.4.61,2.74h-1.25c-.16-.32-.37-1.34-.58-2.67-.24-1.47-.7-2.03-1.76-2.03h-.48v4.71h-1.23v-10.63ZM148.94,438.03h.51c1.18,0,1.97-.86,1.97-2.16s-.51-2.02-1.84-2.03c-.24,0-.48.02-.64.06v4.13Z"/>
    <path class="cls-1" d="M155.64,440.44l-.72,3.23h-1.18l2.46-10.79h1.36l2.4,10.79h-1.22l-.72-3.23h-2.38ZM157.86,439.45l-.56-2.74c-.16-.77-.3-1.66-.43-2.46h-.06c-.13.82-.29,1.74-.43,2.46l-.56,2.74h2.05Z"/>
    <path class="cls-1" d="M161.3,432.89h4.11v1.07h-2.88v3.78h2.69v1.04h-2.69v4.9h-1.23v-10.79Z"/>
    <path class="cls-1" d="M169.58,430.58l-1.99,1.73h-.98l1.52-1.73h1.44ZM168.06,432.89v10.79h-1.23v-10.79h1.23Z"/>
    <path class="cls-1" d="M171.3,440.44l-.72,3.23h-1.18l2.46-10.79h1.36l2.4,10.79h-1.22l-.72-3.23h-2.38ZM173.53,439.45l-.56-2.74c-.16-.77-.3-1.66-.43-2.46h-.06c-.13.82-.29,1.74-.43,2.46l-.56,2.74h2.05Z"/>
  </g>
  <rect class="cls-3" x="108.55" y="425.62" width="74.1" height="25.34" rx="7.06" ry="7.06"/>
  <path class="cls-3" d="M42.19,425.12v-8.24c0-4.93,4-8.93,8.93-8.93h300.07c4.93,0,8.93,4,8.93,8.93v8.24"/>
  <g>
    <path class="cls-1" d="M145.67,14.82h-2.46v2.91h2.79v1.82h-4.88v-10.79h4.69v1.82h-2.59v2.48h2.46v1.74Z"/>
    <path class="cls-1" d="M147.41,8.77h2.1v9.01h2.77v1.78h-4.87v-10.79Z"/>
    <path class="cls-1" d="M157.75,17.1l-.48,2.46h-2.03l2.34-10.79h2.51l2.1,10.79h-2.03l-.46-2.46h-1.94ZM159.49,15.46l-.35-2.26c-.11-.66-.26-1.73-.35-2.45h-.05c-.11.72-.27,1.84-.38,2.47l-.4,2.24h1.54Z"/>
    <path class="cls-1" d="M163.36,8.93c.66-.13,1.49-.21,2.29-.21,1.15,0,2.18.16,2.88.8.66.59.85,1.31.85,2.24,0,1.15-.56,2.19-1.67,2.71v.03c.74.29,1.1.98,1.31,2.13.21,1.2.5,2.53.69,2.93h-2.19c-.13-.3-.37-1.39-.53-2.58-.19-1.34-.53-1.73-1.23-1.73h-.3v4.31h-2.1v-10.63ZM165.46,13.64h.37c.91,0,1.44-.74,1.44-1.68s-.37-1.57-1.31-1.6c-.18,0-.38.02-.5.06v3.22Z"/>
    <path class="cls-1" d="M172,10.71h-1.9v-1.94h5.92v1.94h-1.92v8.85h-2.1v-8.85Z"/>
    <path class="cls-1" d="M181.69,14.82h-2.46v2.91h2.79v1.82h-4.88v-10.79h4.69v1.82h-2.59v2.48h2.46v1.74Z"/>
    <path class="cls-1" d="M185.97,8.93c.59-.13,1.39-.21,2.19-.21,1.25,0,2.22.18,2.93.83.64.56.93,1.46.93,2.37,0,1.17-.35,1.98-.91,2.59-.67.7-1.76,1.02-2.62,1.02h-.42v4.02h-2.1v-10.63ZM188.07,13.83c.1.03.21.03.34.03,1.06,0,1.54-.75,1.54-1.76,0-.94-.38-1.68-1.36-1.68-.19,0-.38.03-.51.08v3.33Z"/>
    <path class="cls-1" d="M193.28,8.77h2.1v9.01h2.77v1.78h-4.87v-10.79Z"/>
    <path class="cls-1" d="M201.2,17.1l-.48,2.46h-2.03l2.34-10.79h2.51l2.1,10.79h-2.03l-.46-2.46h-1.94ZM204.77,6.39l-1.95,1.81h-1.49l1.31-1.81h2.13ZM202.95,15.46l-.35-2.26c-.11-.66-.26-1.73-.35-2.45h-.05c-.11.72-.27,1.84-.38,2.47l-.4,2.24h1.54Z"/>
    <path class="cls-1" d="M206.58,17.42c.43.24,1.17.42,1.78.42.99,0,1.47-.51,1.47-1.22,0-.78-.48-1.17-1.39-1.76-1.47-.9-2.03-2.03-2.03-3.01,0-1.73,1.15-3.17,3.41-3.17.7,0,1.38.19,1.7.38l-.34,1.81c-.3-.19-.77-.37-1.38-.37-.9,0-1.33.54-1.33,1.12,0,.64.32.98,1.49,1.68,1.42.86,1.95,1.95,1.95,3.09,0,1.97-1.46,3.27-3.57,3.27-.86,0-1.71-.22-2.07-.43l.3-1.81Z"/>
    <path class="cls-1" d="M214.29,10.71h-1.9v-1.94h5.92v1.94h-1.92v8.85h-2.1v-8.85Z"/>
    <path class="cls-1" d="M221.51,8.77v10.79h-2.1v-10.79h2.1Z"/>
    <path class="cls-1" d="M228.55,19.4c-.3.14-.9.26-1.63.26-2.75,0-4.07-2.27-4.07-5.33,0-4.07,2.26-5.65,4.35-5.65.74,0,1.25.14,1.46.29l-.35,1.76c-.24-.11-.51-.21-.98-.21-1.18,0-2.26,1.02-2.26,3.7s.98,3.59,2.26,3.59c.35,0,.75-.08,1.01-.16l.21,1.76Z"/>
    <path class="cls-1" d="M235.88,13.97c0,4.07-1.44,5.71-3.49,5.71-2.45,0-3.41-2.59-3.41-5.55s1.17-5.49,3.55-5.49c2.61,0,3.35,2.87,3.35,5.33ZM231.16,14.17c0,2.45.46,3.7,1.31,3.7s1.22-1.6,1.22-3.79c0-1.89-.29-3.6-1.23-3.6-.83,0-1.3,1.38-1.3,3.7Z"/>
  </g>
  <rect class="cls-5" x="132.88" y="1.5" width="110.71" height="25.34" rx="7.06" ry="7.06"/>
  <g>
    <path class="cls-1" d="M145.1,256.42c-.34.18-.86.29-1.54.29-2.11,0-3.62-1.7-3.62-5.36,0-4.26,2.11-5.62,3.81-5.62.66,0,1.12.13,1.34.27l-.27,1.04c-.26-.11-.53-.22-1.09-.22-1.15,0-2.5,1.12-2.5,4.42s1.22,4.39,2.53,4.39c.46,0,.88-.11,1.14-.24l.19,1.04Z"/>
    <path class="cls-1" d="M146.36,245.98c.53-.14,1.17-.21,1.78-.21,1.07,0,1.87.22,2.43.77.53.54.75,1.26.75,2.11,0,1.38-.64,2.27-1.73,2.77v.03c.8.24,1.22,1.01,1.46,2.42.24,1.49.46,2.4.61,2.74h-1.25c-.16-.32-.37-1.34-.58-2.67-.24-1.47-.7-2.03-1.76-2.03h-.48v4.71h-1.23v-10.63ZM147.6,250.96h.51c1.18,0,1.97-.86,1.97-2.16s-.51-2.02-1.84-2.03c-.24,0-.48.02-.64.06v4.13Z"/>
    <path class="cls-1" d="M154.14,245.82v10.79h-1.23v-10.79h1.23Z"/>
    <path class="cls-1" d="M155.85,255.19c.37.24,1.01.43,1.55.43,1.12,0,1.79-.74,1.79-1.83,0-.99-.58-1.6-1.42-2.24-.85-.59-2.03-1.6-2.03-2.99,0-1.63,1.14-2.83,2.85-2.83.67,0,1.26.21,1.52.4l-.3,1.06c-.27-.19-.72-.37-1.28-.37-1.06,0-1.55.8-1.55,1.54,0,1.07.56,1.49,1.58,2.22,1.3.91,1.87,1.9,1.87,3.11,0,1.86-1.31,3.03-3.03,3.03-.74,0-1.52-.24-1.82-.46l.27-1.06Z"/>
    <path class="cls-1" d="M163.1,245.82v10.79h-1.23v-10.79h1.23Z"/>
    <path class="cls-1" d="M164.81,255.19c.37.24,1.01.43,1.55.43,1.12,0,1.79-.74,1.79-1.83,0-.99-.58-1.6-1.42-2.24-.85-.59-2.03-1.6-2.03-2.99,0-1.63,1.14-2.83,2.85-2.83.67,0,1.26.21,1.52.4l-.3,1.06c-.27-.19-.72-.37-1.28-.37-1.06,0-1.55.8-1.55,1.54,0,1.07.56,1.49,1.58,2.22,1.3.91,1.87,1.9,1.87,3.11,0,1.86-1.31,3.03-3.03,3.03-.74,0-1.52-.24-1.82-.46l.27-1.06Z"/>
    <path class="cls-1" d="M177.28,251.49h-2.71v4.05h3.07v1.07h-4.31v-10.79h4.11v1.07h-2.88v3.55h2.71v1.04Z"/>
    <path class="cls-1" d="M183.71,256.42c-.34.18-.86.29-1.54.29-2.11,0-3.62-1.7-3.62-5.36,0-4.26,2.11-5.62,3.81-5.62.66,0,1.12.13,1.34.27l-.27,1.04c-.26-.11-.53-.22-1.09-.22-1.15,0-2.5,1.12-2.5,4.42s1.22,4.39,2.53,4.39c.46,0,.88-.11,1.14-.24l.19,1.04Z"/>
    <path class="cls-1" d="M190.37,251.14c0,4.05-1.39,5.6-3.12,5.6s-2.99-1.9-2.99-5.54,1.28-5.51,3.17-5.51,2.95,2,2.95,5.44ZM185.53,251.22c0,2.22.43,4.43,1.79,4.43s1.76-2.35,1.76-4.47-.37-4.4-1.78-4.4-1.78,2.24-1.78,4.43Z"/>
    <path class="cls-1" d="M191.83,256.61v-10.79h1.17l1.98,5.06c.45,1.15,1.01,2.59,1.38,3.76h.03c-.1-1.7-.14-3.09-.14-4.96v-3.86h1.1v10.79h-1.17l-2.05-5.19c-.43-1.09-.9-2.32-1.28-3.67h-.03c.1,1.44.13,2.82.13,5.12v3.73h-1.12Z"/>
    <path class="cls-1" d="M204.94,251.14c0,4.05-1.39,5.6-3.12,5.6s-2.99-1.9-2.99-5.54,1.28-5.51,3.17-5.51,2.95,2,2.95,5.44ZM200.11,251.22c0,2.22.43,4.43,1.79,4.43s1.76-2.35,1.76-4.47-.37-4.4-1.78-4.4-1.78,2.24-1.78,4.43ZM204.08,243.52l-1.99,1.73h-.98l1.5-1.73h1.46Z"/>
    <path class="cls-1" d="M212.94,251.97c-.08-1.42-.16-3.01-.11-4.23h-.06c-.24,1.2-.53,2.48-.87,3.75l-1.33,5.06h-.78l-1.26-4.85c-.35-1.38-.67-2.71-.88-3.95h-.05c0,1.26-.06,2.77-.13,4.31l-.21,4.56h-1.1l.64-10.79h1.33l1.26,4.93c.37,1.42.64,2.48.86,3.71h.05c.21-1.23.45-2.26.8-3.71l1.22-4.93h1.38l.62,10.79h-1.15l-.22-4.64Z"/>
    <path class="cls-1" d="M217.23,245.82v10.79h-1.23v-10.79h1.23Z"/>
    <path class="cls-1" d="M223.88,256.42c-.34.18-.86.29-1.54.29-2.11,0-3.62-1.7-3.62-5.36,0-4.26,2.11-5.62,3.81-5.62.66,0,1.12.13,1.34.27l-.27,1.04c-.26-.11-.53-.22-1.09-.22-1.15,0-2.5,1.12-2.5,4.42s1.22,4.39,2.53,4.39c.46,0,.88-.11,1.14-.24l.19,1.04Z"/>
    <path class="cls-1" d="M226.54,253.38l-.72,3.23h-1.18l2.46-10.79h1.36l2.4,10.79h-1.22l-.72-3.23h-2.38ZM228.76,252.39l-.56-2.74c-.16-.77-.3-1.66-.43-2.46h-.06c-.13.82-.29,1.74-.43,2.46l-.56,2.74h2.05Z"/>
    <path class="cls-1" d="M231.96,255.19c.37.24,1.01.43,1.55.43,1.12,0,1.79-.74,1.79-1.83,0-.99-.58-1.6-1.42-2.24-.85-.59-2.03-1.6-2.03-2.99,0-1.63,1.14-2.83,2.85-2.83.67,0,1.26.21,1.52.4l-.3,1.06c-.27-.19-.72-.37-1.28-.37-1.06,0-1.55.8-1.55,1.54,0,1.07.56,1.49,1.58,2.22,1.3.91,1.87,1.9,1.87,3.11,0,1.86-1.31,3.03-3.03,3.03-.74,0-1.52-.24-1.82-.46l.27-1.06Z"/>
  </g>
  <rect class="cls-3" x="132.46" y="238.55" width="111.54" height="25.34" rx="7.06" ry="7.06"/>
  <line class="cls-3" x1="188.23" y1="196.66" x2="188.23" y2="238.55"/>
  <g>
    <g>
      <path class="cls-4" d="M166.73,216.14l.73,3.26c.08.4.18.91.25,1.42h.04c.06-.48.16-.97.24-1.42l.72-3.26h.91l-1.51,5.8h-.83l-1.51-5.8h.96Z"/>
      <path class="cls-4" d="M171.43,214.64c.01.36-.22.6-.56.6-.3,0-.53-.24-.53-.6s.24-.6.54-.6c.33,0,.55.24.55.6ZM170.43,221.95v-5.8h.92v5.8h-.92Z"/>
      <path class="cls-4" d="M172.64,217.64c0-.68-.04-1.03-.05-1.5h.8l.05.7h.02c.25-.47.72-.79,1.33-.79.8,0,1.4.6,1.4,2v3.9h-.92v-3.74c0-.68-.13-1.38-.8-1.38-.38,0-.75.32-.88.95-.02.14-.04.32-.04.52v3.66h-.92v-4.31Z"/>
      <path class="cls-4" d="M180.33,221.8c-.2.12-.55.22-.96.22-1.27,0-2.12-1.02-2.12-2.94,0-1.67.84-3.02,2.29-3.02.31,0,.65.08.82.18l-.18.76c-.12-.06-.36-.16-.66-.16-.92,0-1.34,1.1-1.34,2.24,0,1.35.52,2.17,1.37,2.17.25,0,.46-.06.67-.16l.12.71Z"/>
      <path class="cls-4" d="M184.65,220.37c0,.65.04,1.15.05,1.58h-.8l-.06-.61h-.02c-.18.29-.62.71-1.25.71-1.02,0-1.42-.79-1.42-2.23v-3.67h.92v3.54c0,.91.14,1.58.78,1.58.54,0,.78-.5.83-.77.04-.16.05-.34.05-.53v-3.83h.92v4.22Z"/>
      <path class="cls-4" d="M185.95,213.65h.92v8.3h-.92v-8.3Z"/>
      <path class="cls-4" d="M190.53,221.95l-.06-.61h-.04c-.25.44-.66.71-1.15.71-.78,0-1.38-.66-1.38-1.65,0-1.45,1.16-2.1,2.47-2.11v-.18c0-.78-.19-1.32-.92-1.32-.36,0-.68.12-.96.3l-.2-.65c.24-.18.78-.38,1.36-.38,1.16,0,1.67.77,1.67,2.08v2.51c0,.44,0,.95.06,1.32h-.84ZM190.4,218.95c-.48,0-1.6.08-1.6,1.34,0,.76.38,1.03.71,1.03.41,0,.76-.3.86-.88.02-.11.02-.23.02-.32v-1.18Z"/>
      <path class="cls-4" d="M196.1,213.65v6.91c0,.4.04,1.06.05,1.39h-.79l-.06-.73h-.04c-.19.42-.6.83-1.21.83-.98,0-1.69-1.07-1.69-2.97,0-2.06.85-3.02,1.75-3.02.42,0,.83.2,1.06.7h.02v-3.09h.91ZM195.18,218.35c0-.12,0-.25-.01-.38-.06-.6-.42-1.13-.86-1.13-.77,0-1.03,1.07-1.03,2.23,0,1.22.31,2.21.98,2.21.29,0,.68-.16.89-1,.02-.11.04-.24.04-.38v-1.55Z"/>
      <path class="cls-4" d="M199.68,221.95l-.06-.61h-.04c-.25.44-.66.71-1.15.71-.78,0-1.38-.66-1.38-1.65,0-1.45,1.16-2.1,2.47-2.11v-.18c0-.78-.19-1.32-.92-1.32-.36,0-.68.12-.96.3l-.2-.65c.24-.18.78-.38,1.36-.38,1.16,0,1.67.77,1.67,2.08v2.51c0,.44,0,.95.06,1.32h-.84ZM199.55,218.95c-.48,0-1.6.08-1.6,1.34,0,.76.38,1.03.71,1.03.41,0,.76-.3.86-.88.02-.11.02-.23.02-.32v-1.18Z"/>
      <path class="cls-4" d="M201.61,220.99c.2.13.56.3.93.3.53,0,.85-.32.85-.84,0-.44-.16-.74-.74-1.14-.76-.49-1.16-.98-1.16-1.65,0-.94.7-1.61,1.59-1.61.46,0,.8.16,1.04.3l-.25.7c-.22-.14-.47-.25-.77-.25-.5,0-.76.36-.76.73,0,.4.14.61.72,1.01.67.43,1.2.96,1.2,1.76,0,1.16-.79,1.73-1.74,1.73-.43,0-.9-.13-1.15-.34l.23-.7Z"/>
      <path class="cls-4" d="M209.4,221.95l-.06-.61h-.04c-.25.44-.66.71-1.15.71-.78,0-1.38-.66-1.38-1.65,0-1.45,1.16-2.1,2.47-2.11v-.18c0-.78-.19-1.32-.92-1.32-.36,0-.68.12-.96.3l-.2-.65c.24-.18.78-.38,1.36-.38,1.16,0,1.67.77,1.67,2.08v2.51c0,.44,0,.95.06,1.32h-.84ZM209.27,218.95c-.48,0-1.6.08-1.6,1.34,0,.76.38,1.03.71,1.03.41,0,.76-.3.86-.88.02-.11.02-.23.02-.32v-1.18Z"/>
    </g>
    <g>
      <path class="cls-2" d="M166.73,216.14l.73,3.26c.08.4.18.91.25,1.42h.04c.06-.48.16-.97.24-1.42l.72-3.26h.91l-1.51,5.8h-.83l-1.51-5.8h.96Z"/>
      <path class="cls-2" d="M171.43,214.64c.01.36-.22.6-.56.6-.3,0-.53-.24-.53-.6s.24-.6.54-.6c.33,0,.55.24.55.6ZM170.43,221.95v-5.8h.92v5.8h-.92Z"/>
      <path class="cls-2" d="M172.64,217.64c0-.68-.04-1.03-.05-1.5h.8l.05.7h.02c.25-.47.72-.79,1.33-.79.8,0,1.4.6,1.4,2v3.9h-.92v-3.74c0-.68-.13-1.38-.8-1.38-.38,0-.75.32-.88.95-.02.14-.04.32-.04.52v3.66h-.92v-4.31Z"/>
      <path class="cls-2" d="M180.33,221.8c-.2.12-.55.22-.96.22-1.27,0-2.12-1.02-2.12-2.94,0-1.67.84-3.02,2.29-3.02.31,0,.65.08.82.18l-.18.76c-.12-.06-.36-.16-.66-.16-.92,0-1.34,1.1-1.34,2.24,0,1.35.52,2.17,1.37,2.17.25,0,.46-.06.67-.16l.12.71Z"/>
      <path class="cls-2" d="M184.65,220.37c0,.65.04,1.15.05,1.58h-.8l-.06-.61h-.02c-.18.29-.62.71-1.25.71-1.02,0-1.42-.79-1.42-2.23v-3.67h.92v3.54c0,.91.14,1.58.78,1.58.54,0,.78-.5.83-.77.04-.16.05-.34.05-.53v-3.83h.92v4.22Z"/>
      <path class="cls-2" d="M185.95,213.65h.92v8.3h-.92v-8.3Z"/>
      <path class="cls-2" d="M190.53,221.95l-.06-.61h-.04c-.25.44-.66.71-1.15.71-.78,0-1.38-.66-1.38-1.65,0-1.45,1.16-2.1,2.47-2.11v-.18c0-.78-.19-1.32-.92-1.32-.36,0-.68.12-.96.3l-.2-.65c.24-.18.78-.38,1.36-.38,1.16,0,1.67.77,1.67,2.08v2.51c0,.44,0,.95.06,1.32h-.84ZM190.4,218.95c-.48,0-1.6.08-1.6,1.34,0,.76.38,1.03.71,1.03.41,0,.76-.3.86-.88.02-.11.02-.23.02-.32v-1.18Z"/>
      <path class="cls-2" d="M196.1,213.65v6.91c0,.4.04,1.06.05,1.39h-.79l-.06-.73h-.04c-.19.42-.6.83-1.21.83-.98,0-1.69-1.07-1.69-2.97,0-2.06.85-3.02,1.75-3.02.42,0,.83.2,1.06.7h.02v-3.09h.91ZM195.18,218.35c0-.12,0-.25-.01-.38-.06-.6-.42-1.13-.86-1.13-.77,0-1.03,1.07-1.03,2.23,0,1.22.31,2.21.98,2.21.29,0,.68-.16.89-1,.02-.11.04-.24.04-.38v-1.55Z"/>
      <path class="cls-2" d="M199.68,221.95l-.06-.61h-.04c-.25.44-.66.71-1.15.71-.78,0-1.38-.66-1.38-1.65,0-1.45,1.16-2.1,2.47-2.11v-.18c0-.78-.19-1.32-.92-1.32-.36,0-.68.12-.96.3l-.2-.65c.24-.18.78-.38,1.36-.38,1.16,0,1.67.77,1.67,2.08v2.51c0,.44,0,.95.06,1.32h-.84ZM199.55,218.95c-.48,0-1.6.08-1.6,1.34,0,.76.38,1.03.71,1.03.41,0,.76-.3.86-.88.02-.11.02-.23.02-.32v-1.18Z"/>
      <path class="cls-2" d="M201.61,220.99c.2.13.56.3.93.3.53,0,.85-.32.85-.84,0-.44-.16-.74-.74-1.14-.76-.49-1.16-.98-1.16-1.65,0-.94.7-1.61,1.59-1.61.46,0,.8.16,1.04.3l-.25.7c-.22-.14-.47-.25-.77-.25-.5,0-.76.36-.76.73,0,.4.14.61.72,1.01.67.43,1.2.96,1.2,1.76,0,1.16-.79,1.73-1.74,1.73-.43,0-.9-.13-1.15-.34l.23-.7Z"/>
      <path class="cls-2" d="M209.4,221.95l-.06-.61h-.04c-.25.44-.66.71-1.15.71-.78,0-1.38-.66-1.38-1.65,0-1.45,1.16-2.1,2.47-2.11v-.18c0-.78-.19-1.32-.92-1.32-.36,0-.68.12-.96.3l-.2-.65c.24-.18.78-.38,1.36-.38,1.16,0,1.67.77,1.67,2.08v2.51c0,.44,0,.95.06,1.32h-.84ZM209.27,218.95c-.48,0-1.6.08-1.6,1.34,0,.76.38,1.03.71,1.03.41,0,.76-.3.86-.88.02-.11.02-.23.02-.32v-1.18Z"/>
    </g>
    <g>
      <path class="cls-1" d="M166.73,216.14l.73,3.26c.08.4.18.91.25,1.42h.04c.06-.48.16-.97.24-1.42l.72-3.26h.91l-1.51,5.8h-.83l-1.51-5.8h.96Z"/>
      <path class="cls-1" d="M171.43,214.64c.01.36-.22.6-.56.6-.3,0-.53-.24-.53-.6s.24-.6.54-.6c.33,0,.55.24.55.6ZM170.43,221.95v-5.8h.92v5.8h-.92Z"/>
      <path class="cls-1" d="M172.64,217.64c0-.68-.04-1.03-.05-1.5h.8l.05.7h.02c.25-.47.72-.79,1.33-.79.8,0,1.4.6,1.4,2v3.9h-.92v-3.74c0-.68-.13-1.38-.8-1.38-.38,0-.75.32-.88.95-.02.14-.04.32-.04.52v3.66h-.92v-4.31Z"/>
      <path class="cls-1" d="M180.33,221.8c-.2.12-.55.22-.96.22-1.27,0-2.12-1.02-2.12-2.94,0-1.67.84-3.02,2.29-3.02.31,0,.65.08.82.18l-.18.76c-.12-.06-.36-.16-.66-.16-.92,0-1.34,1.1-1.34,2.24,0,1.35.52,2.17,1.37,2.17.25,0,.46-.06.67-.16l.12.71Z"/>
      <path class="cls-1" d="M184.65,220.37c0,.65.04,1.15.05,1.58h-.8l-.06-.61h-.02c-.18.29-.62.71-1.25.71-1.02,0-1.42-.79-1.42-2.23v-3.67h.92v3.54c0,.91.14,1.58.78,1.58.54,0,.78-.5.83-.77.04-.16.05-.34.05-.53v-3.83h.92v4.22Z"/>
      <path class="cls-1" d="M185.95,213.65h.92v8.3h-.92v-8.3Z"/>
      <path class="cls-1" d="M190.53,221.95l-.06-.61h-.04c-.25.44-.66.71-1.15.71-.78,0-1.38-.66-1.38-1.65,0-1.45,1.16-2.1,2.47-2.11v-.18c0-.78-.19-1.32-.92-1.32-.36,0-.68.12-.96.3l-.2-.65c.24-.18.78-.38,1.36-.38,1.16,0,1.67.77,1.67,2.08v2.51c0,.44,0,.95.06,1.32h-.84ZM190.4,218.95c-.48,0-1.6.08-1.6,1.34,0,.76.38,1.03.71,1.03.41,0,.76-.3.86-.88.02-.11.02-.23.02-.32v-1.18Z"/>
      <path class="cls-1" d="M196.1,213.65v6.91c0,.4.04,1.06.05,1.39h-.79l-.06-.73h-.04c-.19.42-.6.83-1.21.83-.98,0-1.69-1.07-1.69-2.97,0-2.06.85-3.02,1.75-3.02.42,0,.83.2,1.06.7h.02v-3.09h.91ZM195.18,218.35c0-.12,0-.25-.01-.38-.06-.6-.42-1.13-.86-1.13-.77,0-1.03,1.07-1.03,2.23,0,1.22.31,2.21.98,2.21.29,0,.68-.16.89-1,.02-.11.04-.24.04-.38v-1.55Z"/>
      <path class="cls-1" d="M199.68,221.95l-.06-.61h-.04c-.25.44-.66.71-1.15.71-.78,0-1.38-.66-1.38-1.65,0-1.45,1.16-2.1,2.47-2.11v-.18c0-.78-.19-1.32-.92-1.32-.36,0-.68.12-.96.3l-.2-.65c.24-.18.78-.38,1.36-.38,1.16,0,1.67.77,1.67,2.08v2.51c0,.44,0,.95.06,1.32h-.84ZM199.55,218.95c-.48,0-1.6.08-1.6,1.34,0,.76.38,1.03.71,1.03.41,0,.76-.3.86-.88.02-.11.02-.23.02-.32v-1.18Z"/>
      <path class="cls-1" d="M201.61,220.99c.2.13.56.3.93.3.53,0,.85-.32.85-.84,0-.44-.16-.74-.74-1.14-.76-.49-1.16-.98-1.16-1.65,0-.94.7-1.61,1.59-1.61.46,0,.8.16,1.04.3l-.25.7c-.22-.14-.47-.25-.77-.25-.5,0-.76.36-.76.73,0,.4.14.61.72,1.01.67.43,1.2.96,1.2,1.76,0,1.16-.79,1.73-1.74,1.73-.43,0-.9-.13-1.15-.34l.23-.7Z"/>
      <path class="cls-1" d="M209.4,221.95l-.06-.61h-.04c-.25.44-.66.71-1.15.71-.78,0-1.38-.66-1.38-1.65,0-1.45,1.16-2.1,2.47-2.11v-.18c0-.78-.19-1.32-.92-1.32-.36,0-.68.12-.96.3l-.2-.65c.24-.18.78-.38,1.36-.38,1.16,0,1.67.77,1.67,2.08v2.51c0,.44,0,.95.06,1.32h-.84ZM209.27,218.95c-.48,0-1.6.08-1.6,1.34,0,.76.38,1.03.71,1.03.41,0,.76-.3.86-.88.02-.11.02-.23.02-.32v-1.18Z"/>
    </g>
  </g>
  <g>
    <path class="cls-1" d="M134.49,76.01h1.23v9.75h3.04v1.04h-4.27v-10.79Z"/>
    <path class="cls-1" d="M141.23,76.01v10.79h-1.23v-10.79h1.23Z"/>
    <path class="cls-1" d="M143.18,76.17c.51-.13,1.12-.21,1.81-.21.98,0,1.81.21,2.38.75.46.43.7,1.07.7,1.84,0,1.1-.61,1.98-1.67,2.4v.03c1.25.34,2,1.34,2,2.75,0,.9-.29,1.62-.77,2.14-.61.69-1.62.98-2.85.98-.8,0-1.28-.05-1.62-.11v-10.58ZM144.41,80.58h.56c1.01,0,1.87-.77,1.87-1.9,0-.99-.46-1.76-1.78-1.76-.29,0-.51.03-.66.08v3.59ZM144.41,85.82c.14.03.35.06.62.06,1.28,0,2.11-.75,2.11-2.14,0-1.49-1.04-2.19-2.19-2.21h-.54v4.29Z"/>
    <path class="cls-1" d="M149.84,76.17c.53-.14,1.17-.21,1.78-.21,1.07,0,1.87.22,2.43.77.53.54.75,1.26.75,2.11,0,1.38-.64,2.27-1.73,2.77v.03c.8.24,1.22,1.01,1.46,2.42.24,1.49.46,2.4.61,2.74h-1.25c-.16-.32-.37-1.34-.58-2.67-.24-1.47-.7-2.03-1.76-2.03h-.48v4.71h-1.23v-10.63ZM151.07,81.14h.51c1.18,0,1.97-.86,1.97-2.16s-.51-2.02-1.84-2.03c-.24,0-.48.02-.64.06v4.13Z"/>
    <path class="cls-1" d="M160.32,81.67h-2.71v4.05h3.07v1.07h-4.31v-10.79h4.11v1.07h-2.88v3.55h2.71v1.04Z"/>
    <path class="cls-1" d="M171.09,82.15c-.08-1.42-.16-3.01-.11-4.23h-.06c-.24,1.2-.53,2.48-.87,3.75l-1.33,5.06h-.78l-1.26-4.85c-.35-1.38-.67-2.71-.88-3.95h-.05c0,1.26-.06,2.77-.13,4.31l-.21,4.56h-1.1l.64-10.79h1.33l1.26,4.93c.37,1.42.64,2.48.86,3.71h.05c.21-1.23.45-2.26.8-3.71l1.22-4.93h1.38l.62,10.79h-1.15l-.22-4.64Z"/>
    <path class="cls-1" d="M175.32,83.56l-.72,3.23h-1.18l2.46-10.79h1.36l2.4,10.79h-1.22l-.72-3.23h-2.38ZM177.55,82.57l-.56-2.74c-.16-.77-.3-1.66-.43-2.46h-.06c-.13.82-.29,1.74-.43,2.46l-.56,2.74h2.05Z"/>
    <path class="cls-1" d="M180.99,86.79v-10.79h1.17l1.98,5.06c.45,1.15,1.01,2.59,1.38,3.76h.03c-.1-1.7-.14-3.09-.14-4.96v-3.86h1.1v10.79h-1.17l-2.05-5.19c-.43-1.09-.9-2.32-1.28-3.67h-.03c.1,1.44.13,2.82.13,5.12v3.73h-1.12Z"/>
    <path class="cls-1" d="M189.66,76.01v10.79h-1.23v-10.79h1.23Z"/>
    <path class="cls-1" d="M191.61,76.01h4.11v1.07h-2.88v3.78h2.69v1.04h-2.69v4.9h-1.23v-10.79Z"/>
    <path class="cls-1" d="M201.07,81.67h-2.71v4.05h3.07v1.07h-4.31v-10.79h4.11v1.07h-2.88v3.55h2.71v1.04Z"/>
    <path class="cls-1" d="M202.55,85.37c.37.24,1.01.43,1.55.43,1.12,0,1.79-.74,1.79-1.83,0-.99-.58-1.6-1.42-2.24-.85-.59-2.03-1.6-2.03-2.99,0-1.63,1.14-2.83,2.85-2.83.67,0,1.26.21,1.52.4l-.3,1.06c-.27-.19-.72-.37-1.28-.37-1.06,0-1.55.8-1.55,1.54,0,1.07.56,1.49,1.58,2.22,1.3.91,1.87,1.9,1.87,3.11,0,1.86-1.31,3.03-3.03,3.03-.74,0-1.52-.24-1.82-.46l.27-1.06Z"/>
    <path class="cls-1" d="M209.83,77.11h-1.97v-1.1h5.17v1.1h-1.97v9.68h-1.23v-9.68Z"/>
    <path class="cls-1" d="M214.81,83.56l-.72,3.23h-1.18l2.46-10.79h1.36l2.4,10.79h-1.22l-.72-3.23h-2.38ZM217.04,82.57l-.56-2.74c-.16-.77-.3-1.66-.43-2.46h-.06c-.13.82-.29,1.74-.43,2.46l-.56,2.74h2.05Z"/>
    <path class="cls-1" d="M224.86,86.6c-.34.18-.86.29-1.54.29-2.11,0-3.62-1.7-3.62-5.36,0-4.26,2.11-5.62,3.81-5.62.66,0,1.12.13,1.34.27l-.27,1.04c-.26-.11-.53-.22-1.09-.22-1.15,0-2.5,1.12-2.5,4.42s1.22,4.39,2.53,4.39c.46,0,.88-.11,1.14-.24l.19,1.04Z"/>
    <path class="cls-1" d="M227.36,76.01v10.79h-1.23v-10.79h1.23Z"/>
    <path class="cls-1" d="M234.97,81.32c0,4.05-1.39,5.6-3.12,5.6s-2.99-1.9-2.99-5.54,1.28-5.51,3.17-5.51,2.95,2,2.95,5.44ZM230.14,81.4c0,2.22.43,4.43,1.79,4.43s1.76-2.35,1.76-4.47-.37-4.4-1.78-4.4-1.78,2.24-1.78,4.43ZM234.11,73.7l-1.99,1.73h-.98l1.5-1.73h1.46Z"/>
    <path class="cls-1" d="M236.44,86.79v-10.79h1.17l1.98,5.06c.45,1.15,1.01,2.59,1.38,3.76h.03c-.1-1.7-.14-3.09-.14-4.96v-3.86h1.1v10.79h-1.17l-2.05-5.19c-.43-1.09-.9-2.32-1.28-3.67h-.03c.1,1.44.13,2.82.13,5.12v3.73h-1.12Z"/>
  </g>
  <rect class="cls-3" x="125.77" y="68.73" width="124.92" height="25.34" rx="7.06" ry="7.06"/>
  <line class="cls-3" x1="188.23" y1="26.84" x2="188.23" y2="68.73"/>
  <g>
    <g>
      <path class="cls-4" d="M181.34,49.31c.01,1.77.71,2.16,1.38,2.16.4,0,.73-.1.96-.23l.14.68c-.32.18-.82.28-1.27.28-1.39,0-2.11-1.14-2.11-2.91,0-1.88.79-3.06,1.96-3.06s1.66,1.25,1.66,2.57c0,.22,0,.37-.01.52h-2.7ZM183.16,48.63c.02-1.16-.42-1.68-.86-1.68-.6,0-.91.89-.95,1.68h1.81Z"/>
      <path class="cls-4" d="M184.89,51.17c.2.13.56.3.93.3.53,0,.85-.32.85-.84,0-.44-.16-.74-.74-1.14-.76-.49-1.16-.98-1.16-1.65,0-.94.7-1.61,1.59-1.61.46,0,.8.16,1.04.3l-.25.7c-.22-.14-.47-.25-.77-.25-.5,0-.76.36-.76.73,0,.4.14.61.72,1.01.67.43,1.2.96,1.2,1.76,0,1.16-.79,1.73-1.74,1.73-.43,0-.9-.13-1.15-.34l.23-.7Z"/>
      <path class="cls-4" d="M190.4,43.83h.92v8.3h-.92v-8.3Z"/>
      <path class="cls-4" d="M194.98,52.13l-.06-.61h-.04c-.25.44-.66.71-1.15.71-.78,0-1.38-.66-1.38-1.65,0-1.45,1.16-2.1,2.47-2.11v-.18c0-.78-.19-1.32-.92-1.32-.36,0-.68.12-.96.3l-.2-.65c.24-.18.78-.38,1.36-.38,1.16,0,1.67.77,1.67,2.08v2.51c0,.44,0,.95.06,1.32h-.84ZM194.85,49.13c-.48,0-1.6.08-1.6,1.34,0,.76.38,1.03.71,1.03.41,0,.76-.3.86-.88.02-.11.02-.23.02-.32v-1.18Z"/>
    </g>
    <g>
      <path class="cls-2" d="M181.34,49.31c.01,1.77.71,2.16,1.38,2.16.4,0,.73-.1.96-.23l.14.68c-.32.18-.82.28-1.27.28-1.39,0-2.11-1.14-2.11-2.91,0-1.88.79-3.06,1.96-3.06s1.66,1.25,1.66,2.57c0,.22,0,.37-.01.52h-2.7ZM183.16,48.63c.02-1.16-.42-1.68-.86-1.68-.6,0-.91.89-.95,1.68h1.81Z"/>
      <path class="cls-2" d="M184.89,51.17c.2.13.56.3.93.3.53,0,.85-.32.85-.84,0-.44-.16-.74-.74-1.14-.76-.49-1.16-.98-1.16-1.65,0-.94.7-1.61,1.59-1.61.46,0,.8.16,1.04.3l-.25.7c-.22-.14-.47-.25-.77-.25-.5,0-.76.36-.76.73,0,.4.14.61.72,1.01.67.43,1.2.96,1.2,1.76,0,1.16-.79,1.73-1.74,1.73-.43,0-.9-.13-1.15-.34l.23-.7Z"/>
      <path class="cls-2" d="M190.4,43.83h.92v8.3h-.92v-8.3Z"/>
      <path class="cls-2" d="M194.98,52.13l-.06-.61h-.04c-.25.44-.66.71-1.15.71-.78,0-1.38-.66-1.38-1.65,0-1.45,1.16-2.1,2.47-2.11v-.18c0-.78-.19-1.32-.92-1.32-.36,0-.68.12-.96.3l-.2-.65c.24-.18.78-.38,1.36-.38,1.16,0,1.67.77,1.67,2.08v2.51c0,.44,0,.95.06,1.32h-.84ZM194.85,49.13c-.48,0-1.6.08-1.6,1.34,0,.76.38,1.03.71,1.03.41,0,.76-.3.86-.88.02-.11.02-.23.02-.32v-1.18Z"/>
    </g>
    <g>
      <path class="cls-1" d="M181.34,49.31c.01,1.77.71,2.16,1.38,2.16.4,0,.73-.1.96-.23l.14.68c-.32.18-.82.28-1.27.28-1.39,0-2.11-1.14-2.11-2.91,0-1.88.79-3.06,1.96-3.06s1.66,1.25,1.66,2.57c0,.22,0,.37-.01.52h-2.7ZM183.16,48.63c.02-1.16-.42-1.68-.86-1.68-.6,0-.91.89-.95,1.68h1.81Z"/>
      <path class="cls-1" d="M184.89,51.17c.2.13.56.3.93.3.53,0,.85-.32.85-.84,0-.44-.16-.74-.74-1.14-.76-.49-1.16-.98-1.16-1.65,0-.94.7-1.61,1.59-1.61.46,0,.8.16,1.04.3l-.25.7c-.22-.14-.47-.25-.77-.25-.5,0-.76.36-.76.73,0,.4.14.61.72,1.01.67.43,1.2.96,1.2,1.76,0,1.16-.79,1.73-1.74,1.73-.43,0-.9-.13-1.15-.34l.23-.7Z"/>
      <path class="cls-1" d="M190.4,43.83h.92v8.3h-.92v-8.3Z"/>
      <path class="cls-1" d="M194.98,52.13l-.06-.61h-.04c-.25.44-.66.71-1.15.71-.78,0-1.38-.66-1.38-1.65,0-1.45,1.16-2.1,2.47-2.11v-.18c0-.78-.19-1.32-.92-1.32-.36,0-.68.12-.96.3l-.2-.65c.24-.18.78-.38,1.36-.38,1.16,0,1.67.77,1.67,2.08v2.51c0,.44,0,.95.06,1.32h-.84ZM194.85,49.13c-.48,0-1.6.08-1.6,1.34,0,.76.38,1.03.71,1.03.41,0,.76-.3.86-.88.02-.11.02-.23.02-.32v-1.18Z"/>
    </g>
  </g>
  <line class="cls-3" x1="188.23" y1="94.07" x2="188.23" y2="135.97"/>
  <g>
    <g>
      <path class="cls-4" d="M187.79,111.07v6.91c0,.4.04,1.06.05,1.39h-.79l-.06-.73h-.04c-.19.42-.6.83-1.21.83-.98,0-1.69-1.07-1.69-2.97,0-2.06.85-3.02,1.75-3.02.42,0,.83.2,1.06.7h.02v-3.09h.91ZM186.88,115.77c0-.12,0-.25-.01-.38-.06-.6-.42-1.13-.86-1.13-.77,0-1.03,1.07-1.03,2.23,0,1.22.31,2.21.98,2.21.29,0,.68-.16.89-1,.02-.11.04-.24.04-.38v-1.55Z"/>
      <path class="cls-4" d="M189.74,116.55c.01,1.77.71,2.16,1.38,2.16.4,0,.73-.1.96-.23l.14.68c-.32.18-.82.28-1.27.28-1.39,0-2.11-1.14-2.11-2.91,0-1.88.79-3.06,1.96-3.06s1.66,1.25,1.66,2.57c0,.22,0,.37-.01.52h-2.7ZM191.56,115.87c.02-1.16-.42-1.68-.86-1.68-.6,0-.91.89-.95,1.68h1.81Z"/>
    </g>
    <g>
      <path class="cls-2" d="M187.79,111.07v6.91c0,.4.04,1.06.05,1.39h-.79l-.06-.73h-.04c-.19.42-.6.83-1.21.83-.98,0-1.69-1.07-1.69-2.97,0-2.06.85-3.02,1.75-3.02.42,0,.83.2,1.06.7h.02v-3.09h.91ZM186.88,115.77c0-.12,0-.25-.01-.38-.06-.6-.42-1.13-.86-1.13-.77,0-1.03,1.07-1.03,2.23,0,1.22.31,2.21.98,2.21.29,0,.68-.16.89-1,.02-.11.04-.24.04-.38v-1.55Z"/>
      <path class="cls-2" d="M189.74,116.55c.01,1.77.71,2.16,1.38,2.16.4,0,.73-.1.96-.23l.14.68c-.32.18-.82.28-1.27.28-1.39,0-2.11-1.14-2.11-2.91,0-1.88.79-3.06,1.96-3.06s1.66,1.25,1.66,2.57c0,.22,0,.37-.01.52h-2.7ZM191.56,115.87c.02-1.16-.42-1.68-.86-1.68-.6,0-.91.89-.95,1.68h1.81Z"/>
    </g>
    <g>
      <path class="cls-1" d="M187.79,111.07v6.91c0,.4.04,1.06.05,1.39h-.79l-.06-.73h-.04c-.19.42-.6.83-1.21.83-.98,0-1.69-1.07-1.69-2.97,0-2.06.85-3.02,1.75-3.02.42,0,.83.2,1.06.7h.02v-3.09h.91ZM186.88,115.77c0-.12,0-.25-.01-.38-.06-.6-.42-1.13-.86-1.13-.77,0-1.03,1.07-1.03,2.23,0,1.22.31,2.21.98,2.21.29,0,.68-.16.89-1,.02-.11.04-.24.04-.38v-1.55Z"/>
      <path class="cls-1" d="M189.74,116.55c.01,1.77.71,2.16,1.38,2.16.4,0,.73-.1.96-.23l.14.68c-.32.18-.82.28-1.27.28-1.39,0-2.11-1.14-2.11-2.91,0-1.88.79-3.06,1.96-3.06s1.66,1.25,1.66,2.57c0,.22,0,.37-.01.52h-2.7ZM191.56,115.87c.02-1.16-.42-1.68-.86-1.68-.6,0-.91.89-.95,1.68h1.81Z"/>
    </g>
  </g>
  <g>
    <path class="cls-1" d="M246.06,170.28c.37.24,1.01.43,1.55.43,1.12,0,1.79-.74,1.79-1.83,0-.99-.58-1.6-1.42-2.24-.85-.59-2.03-1.6-2.03-2.99,0-1.63,1.14-2.83,2.85-2.83.67,0,1.26.21,1.52.4l-.3,1.06c-.27-.19-.72-.37-1.28-.37-1.06,0-1.55.8-1.55,1.54,0,1.07.56,1.49,1.58,2.22,1.3.91,1.87,1.9,1.87,3.11,0,1.86-1.31,3.03-3.03,3.03-.74,0-1.52-.24-1.82-.46l.27-1.06Z"/>
    <path class="cls-1" d="M256.01,166.58h-2.71v4.05h3.07v1.07h-4.31v-10.79h4.11v1.07h-2.88v3.55h2.71v1.04Z"/>
    <path class="cls-1" d="M257.74,171.7v-10.79h1.17l1.98,5.06c.45,1.15,1.01,2.59,1.38,3.76h.03c-.1-1.7-.14-3.09-.14-4.96v-3.86h1.1v10.79h-1.17l-2.05-5.19c-.43-1.09-.9-2.32-1.28-3.67h-.03c.1,1.44.13,2.82.13,5.12v3.73h-1.12Z"/>
    <path class="cls-1" d="M264.94,170.28c.37.24,1.01.43,1.55.43,1.12,0,1.79-.74,1.79-1.83,0-.99-.58-1.6-1.42-2.24-.85-.59-2.03-1.6-2.03-2.99,0-1.63,1.14-2.83,2.85-2.83.67,0,1.26.21,1.52.4l-.3,1.06c-.27-.19-.72-.37-1.28-.37-1.06,0-1.55.8-1.55,1.54,0,1.07.56,1.49,1.58,2.22,1.3.91,1.87,1.9,1.87,3.11,0,1.86-1.31,3.03-3.03,3.03-.74,0-1.52-.24-1.82-.46l.27-1.06Z"/>
    <path class="cls-1" d="M272.25,168.47l-.72,3.23h-1.18l2.46-10.79h1.36l2.4,10.79h-1.22l-.72-3.23h-2.38ZM274.48,167.48l-.56-2.74c-.16-.77-.3-1.66-.43-2.46h-.06c-.13.82-.29,1.74-.43,2.46l-.56,2.74h2.05Z"/>
    <path class="cls-1" d="M282.3,171.51c-.34.18-.86.29-1.54.29-2.11,0-3.62-1.7-3.62-5.36,0-4.26,2.11-5.62,3.81-5.62.66,0,1.12.13,1.34.27l-.27,1.04c-.26-.11-.53-.22-1.09-.22-1.15,0-2.5,1.12-2.5,4.42s1.22,4.39,2.53,4.39c.46,0,.88-.11,1.14-.24l.19,1.04Z"/>
    <path class="cls-1" d="M284.8,160.91v10.79h-1.23v-10.79h1.23Z"/>
    <path class="cls-1" d="M292.41,166.23c0,4.05-1.39,5.6-3.12,5.6s-2.99-1.9-2.99-5.54,1.28-5.51,3.17-5.51,2.95,2,2.95,5.44ZM287.58,166.31c0,2.22.43,4.43,1.79,4.43s1.76-2.35,1.76-4.47-.37-4.4-1.78-4.4-1.78,2.24-1.78,4.43Z"/>
    <path class="cls-1" d="M293.88,171.7v-10.79h1.17l1.98,5.06c.45,1.15,1.01,2.59,1.38,3.76h.03c-.1-1.7-.14-3.09-.14-4.96v-3.86h1.1v10.79h-1.17l-2.05-5.19c-.43-1.09-.9-2.32-1.28-3.67h-.03c.1,1.44.13,2.82.13,5.12v3.73h-1.12Z"/>
    <path class="cls-1" d="M305.26,166.58h-2.71v4.05h3.07v1.07h-4.31v-10.79h4.11v1.07h-2.88v3.55h2.71v1.04Z"/>
    <path class="cls-1" d="M306.75,170.28c.37.24,1.01.43,1.55.43,1.12,0,1.79-.74,1.79-1.83,0-.99-.58-1.6-1.42-2.24-.85-.59-2.03-1.6-2.03-2.99,0-1.63,1.14-2.83,2.85-2.83.67,0,1.26.21,1.52.4l-.3,1.06c-.27-.19-.72-.37-1.28-.37-1.06,0-1.55.8-1.55,1.54,0,1.07.56,1.49,1.58,2.22,1.3.91,1.87,1.9,1.87,3.11,0,1.86-1.31,3.03-3.03,3.03-.74,0-1.52-.24-1.82-.46l.27-1.06Z"/>
  </g>
  <rect class="cls-3" x="238.12" y="153.64" width="80.91" height="25.34" rx="7.06" ry="7.06"/>
  <g>
    <path class="cls-1" d="M61.64,170.28c.37.24,1.01.43,1.55.43,1.12,0,1.79-.74,1.79-1.83,0-.99-.58-1.6-1.42-2.24-.85-.59-2.03-1.6-2.03-2.99,0-1.63,1.14-2.83,2.85-2.83.67,0,1.26.21,1.52.4l-.3,1.06c-.27-.19-.72-.37-1.28-.37-1.06,0-1.55.8-1.55,1.54,0,1.07.56,1.49,1.58,2.22,1.3.91,1.87,1.9,1.87,3.11,0,1.86-1.31,3.03-3.03,3.03-.74,0-1.52-.24-1.82-.46l.27-1.06Z"/>
    <path class="cls-1" d="M71.6,166.58h-2.71v4.05h3.07v1.07h-4.31v-10.79h4.11v1.07h-2.88v3.55h2.71v1.04Z"/>
    <path class="cls-1" d="M73.32,171.7v-10.79h1.17l1.98,5.06c.45,1.15,1.01,2.59,1.38,3.76h.03c-.1-1.7-.14-3.09-.14-4.96v-3.86h1.1v10.79h-1.17l-2.05-5.19c-.43-1.09-.9-2.32-1.28-3.67h-.03c.1,1.44.13,2.82.13,5.12v3.73h-1.12Z"/>
    <path class="cls-1" d="M82.03,162.02h-1.97v-1.1h5.17v1.1h-1.97v9.68h-1.23v-9.68Z"/>
    <path class="cls-1" d="M87.66,160.91v10.79h-1.23v-10.79h1.23Z"/>
    <path class="cls-1" d="M96.14,167.06c-.08-1.42-.16-3.01-.11-4.23h-.06c-.24,1.2-.53,2.48-.87,3.75l-1.33,5.06h-.78l-1.26-4.85c-.35-1.38-.67-2.71-.88-3.95h-.05c0,1.26-.06,2.77-.13,4.31l-.21,4.56h-1.1l.64-10.79h1.33l1.26,4.93c.37,1.42.64,2.48.86,3.71h.05c.21-1.23.45-2.26.8-3.71l1.22-4.93h1.38l.62,10.79h-1.15l-.22-4.64Z"/>
    <path class="cls-1" d="M100.43,160.91v10.79h-1.23v-10.79h1.23Z"/>
    <path class="cls-1" d="M106.32,166.58h-2.71v4.05h3.07v1.07h-4.31v-10.79h4.11v1.07h-2.88v3.55h2.71v1.04Z"/>
    <path class="cls-1" d="M108.04,171.7v-10.79h1.17l1.98,5.06c.45,1.15,1.01,2.59,1.38,3.76h.03c-.1-1.7-.14-3.09-.14-4.96v-3.86h1.1v10.79h-1.17l-2.05-5.19c-.43-1.09-.9-2.32-1.28-3.67h-.03c.1,1.44.13,2.82.13,5.12v3.73h-1.12Z"/>
    <path class="cls-1" d="M116.75,162.02h-1.97v-1.1h5.17v1.1h-1.97v9.68h-1.23v-9.68Z"/>
    <path class="cls-1" d="M126.3,166.23c0,4.05-1.39,5.6-3.12,5.6s-2.99-1.9-2.99-5.54,1.28-5.51,3.17-5.51,2.95,2,2.95,5.44ZM121.47,166.31c0,2.22.43,4.43,1.79,4.43s1.76-2.35,1.76-4.47-.37-4.4-1.78-4.4-1.78,2.24-1.78,4.43Z"/>
    <path class="cls-1" d="M127.53,170.28c.37.24,1.01.43,1.55.43,1.12,0,1.79-.74,1.79-1.83,0-.99-.58-1.6-1.42-2.24-.85-.59-2.03-1.6-2.03-2.99,0-1.63,1.14-2.83,2.85-2.83.67,0,1.26.21,1.52.4l-.3,1.06c-.27-.19-.72-.37-1.28-.37-1.06,0-1.55.8-1.55,1.54,0,1.07.56,1.49,1.58,2.22,1.3.91,1.87,1.9,1.87,3.11,0,1.86-1.31,3.03-3.03,3.03-.74,0-1.52-.24-1.82-.46l.27-1.06Z"/>
  </g>
  <rect class="cls-3" x="54.02" y="153.64" width="85.47" height="25.34" rx="7.06" ry="7.06"/>
  <g>
    <path class="cls-1" d="M176.03,160.91v10.79h-1.23v-10.79h1.23Z"/>
    <path class="cls-1" d="M177.98,161.07c.48-.14,1.04-.21,1.67-.21,1.14,0,1.94.29,2.53.82.83.72,1.46,2.11,1.46,4.37,0,2.47-.61,3.81-1.3,4.55-.71.8-1.73,1.17-2.98,1.17-.5,0-1.01-.03-1.38-.11v-10.58ZM179.21,170.69c.18.03.35.03.46.03,1.36,0,2.67-.98,2.67-4.64,0-2.72-.83-4.21-2.56-4.21-.19,0-.42.02-.58.06v8.76Z"/>
    <path class="cls-1" d="M189.04,166.58h-2.71v4.05h3.07v1.07h-4.31v-10.79h4.11v1.07h-2.88v3.55h2.71v1.04Z"/>
    <path class="cls-1" d="M192.06,168.47l-.72,3.23h-1.18l2.46-10.79h1.36l2.4,10.79h-1.22l-.72-3.23h-2.38ZM194.28,167.48l-.56-2.74c-.16-.77-.3-1.66-.43-2.46h-.06c-.13.82-.29,1.74-.43,2.46l-.56,2.74h2.05Z"/>
    <path class="cls-1" d="M197.48,170.28c.37.24,1.01.43,1.55.43,1.12,0,1.79-.74,1.79-1.83,0-.99-.58-1.6-1.42-2.24-.85-.59-2.03-1.6-2.03-2.99,0-1.63,1.14-2.83,2.85-2.83.67,0,1.26.21,1.52.4l-.3,1.06c-.27-.19-.72-.37-1.28-.37-1.06,0-1.55.8-1.55,1.54,0,1.07.56,1.49,1.58,2.22,1.3.91,1.87,1.9,1.87,3.11,0,1.86-1.31,3.03-3.03,3.03-.74,0-1.52-.24-1.82-.46l.27-1.06Z"/>
  </g>
  <rect class="cls-3" x="165.83" y="153.64" width="44.73" height="25.34" rx="7.06" ry="7.06"/>
  <path class="cls-3" d="M96.76,153.15v-8.24c0-4.93,4-8.93,8.93-8.93h163.95c4.93,0,8.93,4,8.93,8.93v8.24"/>
  <line class="cls-3" x1="188.19" y1="153.64" x2="188.19" y2="135.97"/>
  <path class="cls-3" d="M96.76,179.48v8.24c0,4.93,4,8.93,8.93,8.93h163.95c4.93,0,8.93-4,8.93-8.93v-8.24"/>
  <line class="cls-3" x1="188.19" y1="178.98" x2="188.19" y2="196.66"/>
  <line class="cls-3" x1="188.23" y1="263.89" x2="188.23" y2="305.79"/>
  <g>
    <g>
      <path class="cls-4" d="M147.91,283.38l.77,3.33c.11.46.17.84.24,1.2h.02c.06-.32.16-.77.25-1.19l.68-3.35h.91l-.95,3.73c-.36,1.46-.76,2.87-1.44,3.74-.41.52-.84.79-1.04.89l-.34-.79c.26-.14.55-.4.82-.73.24-.3.43-.7.53-.97.05-.14.06-.2.06-.29,0-.07,0-.14-.02-.22l-1.46-5.36h.97Z"/>
      <path class="cls-4" d="M153.31,288.23c.2.13.56.3.93.3.53,0,.85-.32.85-.84,0-.44-.16-.74-.74-1.14-.76-.49-1.16-.98-1.16-1.65,0-.94.7-1.61,1.59-1.61.46,0,.8.16,1.04.3l-.25.7c-.22-.14-.47-.25-.77-.25-.5,0-.76.36-.76.73,0,.4.14.61.72,1.01.67.43,1.2.96,1.2,1.76,0,1.16-.79,1.73-1.74,1.73-.43,0-.9-.13-1.15-.34l.23-.7Z"/>
      <path class="cls-4" d="M160.41,287.6c0,.65.04,1.15.05,1.58h-.8l-.06-.61h-.02c-.18.29-.62.71-1.25.71-1.02,0-1.42-.79-1.42-2.23v-3.67h.92v3.54c0,.91.14,1.58.78,1.58.54,0,.78-.5.83-.77.04-.16.05-.34.05-.53v-3.83h.92v4.22Z"/>
      <path class="cls-4" d="M161.55,288.23c.2.13.56.3.93.3.53,0,.85-.32.85-.84,0-.44-.16-.74-.74-1.14-.76-.49-1.16-.98-1.16-1.65,0-.94.7-1.61,1.59-1.61.46,0,.8.16,1.04.3l-.25.7c-.22-.14-.47-.25-.77-.25-.5,0-.76.36-.76.73,0,.4.14.61.72,1.01.67.43,1.2.96,1.2,1.76,0,1.16-.79,1.73-1.74,1.73-.43,0-.9-.13-1.15-.34l.23-.7Z"/>
      <path class="cls-4" d="M169.89,289.04c-.2.12-.55.22-.96.22-1.27,0-2.12-1.02-2.12-2.94,0-1.67.84-3.02,2.29-3.02.31,0,.65.08.82.18l-.18.76c-.12-.06-.36-.16-.66-.16-.92,0-1.34,1.1-1.34,2.24,0,1.35.52,2.17,1.37,2.17.25,0,.46-.06.67-.16l.12.71Z"/>
      <path class="cls-4" d="M174.17,286.28c0,2.24-1.04,3-1.93,3-1.04,0-1.88-.95-1.88-2.99s.95-3.01,1.94-3.01,1.87.97,1.87,3ZM171.28,286.28c0,.96.17,2.27,1.01,2.27.79,0,.95-1.37.95-2.27s-.16-2.25-.97-2.25-.98,1.37-.98,2.25Z"/>
      <path class="cls-4" d="M175.21,284.88c0-.68-.04-1.03-.05-1.5h.8l.05.7h.02c.25-.47.72-.79,1.33-.79.8,0,1.4.6,1.4,2v3.9h-.92v-3.74c0-.68-.13-1.38-.8-1.38-.38,0-.76.32-.88.95-.02.14-.04.32-.04.52v3.66h-.92v-4.31Z"/>
      <path class="cls-4" d="M179.91,288.23c.2.13.56.3.93.3.53,0,.85-.32.85-.84,0-.44-.16-.74-.74-1.14-.76-.49-1.16-.98-1.16-1.65,0-.94.7-1.61,1.59-1.61.46,0,.8.16,1.04.3l-.25.7c-.22-.14-.47-.25-.77-.25-.5,0-.76.36-.76.73,0,.4.14.61.72,1.01.67.43,1.2.96,1.2,1.76,0,1.16-.79,1.73-1.74,1.73-.43,0-.9-.13-1.15-.34l.23-.7Z"/>
      <path class="cls-4" d="M184.18,286.37c.01,1.77.71,2.16,1.38,2.16.4,0,.73-.1.96-.23l.14.68c-.32.18-.82.28-1.27.28-1.39,0-2.11-1.14-2.11-2.91,0-1.88.79-3.06,1.96-3.06s1.66,1.25,1.66,2.57c0,.22,0,.37-.01.52h-2.7ZM186,285.68c.02-1.16-.42-1.68-.86-1.68-.6,0-.91.89-.95,1.68h1.81Z"/>
      <path class="cls-4" d="M190.72,289.04c-.2.12-.55.22-.96.22-1.27,0-2.12-1.02-2.12-2.94,0-1.67.84-3.02,2.29-3.02.31,0,.65.08.82.18l-.18.76c-.12-.06-.36-.16-.66-.16-.92,0-1.34,1.1-1.34,2.24,0,1.35.52,2.17,1.37,2.17.25,0,.46-.06.67-.16l.12.71Z"/>
      <path class="cls-4" d="M195.04,287.6c0,.65.04,1.15.05,1.58h-.8l-.06-.61h-.02c-.18.29-.62.71-1.25.71-1.02,0-1.42-.79-1.42-2.23v-3.67h.92v3.54c0,.91.14,1.58.78,1.58.54,0,.78-.5.83-.77.04-.16.05-.34.05-.53v-3.83h.92v4.22Z"/>
      <path class="cls-4" d="M196.98,286.37c.01,1.77.71,2.16,1.38,2.16.4,0,.73-.1.96-.23l.14.68c-.32.18-.82.28-1.27.28-1.39,0-2.11-1.14-2.11-2.91,0-1.88.79-3.06,1.96-3.06s1.66,1.25,1.66,2.57c0,.22,0,.37-.01.52h-2.7ZM198.81,285.68c.02-1.16-.42-1.68-.86-1.68-.6,0-.91.89-.95,1.68h1.81Z"/>
      <path class="cls-4" d="M200.69,284.88c0-.68-.04-1.03-.05-1.5h.8l.05.7h.02c.25-.47.72-.79,1.33-.79.8,0,1.4.6,1.4,2v3.9h-.92v-3.74c0-.68-.13-1.38-.8-1.38-.38,0-.75.32-.88.95-.02.14-.04.32-.04.52v3.66h-.92v-4.31Z"/>
      <path class="cls-4" d="M208.38,289.04c-.2.12-.55.22-.96.22-1.27,0-2.12-1.02-2.12-2.94,0-1.67.84-3.02,2.29-3.02.31,0,.65.08.82.18l-.18.76c-.12-.06-.36-.16-.66-.16-.92,0-1.34,1.1-1.34,2.24,0,1.35.52,2.17,1.37,2.17.25,0,.46-.06.67-.16l.12.71Z"/>
      <path class="cls-4" d="M210.17,281.88c.01.36-.22.6-.56.6-.3,0-.53-.24-.53-.6s.24-.6.54-.6c.33,0,.55.24.55.6ZM209.18,289.18v-5.8h.92v5.8h-.92Z"/>
      <path class="cls-4" d="M213.68,289.18l-.06-.61h-.04c-.25.44-.66.71-1.15.71-.78,0-1.38-.66-1.38-1.65,0-1.45,1.16-2.1,2.47-2.11v-.18c0-.78-.19-1.32-.92-1.32-.36,0-.68.12-.96.3l-.2-.65c.24-.18.78-.38,1.36-.38,1.16,0,1.67.77,1.67,2.08v2.51c0,.44,0,.95.06,1.32h-.84ZM213.54,286.19c-.48,0-1.6.08-1.6,1.34,0,.76.38,1.03.71,1.03.41,0,.76-.3.86-.88.02-.11.02-.23.02-.32v-1.18Z"/>
      <path class="cls-4" d="M215.6,288.23c.2.13.56.3.93.3.53,0,.85-.32.85-.84,0-.44-.16-.74-.74-1.14-.76-.49-1.16-.98-1.16-1.65,0-.94.7-1.61,1.59-1.61.46,0,.8.16,1.04.3l-.25.7c-.22-.14-.47-.25-.77-.25-.5,0-.76.36-.76.73,0,.4.14.61.72,1.01.67.43,1.2.96,1.2,1.76,0,1.16-.79,1.73-1.74,1.73-.43,0-.9-.13-1.15-.34l.23-.7Z"/>
      <path class="cls-4" d="M221.75,286.37c.01,1.77.71,2.16,1.38,2.16.4,0,.73-.1.96-.23l.14.68c-.32.18-.82.28-1.27.28-1.39,0-2.11-1.14-2.11-2.91,0-1.88.79-3.06,1.96-3.06s1.66,1.25,1.66,2.57c0,.22,0,.37-.01.52h-2.7ZM223.57,285.68c.02-1.16-.42-1.68-.86-1.68-.6,0-.91.89-.95,1.68h1.81Z"/>
      <path class="cls-4" d="M225.46,284.88c0-.68-.04-1.03-.05-1.5h.8l.05.7h.02c.25-.47.72-.79,1.33-.79.8,0,1.4.6,1.4,2v3.9h-.92v-3.74c0-.68-.13-1.38-.8-1.38-.38,0-.75.32-.88.95-.02.14-.04.32-.04.52v3.66h-.92v-4.31Z"/>
    </g>
    <g>
      <path class="cls-2" d="M147.91,283.38l.77,3.33c.11.46.17.84.24,1.2h.02c.06-.32.16-.77.25-1.19l.68-3.35h.91l-.95,3.73c-.36,1.46-.76,2.87-1.44,3.74-.41.52-.84.79-1.04.89l-.34-.79c.26-.14.55-.4.82-.73.24-.3.43-.7.53-.97.05-.14.06-.2.06-.29,0-.07,0-.14-.02-.22l-1.46-5.36h.97Z"/>
      <path class="cls-2" d="M153.31,288.23c.2.13.56.3.93.3.53,0,.85-.32.85-.84,0-.44-.16-.74-.74-1.14-.76-.49-1.16-.98-1.16-1.65,0-.94.7-1.61,1.59-1.61.46,0,.8.16,1.04.3l-.25.7c-.22-.14-.47-.25-.77-.25-.5,0-.76.36-.76.73,0,.4.14.61.72,1.01.67.43,1.2.96,1.2,1.76,0,1.16-.79,1.73-1.74,1.73-.43,0-.9-.13-1.15-.34l.23-.7Z"/>
      <path class="cls-2" d="M160.41,287.6c0,.65.04,1.15.05,1.58h-.8l-.06-.61h-.02c-.18.29-.62.71-1.25.71-1.02,0-1.42-.79-1.42-2.23v-3.67h.92v3.54c0,.91.14,1.58.78,1.58.54,0,.78-.5.83-.77.04-.16.05-.34.05-.53v-3.83h.92v4.22Z"/>
      <path class="cls-2" d="M161.55,288.23c.2.13.56.3.93.3.53,0,.85-.32.85-.84,0-.44-.16-.74-.74-1.14-.76-.49-1.16-.98-1.16-1.65,0-.94.7-1.61,1.59-1.61.46,0,.8.16,1.04.3l-.25.7c-.22-.14-.47-.25-.77-.25-.5,0-.76.36-.76.73,0,.4.14.61.72,1.01.67.43,1.2.96,1.2,1.76,0,1.16-.79,1.73-1.74,1.73-.43,0-.9-.13-1.15-.34l.23-.7Z"/>
      <path class="cls-2" d="M169.89,289.04c-.2.12-.55.22-.96.22-1.27,0-2.12-1.02-2.12-2.94,0-1.67.84-3.02,2.29-3.02.31,0,.65.08.82.18l-.18.76c-.12-.06-.36-.16-.66-.16-.92,0-1.34,1.1-1.34,2.24,0,1.35.52,2.17,1.37,2.17.25,0,.46-.06.67-.16l.12.71Z"/>
      <path class="cls-2" d="M174.17,286.28c0,2.24-1.04,3-1.93,3-1.04,0-1.88-.95-1.88-2.99s.95-3.01,1.94-3.01,1.87.97,1.87,3ZM171.28,286.28c0,.96.17,2.27,1.01,2.27.79,0,.95-1.37.95-2.27s-.16-2.25-.97-2.25-.98,1.37-.98,2.25Z"/>
      <path class="cls-2" d="M175.21,284.88c0-.68-.04-1.03-.05-1.5h.8l.05.7h.02c.25-.47.72-.79,1.33-.79.8,0,1.4.6,1.4,2v3.9h-.92v-3.74c0-.68-.13-1.38-.8-1.38-.38,0-.76.32-.88.95-.02.14-.04.32-.04.52v3.66h-.92v-4.31Z"/>
      <path class="cls-2" d="M179.91,288.23c.2.13.56.3.93.3.53,0,.85-.32.85-.84,0-.44-.16-.74-.74-1.14-.76-.49-1.16-.98-1.16-1.65,0-.94.7-1.61,1.59-1.61.46,0,.8.16,1.04.3l-.25.7c-.22-.14-.47-.25-.77-.25-.5,0-.76.36-.76.73,0,.4.14.61.72,1.01.67.43,1.2.96,1.2,1.76,0,1.16-.79,1.73-1.74,1.73-.43,0-.9-.13-1.15-.34l.23-.7Z"/>
      <path class="cls-2" d="M184.18,286.37c.01,1.77.71,2.16,1.38,2.16.4,0,.73-.1.96-.23l.14.68c-.32.18-.82.28-1.27.28-1.39,0-2.11-1.14-2.11-2.91,0-1.88.79-3.06,1.96-3.06s1.66,1.25,1.66,2.57c0,.22,0,.37-.01.52h-2.7ZM186,285.68c.02-1.16-.42-1.68-.86-1.68-.6,0-.91.89-.95,1.68h1.81Z"/>
      <path class="cls-2" d="M190.72,289.04c-.2.12-.55.22-.96.22-1.27,0-2.12-1.02-2.12-2.94,0-1.67.84-3.02,2.29-3.02.31,0,.65.08.82.18l-.18.76c-.12-.06-.36-.16-.66-.16-.92,0-1.34,1.1-1.34,2.24,0,1.35.52,2.17,1.37,2.17.25,0,.46-.06.67-.16l.12.71Z"/>
      <path class="cls-2" d="M195.04,287.6c0,.65.04,1.15.05,1.58h-.8l-.06-.61h-.02c-.18.29-.62.71-1.25.71-1.02,0-1.42-.79-1.42-2.23v-3.67h.92v3.54c0,.91.14,1.58.78,1.58.54,0,.78-.5.83-.77.04-.16.05-.34.05-.53v-3.83h.92v4.22Z"/>
      <path class="cls-2" d="M196.98,286.37c.01,1.77.71,2.16,1.38,2.16.4,0,.73-.1.96-.23l.14.68c-.32.18-.82.28-1.27.28-1.39,0-2.11-1.14-2.11-2.91,0-1.88.79-3.06,1.96-3.06s1.66,1.25,1.66,2.57c0,.22,0,.37-.01.52h-2.7ZM198.81,285.68c.02-1.16-.42-1.68-.86-1.68-.6,0-.91.89-.95,1.68h1.81Z"/>
      <path class="cls-2" d="M200.69,284.88c0-.68-.04-1.03-.05-1.5h.8l.05.7h.02c.25-.47.72-.79,1.33-.79.8,0,1.4.6,1.4,2v3.9h-.92v-3.74c0-.68-.13-1.38-.8-1.38-.38,0-.75.32-.88.95-.02.14-.04.32-.04.52v3.66h-.92v-4.31Z"/>
      <path class="cls-2" d="M208.38,289.04c-.2.12-.55.22-.96.22-1.27,0-2.12-1.02-2.12-2.94,0-1.67.84-3.02,2.29-3.02.31,0,.65.08.82.18l-.18.76c-.12-.06-.36-.16-.66-.16-.92,0-1.34,1.1-1.34,2.24,0,1.35.52,2.17,1.37,2.17.25,0,.46-.06.67-.16l.12.71Z"/>
      <path class="cls-2" d="M210.17,281.88c.01.36-.22.6-.56.6-.3,0-.53-.24-.53-.6s.24-.6.54-.6c.33,0,.55.24.55.6ZM209.18,289.18v-5.8h.92v5.8h-.92Z"/>
      <path class="cls-2" d="M213.68,289.18l-.06-.61h-.04c-.25.44-.66.71-1.15.71-.78,0-1.38-.66-1.38-1.65,0-1.45,1.16-2.1,2.47-2.11v-.18c0-.78-.19-1.32-.92-1.32-.36,0-.68.12-.96.3l-.2-.65c.24-.18.78-.38,1.36-.38,1.16,0,1.67.77,1.67,2.08v2.51c0,.44,0,.95.06,1.32h-.84ZM213.54,286.19c-.48,0-1.6.08-1.6,1.34,0,.76.38,1.03.71,1.03.41,0,.76-.3.86-.88.02-.11.02-.23.02-.32v-1.18Z"/>
      <path class="cls-2" d="M215.6,288.23c.2.13.56.3.93.3.53,0,.85-.32.85-.84,0-.44-.16-.74-.74-1.14-.76-.49-1.16-.98-1.16-1.65,0-.94.7-1.61,1.59-1.61.46,0,.8.16,1.04.3l-.25.7c-.22-.14-.47-.25-.77-.25-.5,0-.76.36-.76.73,0,.4.14.61.72,1.01.67.43,1.2.96,1.2,1.76,0,1.16-.79,1.73-1.74,1.73-.43,0-.9-.13-1.15-.34l.23-.7Z"/>
      <path class="cls-2" d="M221.75,286.37c.01,1.77.71,2.16,1.38,2.16.4,0,.73-.1.96-.23l.14.68c-.32.18-.82.28-1.27.28-1.39,0-2.11-1.14-2.11-2.91,0-1.88.79-3.06,1.96-3.06s1.66,1.25,1.66,2.57c0,.22,0,.37-.01.52h-2.7ZM223.57,285.68c.02-1.16-.42-1.68-.86-1.68-.6,0-.91.89-.95,1.68h1.81Z"/>
      <path class="cls-2" d="M225.46,284.88c0-.68-.04-1.03-.05-1.5h.8l.05.7h.02c.25-.47.72-.79,1.33-.79.8,0,1.4.6,1.4,2v3.9h-.92v-3.74c0-.68-.13-1.38-.8-1.38-.38,0-.75.32-.88.95-.02.14-.04.32-.04.52v3.66h-.92v-4.31Z"/>
    </g>
    <g>
      <path class="cls-1" d="M147.91,283.38l.77,3.33c.11.46.17.84.24,1.2h.02c.06-.32.16-.77.25-1.19l.68-3.35h.91l-.95,3.73c-.36,1.46-.76,2.87-1.44,3.74-.41.52-.84.79-1.04.89l-.34-.79c.26-.14.55-.4.82-.73.24-.3.43-.7.53-.97.05-.14.06-.2.06-.29,0-.07,0-.14-.02-.22l-1.46-5.36h.97Z"/>
      <path class="cls-1" d="M153.31,288.23c.2.13.56.3.93.3.53,0,.85-.32.85-.84,0-.44-.16-.74-.74-1.14-.76-.49-1.16-.98-1.16-1.65,0-.94.7-1.61,1.59-1.61.46,0,.8.16,1.04.3l-.25.7c-.22-.14-.47-.25-.77-.25-.5,0-.76.36-.76.73,0,.4.14.61.72,1.01.67.43,1.2.96,1.2,1.76,0,1.16-.79,1.73-1.74,1.73-.43,0-.9-.13-1.15-.34l.23-.7Z"/>
      <path class="cls-1" d="M160.41,287.6c0,.65.04,1.15.05,1.58h-.8l-.06-.61h-.02c-.18.29-.62.71-1.25.71-1.02,0-1.42-.79-1.42-2.23v-3.67h.92v3.54c0,.91.14,1.58.78,1.58.54,0,.78-.5.83-.77.04-.16.05-.34.05-.53v-3.83h.92v4.22Z"/>
      <path class="cls-1" d="M161.55,288.23c.2.13.56.3.93.3.53,0,.85-.32.85-.84,0-.44-.16-.74-.74-1.14-.76-.49-1.16-.98-1.16-1.65,0-.94.7-1.61,1.59-1.61.46,0,.8.16,1.04.3l-.25.7c-.22-.14-.47-.25-.77-.25-.5,0-.76.36-.76.73,0,.4.14.61.72,1.01.67.43,1.2.96,1.2,1.76,0,1.16-.79,1.73-1.74,1.73-.43,0-.9-.13-1.15-.34l.23-.7Z"/>
      <path class="cls-1" d="M169.89,289.04c-.2.12-.55.22-.96.22-1.27,0-2.12-1.02-2.12-2.94,0-1.67.84-3.02,2.29-3.02.31,0,.65.08.82.18l-.18.76c-.12-.06-.36-.16-.66-.16-.92,0-1.34,1.1-1.34,2.24,0,1.35.52,2.17,1.37,2.17.25,0,.46-.06.67-.16l.12.71Z"/>
      <path class="cls-1" d="M174.17,286.28c0,2.24-1.04,3-1.93,3-1.04,0-1.88-.95-1.88-2.99s.95-3.01,1.94-3.01,1.87.97,1.87,3ZM171.28,286.28c0,.96.17,2.27,1.01,2.27.79,0,.95-1.37.95-2.27s-.16-2.25-.97-2.25-.98,1.37-.98,2.25Z"/>
      <path class="cls-1" d="M175.21,284.88c0-.68-.04-1.03-.05-1.5h.8l.05.7h.02c.25-.47.72-.79,1.33-.79.8,0,1.4.6,1.4,2v3.9h-.92v-3.74c0-.68-.13-1.38-.8-1.38-.38,0-.76.32-.88.95-.02.14-.04.32-.04.52v3.66h-.92v-4.31Z"/>
      <path class="cls-1" d="M179.91,288.23c.2.13.56.3.93.3.53,0,.85-.32.85-.84,0-.44-.16-.74-.74-1.14-.76-.49-1.16-.98-1.16-1.65,0-.94.7-1.61,1.59-1.61.46,0,.8.16,1.04.3l-.25.7c-.22-.14-.47-.25-.77-.25-.5,0-.76.36-.76.73,0,.4.14.61.72,1.01.67.43,1.2.96,1.2,1.76,0,1.16-.79,1.73-1.74,1.73-.43,0-.9-.13-1.15-.34l.23-.7Z"/>
      <path class="cls-1" d="M184.18,286.37c.01,1.77.71,2.16,1.38,2.16.4,0,.73-.1.96-.23l.14.68c-.32.18-.82.28-1.27.28-1.39,0-2.11-1.14-2.11-2.91,0-1.88.79-3.06,1.96-3.06s1.66,1.25,1.66,2.57c0,.22,0,.37-.01.52h-2.7ZM186,285.68c.02-1.16-.42-1.68-.86-1.68-.6,0-.91.89-.95,1.68h1.81Z"/>
      <path class="cls-1" d="M190.72,289.04c-.2.12-.55.22-.96.22-1.27,0-2.12-1.02-2.12-2.94,0-1.67.84-3.02,2.29-3.02.31,0,.65.08.82.18l-.18.76c-.12-.06-.36-.16-.66-.16-.92,0-1.34,1.1-1.34,2.24,0,1.35.52,2.17,1.37,2.17.25,0,.46-.06.67-.16l.12.71Z"/>
      <path class="cls-1" d="M195.04,287.6c0,.65.04,1.15.05,1.58h-.8l-.06-.61h-.02c-.18.29-.62.71-1.25.71-1.02,0-1.42-.79-1.42-2.23v-3.67h.92v3.54c0,.91.14,1.58.78,1.58.54,0,.78-.5.83-.77.04-.16.05-.34.05-.53v-3.83h.92v4.22Z"/>
      <path class="cls-1" d="M196.98,286.37c.01,1.77.71,2.16,1.38,2.16.4,0,.73-.1.96-.23l.14.68c-.32.18-.82.28-1.27.28-1.39,0-2.11-1.14-2.11-2.91,0-1.88.79-3.06,1.96-3.06s1.66,1.25,1.66,2.57c0,.22,0,.37-.01.52h-2.7ZM198.81,285.68c.02-1.16-.42-1.68-.86-1.68-.6,0-.91.89-.95,1.68h1.81Z"/>
      <path class="cls-1" d="M200.69,284.88c0-.68-.04-1.03-.05-1.5h.8l.05.7h.02c.25-.47.72-.79,1.33-.79.8,0,1.4.6,1.4,2v3.9h-.92v-3.74c0-.68-.13-1.38-.8-1.38-.38,0-.75.32-.88.95-.02.14-.04.32-.04.52v3.66h-.92v-4.31Z"/>
      <path class="cls-1" d="M208.38,289.04c-.2.12-.55.22-.96.22-1.27,0-2.12-1.02-2.12-2.94,0-1.67.84-3.02,2.29-3.02.31,0,.65.08.82.18l-.18.76c-.12-.06-.36-.16-.66-.16-.92,0-1.34,1.1-1.34,2.24,0,1.35.52,2.17,1.37,2.17.25,0,.46-.06.67-.16l.12.71Z"/>
      <path class="cls-1" d="M210.17,281.88c.01.36-.22.6-.56.6-.3,0-.53-.24-.53-.6s.24-.6.54-.6c.33,0,.55.24.55.6ZM209.18,289.18v-5.8h.92v5.8h-.92Z"/>
      <path class="cls-1" d="M213.68,289.18l-.06-.61h-.04c-.25.44-.66.71-1.15.71-.78,0-1.38-.66-1.38-1.65,0-1.45,1.16-2.1,2.47-2.11v-.18c0-.78-.19-1.32-.92-1.32-.36,0-.68.12-.96.3l-.2-.65c.24-.18.78-.38,1.36-.38,1.16,0,1.67.77,1.67,2.08v2.51c0,.44,0,.95.06,1.32h-.84ZM213.54,286.19c-.48,0-1.6.08-1.6,1.34,0,.76.38,1.03.71,1.03.41,0,.76-.3.86-.88.02-.11.02-.23.02-.32v-1.18Z"/>
      <path class="cls-1" d="M215.6,288.23c.2.13.56.3.93.3.53,0,.85-.32.85-.84,0-.44-.16-.74-.74-1.14-.76-.49-1.16-.98-1.16-1.65,0-.94.7-1.61,1.59-1.61.46,0,.8.16,1.04.3l-.25.7c-.22-.14-.47-.25-.77-.25-.5,0-.76.36-.76.73,0,.4.14.61.72,1.01.67.43,1.2.96,1.2,1.76,0,1.16-.79,1.73-1.74,1.73-.43,0-.9-.13-1.15-.34l.23-.7Z"/>
      <path class="cls-1" d="M221.75,286.37c.01,1.77.71,2.16,1.38,2.16.4,0,.73-.1.96-.23l.14.68c-.32.18-.82.28-1.27.28-1.39,0-2.11-1.14-2.11-2.91,0-1.88.79-3.06,1.96-3.06s1.66,1.25,1.66,2.57c0,.22,0,.37-.01.52h-2.7ZM223.57,285.68c.02-1.16-.42-1.68-.86-1.68-.6,0-.91.89-.95,1.68h1.81Z"/>
      <path class="cls-1" d="M225.46,284.88c0-.68-.04-1.03-.05-1.5h.8l.05.7h.02c.25-.47.72-.79,1.33-.79.8,0,1.4.6,1.4,2v3.9h-.92v-3.74c0-.68-.13-1.38-.8-1.38-.38,0-.75.32-.88.95-.02.14-.04.32-.04.52v3.66h-.92v-4.31Z"/>
    </g>
  </g>
  <line class="cls-3" x1="188.23" y1="366.05" x2="188.23" y2="407.94"/>
  <g>
    <g>
      <path class="cls-4" d="M148.54,388.52c.01,1.77.71,2.16,1.38,2.16.4,0,.73-.1.96-.23l.14.68c-.32.18-.82.28-1.27.28-1.39,0-2.11-1.14-2.11-2.91,0-1.88.79-3.06,1.96-3.06s1.66,1.25,1.66,2.57c0,.22,0,.37-.01.52h-2.7ZM150.36,387.84c.02-1.16-.42-1.68-.86-1.68-.6,0-.91.89-.95,1.68h1.81Z"/>
      <path class="cls-4" d="M152.68,385.54l.54,1.25c.14.34.25.67.38,1.02h.02c.13-.37.26-.71.38-1.02l.53-1.25h.95l-1.38,2.87,1.37,2.94h-1.01l-.55-1.31c-.13-.31-.24-.61-.38-1h-.02c-.12.35-.25.66-.38,1l-.54,1.31h-.94l1.38-2.91-1.34-2.89h1Z"/>
      <path class="cls-4" d="M156.23,387.35c0-.89-.04-1.4-.05-1.81h.83l.05.74h.02c.31-.62.77-.84,1.22-.84,1.01,0,1.68,1.08,1.68,2.99,0,2.15-.89,3.01-1.8,3.01-.54,0-.85-.35-1.01-.67h-.02v2.88h-.92v-6.3ZM157.15,389.21c0,.18,0,.35.04.48.18.83.6.98.85.98.77,0,1.01-1.06,1.01-2.23s-.29-2.21-1.02-2.21c-.42,0-.79.53-.85,1.06-.02.14-.02.29-.02.44v1.48Z"/>
      <path class="cls-4" d="M161.02,387.03c0-.49-.04-1.07-.05-1.5h.83l.05.91h.02c.19-.55.68-1.01,1.22-1.01.07,0,.13.01.19.01v.95c-.06-.01-.12-.01-.19-.01-.59,0-1.02.54-1.12,1.21-.02.16-.04.34-.04.53v3.21h-.92v-4.31Z"/>
      <path class="cls-4" d="M164.48,388.52c.01,1.77.71,2.16,1.38,2.16.4,0,.73-.1.96-.23l.14.68c-.32.18-.82.28-1.27.28-1.39,0-2.11-1.14-2.11-2.91,0-1.88.79-3.06,1.96-3.06s1.66,1.25,1.66,2.57c0,.22,0,.37-.01.52h-2.7ZM166.31,387.84c.02-1.16-.42-1.68-.86-1.68-.6,0-.91.89-.95,1.68h1.81Z"/>
      <path class="cls-4" d="M168.04,390.38c.2.13.56.3.93.3.53,0,.85-.32.85-.84,0-.44-.16-.74-.74-1.14-.76-.49-1.16-.98-1.16-1.65,0-.94.7-1.61,1.59-1.61.46,0,.8.16,1.04.3l-.25.7c-.22-.14-.47-.25-.77-.25-.5,0-.76.36-.76.73,0,.4.14.61.72,1.01.67.43,1.2.96,1.2,1.76,0,1.16-.79,1.73-1.74,1.73-.43,0-.9-.13-1.15-.34l.23-.7Z"/>
      <path class="cls-4" d="M173.95,391.34l-.06-.61h-.04c-.25.44-.66.71-1.15.71-.78,0-1.38-.66-1.38-1.65,0-1.45,1.16-2.1,2.47-2.11v-.18c0-.78-.19-1.32-.92-1.32-.36,0-.68.12-.96.3l-.2-.65c.24-.18.78-.38,1.36-.38,1.16,0,1.67.77,1.67,2.08v2.51c0,.44,0,.95.06,1.32h-.84ZM173.82,388.34c-.48,0-1.6.08-1.6,1.34,0,.76.38,1.03.71,1.03.41,0,.76-.3.86-.88.02-.11.02-.23.02-.32v-1.18Z"/>
      <path class="cls-4" d="M179.52,383.04v6.91c0,.4.04,1.06.05,1.39h-.79l-.06-.73h-.04c-.19.42-.6.83-1.21.83-.98,0-1.69-1.07-1.69-2.97,0-2.06.85-3.02,1.75-3.02.42,0,.83.2,1.06.7h.02v-3.09h.91ZM178.61,387.74c0-.12,0-.25-.01-.38-.06-.6-.42-1.13-.86-1.13-.77,0-1.03,1.07-1.03,2.23,0,1.22.31,2.21.98,2.21.29,0,.68-.16.89-1,.02-.11.04-.24.04-.38v-1.55Z"/>
      <path class="cls-4" d="M183.11,391.34l-.06-.61h-.04c-.25.44-.66.71-1.15.71-.78,0-1.38-.66-1.38-1.65,0-1.45,1.16-2.1,2.47-2.11v-.18c0-.78-.19-1.32-.92-1.32-.36,0-.68.12-.96.3l-.2-.65c.24-.18.78-.38,1.36-.38,1.16,0,1.67.77,1.67,2.08v2.51c0,.44,0,.95.06,1.32h-.84ZM182.97,388.34c-.48,0-1.6.08-1.6,1.34,0,.76.38,1.03.71,1.03.41,0,.76-.3.86-.88.02-.11.02-.23.02-.32v-1.18Z"/>
      <path class="cls-4" d="M185.03,390.38c.2.13.56.3.93.3.53,0,.85-.32.85-.84,0-.44-.16-.74-.74-1.14-.76-.49-1.16-.98-1.16-1.65,0-.94.7-1.61,1.59-1.61.46,0,.8.16,1.04.3l-.25.7c-.22-.14-.47-.25-.77-.25-.5,0-.76.36-.76.73,0,.4.14.61.72,1.01.67.43,1.2.96,1.2,1.76,0,1.16-.79,1.73-1.74,1.73-.43,0-.9-.13-1.15-.34l.23-.7Z"/>
      <path class="cls-4" d="M192.83,391.34l-.06-.61h-.04c-.25.44-.66.71-1.15.71-.78,0-1.38-.66-1.38-1.65,0-1.45,1.16-2.1,2.47-2.11v-.18c0-.78-.19-1.32-.92-1.32-.36,0-.68.12-.96.3l-.2-.65c.24-.18.78-.38,1.36-.38,1.16,0,1.67.77,1.67,2.08v2.51c0,.44,0,.95.06,1.32h-.84ZM192.69,388.34c-.48,0-1.6.08-1.6,1.34,0,.76.38,1.03.71,1.03.41,0,.76-.3.86-.88.02-.11.02-.23.02-.32v-1.18Z"/>
      <path class="cls-4" d="M197.92,384v1.54h1.12v.71h-1.12v3.44c0,.76.28.96.61.96.14,0,.26-.01.37-.04l.04.71c-.17.06-.38.1-.68.1-.36,0-.68-.1-.91-.35-.23-.26-.35-.66-.35-1.46v-3.36h-.71v-.71h.71v-1.27l.92-.26Z"/>
      <path class="cls-4" d="M199.84,387.03c0-.49-.04-1.07-.05-1.5h.83l.05.91h.02c.19-.55.68-1.01,1.22-1.01.07,0,.13.01.19.01v.95c-.06-.01-.12-.01-.19-.01-.59,0-1.02.54-1.12,1.21-.02.16-.04.34-.04.53v3.21h-.92v-4.31Z"/>
      <path class="cls-4" d="M205.04,391.34l-.06-.61h-.04c-.25.44-.66.71-1.15.71-.78,0-1.38-.66-1.38-1.65,0-1.45,1.16-2.1,2.47-2.11v-.18c0-.78-.19-1.32-.92-1.32-.36,0-.68.12-.96.3l-.2-.65c.24-.18.78-.38,1.36-.38,1.16,0,1.67.77,1.67,2.08v2.51c0,.44,0,.95.06,1.32h-.84ZM204.91,388.34c-.48,0-1.6.08-1.6,1.34,0,.76.38,1.03.71,1.03.41,0,.76-.3.86-.88.02-.11.02-.23.02-.32v-1.18Z"/>
      <path class="cls-4" d="M207.47,385.54l.73,3.26c.08.4.18.91.25,1.42h.04c.06-.48.16-.97.24-1.42l.72-3.26h.91l-1.51,5.8h-.83l-1.51-5.8h.96Z"/>
      <path class="cls-4" d="M211.65,388.52c.01,1.77.71,2.16,1.38,2.16.4,0,.73-.1.96-.23l.14.68c-.32.18-.82.28-1.27.28-1.39,0-2.11-1.14-2.11-2.91,0-1.88.79-3.06,1.96-3.06s1.66,1.25,1.66,2.57c0,.22,0,.37-.01.52h-2.7ZM213.48,387.84c.02-1.16-.42-1.68-.86-1.68-.6,0-.91.89-.95,1.68h1.81ZM214.13,383.16l-1.26,1.62h-.61l.92-1.62h.95Z"/>
      <path class="cls-4" d="M215.21,390.38c.2.13.56.3.93.3.53,0,.85-.32.85-.84,0-.44-.16-.74-.74-1.14-.76-.49-1.16-.98-1.16-1.65,0-.94.7-1.61,1.59-1.61.46,0,.8.16,1.04.3l-.25.7c-.22-.14-.47-.25-.77-.25-.5,0-.76.36-.76.73,0,.4.14.61.72,1.01.67.43,1.2.96,1.2,1.76,0,1.16-.79,1.73-1.74,1.73-.43,0-.9-.13-1.15-.34l.23-.7Z"/>
      <path class="cls-4" d="M224.2,383.04v6.91c0,.4.04,1.06.05,1.39h-.79l-.06-.73h-.04c-.19.42-.6.83-1.21.83-.98,0-1.69-1.07-1.69-2.97,0-2.06.85-3.02,1.75-3.02.42,0,.83.2,1.06.7h.02v-3.09h.91ZM223.29,387.74c0-.12,0-.25-.01-.38-.06-.6-.42-1.13-.86-1.13-.77,0-1.03,1.07-1.03,2.23,0,1.22.31,2.21.98,2.21.29,0,.68-.16.89-1,.02-.11.04-.24.04-.38v-1.55Z"/>
      <path class="cls-4" d="M226.15,388.52c.01,1.77.71,2.16,1.38,2.16.4,0,.73-.1.96-.23l.14.68c-.32.18-.82.28-1.27.28-1.39,0-2.11-1.14-2.11-2.91,0-1.88.79-3.06,1.96-3.06s1.66,1.25,1.66,2.57c0,.22,0,.37-.01.52h-2.7ZM227.97,387.84c.02-1.16-.42-1.68-.86-1.68-.6,0-.91.89-.95,1.68h1.81Z"/>
    </g>
    <g>
      <path class="cls-2" d="M148.54,388.52c.01,1.77.71,2.16,1.38,2.16.4,0,.73-.1.96-.23l.14.68c-.32.18-.82.28-1.27.28-1.39,0-2.11-1.14-2.11-2.91,0-1.88.79-3.06,1.96-3.06s1.66,1.25,1.66,2.57c0,.22,0,.37-.01.52h-2.7ZM150.36,387.84c.02-1.16-.42-1.68-.86-1.68-.6,0-.91.89-.95,1.68h1.81Z"/>
      <path class="cls-2" d="M152.68,385.54l.54,1.25c.14.34.25.67.38,1.02h.02c.13-.37.26-.71.38-1.02l.53-1.25h.95l-1.38,2.87,1.37,2.94h-1.01l-.55-1.31c-.13-.31-.24-.61-.38-1h-.02c-.12.35-.25.66-.38,1l-.54,1.31h-.94l1.38-2.91-1.34-2.89h1Z"/>
      <path class="cls-2" d="M156.23,387.35c0-.89-.04-1.4-.05-1.81h.83l.05.74h.02c.31-.62.77-.84,1.22-.84,1.01,0,1.68,1.08,1.68,2.99,0,2.15-.89,3.01-1.8,3.01-.54,0-.85-.35-1.01-.67h-.02v2.88h-.92v-6.3ZM157.15,389.21c0,.18,0,.35.04.48.18.83.6.98.85.98.77,0,1.01-1.06,1.01-2.23s-.29-2.21-1.02-2.21c-.42,0-.79.53-.85,1.06-.02.14-.02.29-.02.44v1.48Z"/>
      <path class="cls-2" d="M161.02,387.03c0-.49-.04-1.07-.05-1.5h.83l.05.91h.02c.19-.55.68-1.01,1.22-1.01.07,0,.13.01.19.01v.95c-.06-.01-.12-.01-.19-.01-.59,0-1.02.54-1.12,1.21-.02.16-.04.34-.04.53v3.21h-.92v-4.31Z"/>
      <path class="cls-2" d="M164.48,388.52c.01,1.77.71,2.16,1.38,2.16.4,0,.73-.1.96-.23l.14.68c-.32.18-.82.28-1.27.28-1.39,0-2.11-1.14-2.11-2.91,0-1.88.79-3.06,1.96-3.06s1.66,1.25,1.66,2.57c0,.22,0,.37-.01.52h-2.7ZM166.31,387.84c.02-1.16-.42-1.68-.86-1.68-.6,0-.91.89-.95,1.68h1.81Z"/>
      <path class="cls-2" d="M168.04,390.38c.2.13.56.3.93.3.53,0,.85-.32.85-.84,0-.44-.16-.74-.74-1.14-.76-.49-1.16-.98-1.16-1.65,0-.94.7-1.61,1.59-1.61.46,0,.8.16,1.04.3l-.25.7c-.22-.14-.47-.25-.77-.25-.5,0-.76.36-.76.73,0,.4.14.61.72,1.01.67.43,1.2.96,1.2,1.76,0,1.16-.79,1.73-1.74,1.73-.43,0-.9-.13-1.15-.34l.23-.7Z"/>
      <path class="cls-2" d="M173.95,391.34l-.06-.61h-.04c-.25.44-.66.71-1.15.71-.78,0-1.38-.66-1.38-1.65,0-1.45,1.16-2.1,2.47-2.11v-.18c0-.78-.19-1.32-.92-1.32-.36,0-.68.12-.96.3l-.2-.65c.24-.18.78-.38,1.36-.38,1.16,0,1.67.77,1.67,2.08v2.51c0,.44,0,.95.06,1.32h-.84ZM173.82,388.34c-.48,0-1.6.08-1.6,1.34,0,.76.38,1.03.71,1.03.41,0,.76-.3.86-.88.02-.11.02-.23.02-.32v-1.18Z"/>
      <path class="cls-2" d="M179.52,383.04v6.91c0,.4.04,1.06.05,1.39h-.79l-.06-.73h-.04c-.19.42-.6.83-1.21.83-.98,0-1.69-1.07-1.69-2.97,0-2.06.85-3.02,1.75-3.02.42,0,.83.2,1.06.7h.02v-3.09h.91ZM178.61,387.74c0-.12,0-.25-.01-.38-.06-.6-.42-1.13-.86-1.13-.77,0-1.03,1.07-1.03,2.23,0,1.22.31,2.21.98,2.21.29,0,.68-.16.89-1,.02-.11.04-.24.04-.38v-1.55Z"/>
      <path class="cls-2" d="M183.11,391.34l-.06-.61h-.04c-.25.44-.66.71-1.15.71-.78,0-1.38-.66-1.38-1.65,0-1.45,1.16-2.1,2.47-2.11v-.18c0-.78-.19-1.32-.92-1.32-.36,0-.68.12-.96.3l-.2-.65c.24-.18.78-.38,1.36-.38,1.16,0,1.67.77,1.67,2.08v2.51c0,.44,0,.95.06,1.32h-.84ZM182.97,388.34c-.48,0-1.6.08-1.6,1.34,0,.76.38,1.03.71,1.03.41,0,.76-.3.86-.88.02-.11.02-.23.02-.32v-1.18Z"/>
      <path class="cls-2" d="M185.03,390.38c.2.13.56.3.93.3.53,0,.85-.32.85-.84,0-.44-.16-.74-.74-1.14-.76-.49-1.16-.98-1.16-1.65,0-.94.7-1.61,1.59-1.61.46,0,.8.16,1.04.3l-.25.7c-.22-.14-.47-.25-.77-.25-.5,0-.76.36-.76.73,0,.4.14.61.72,1.01.67.43,1.2.96,1.2,1.76,0,1.16-.79,1.73-1.74,1.73-.43,0-.9-.13-1.15-.34l.23-.7Z"/>
      <path class="cls-2" d="M192.83,391.34l-.06-.61h-.04c-.25.44-.66.71-1.15.71-.78,0-1.38-.66-1.38-1.65,0-1.45,1.16-2.1,2.47-2.11v-.18c0-.78-.19-1.32-.92-1.32-.36,0-.68.12-.96.3l-.2-.65c.24-.18.78-.38,1.36-.38,1.16,0,1.67.77,1.67,2.08v2.51c0,.44,0,.95.06,1.32h-.84ZM192.69,388.34c-.48,0-1.6.08-1.6,1.34,0,.76.38,1.03.71,1.03.41,0,.76-.3.86-.88.02-.11.02-.23.02-.32v-1.18Z"/>
      <path class="cls-2" d="M197.92,384v1.54h1.12v.71h-1.12v3.44c0,.76.28.96.61.96.14,0,.26-.01.37-.04l.04.71c-.17.06-.38.1-.68.1-.36,0-.68-.1-.91-.35-.23-.26-.35-.66-.35-1.46v-3.36h-.71v-.71h.71v-1.27l.92-.26Z"/>
      <path class="cls-2" d="M199.84,387.03c0-.49-.04-1.07-.05-1.5h.83l.05.91h.02c.19-.55.68-1.01,1.22-1.01.07,0,.13.01.19.01v.95c-.06-.01-.12-.01-.19-.01-.59,0-1.02.54-1.12,1.21-.02.16-.04.34-.04.53v3.21h-.92v-4.31Z"/>
      <path class="cls-2" d="M205.04,391.34l-.06-.61h-.04c-.25.44-.66.71-1.15.71-.78,0-1.38-.66-1.38-1.65,0-1.45,1.16-2.1,2.47-2.11v-.18c0-.78-.19-1.32-.92-1.32-.36,0-.68.12-.96.3l-.2-.65c.24-.18.78-.38,1.36-.38,1.16,0,1.67.77,1.67,2.08v2.51c0,.44,0,.95.06,1.32h-.84ZM204.91,388.34c-.48,0-1.6.08-1.6,1.34,0,.76.38,1.03.71,1.03.41,0,.76-.3.86-.88.02-.11.02-.23.02-.32v-1.18Z"/>
      <path class="cls-2" d="M207.47,385.54l.73,3.26c.08.4.18.91.25,1.42h.04c.06-.48.16-.97.24-1.42l.72-3.26h.91l-1.51,5.8h-.83l-1.51-5.8h.96Z"/>
      <path class="cls-2" d="M211.65,388.52c.01,1.77.71,2.16,1.38,2.16.4,0,.73-.1.96-.23l.14.68c-.32.18-.82.28-1.27.28-1.39,0-2.11-1.14-2.11-2.91,0-1.88.79-3.06,1.96-3.06s1.66,1.25,1.66,2.57c0,.22,0,.37-.01.52h-2.7ZM213.48,387.84c.02-1.16-.42-1.68-.86-1.68-.6,0-.91.89-.95,1.68h1.81ZM214.13,383.16l-1.26,1.62h-.61l.92-1.62h.95Z"/>
      <path class="cls-2" d="M215.21,390.38c.2.13.56.3.93.3.53,0,.85-.32.85-.84,0-.44-.16-.74-.74-1.14-.76-.49-1.16-.98-1.16-1.65,0-.94.7-1.61,1.59-1.61.46,0,.8.16,1.04.3l-.25.7c-.22-.14-.47-.25-.77-.25-.5,0-.76.36-.76.73,0,.4.14.61.72,1.01.67.43,1.2.96,1.2,1.76,0,1.16-.79,1.73-1.74,1.73-.43,0-.9-.13-1.15-.34l.23-.7Z"/>
      <path class="cls-2" d="M224.2,383.04v6.91c0,.4.04,1.06.05,1.39h-.79l-.06-.73h-.04c-.19.42-.6.83-1.21.83-.98,0-1.69-1.07-1.69-2.97,0-2.06.85-3.02,1.75-3.02.42,0,.83.2,1.06.7h.02v-3.09h.91ZM223.29,387.74c0-.12,0-.25-.01-.38-.06-.6-.42-1.13-.86-1.13-.77,0-1.03,1.07-1.03,2.23,0,1.22.31,2.21.98,2.21.29,0,.68-.16.89-1,.02-.11.04-.24.04-.38v-1.55Z"/>
      <path class="cls-2" d="M226.15,388.52c.01,1.77.71,2.16,1.38,2.16.4,0,.73-.1.96-.23l.14.68c-.32.18-.82.28-1.27.28-1.39,0-2.11-1.14-2.11-2.91,0-1.88.79-3.06,1.96-3.06s1.66,1.25,1.66,2.57c0,.22,0,.37-.01.52h-2.7ZM227.97,387.84c.02-1.16-.42-1.68-.86-1.68-.6,0-.91.89-.95,1.68h1.81Z"/>
    </g>
    <g>
      <path class="cls-1" d="M148.54,388.52c.01,1.77.71,2.16,1.38,2.16.4,0,.73-.1.96-.23l.14.68c-.32.18-.82.28-1.27.28-1.39,0-2.11-1.14-2.11-2.91,0-1.88.79-3.06,1.96-3.06s1.66,1.25,1.66,2.57c0,.22,0,.37-.01.52h-2.7ZM150.36,387.84c.02-1.16-.42-1.68-.86-1.68-.6,0-.91.89-.95,1.68h1.81Z"/>
      <path class="cls-1" d="M152.68,385.54l.54,1.25c.14.34.25.67.38,1.02h.02c.13-.37.26-.71.38-1.02l.53-1.25h.95l-1.38,2.87,1.37,2.94h-1.01l-.55-1.31c-.13-.31-.24-.61-.38-1h-.02c-.12.35-.25.66-.38,1l-.54,1.31h-.94l1.38-2.91-1.34-2.89h1Z"/>
      <path class="cls-1" d="M156.23,387.35c0-.89-.04-1.4-.05-1.81h.83l.05.74h.02c.31-.62.77-.84,1.22-.84,1.01,0,1.68,1.08,1.68,2.99,0,2.15-.89,3.01-1.8,3.01-.54,0-.85-.35-1.01-.67h-.02v2.88h-.92v-6.3ZM157.15,389.21c0,.18,0,.35.04.48.18.83.6.98.85.98.77,0,1.01-1.06,1.01-2.23s-.29-2.21-1.02-2.21c-.42,0-.79.53-.85,1.06-.02.14-.02.29-.02.44v1.48Z"/>
      <path class="cls-1" d="M161.02,387.03c0-.49-.04-1.07-.05-1.5h.83l.05.91h.02c.19-.55.68-1.01,1.22-1.01.07,0,.13.01.19.01v.95c-.06-.01-.12-.01-.19-.01-.59,0-1.02.54-1.12,1.21-.02.16-.04.34-.04.53v3.21h-.92v-4.31Z"/>
      <path class="cls-1" d="M164.48,388.52c.01,1.77.71,2.16,1.38,2.16.4,0,.73-.1.96-.23l.14.68c-.32.18-.82.28-1.27.28-1.39,0-2.11-1.14-2.11-2.91,0-1.88.79-3.06,1.96-3.06s1.66,1.25,1.66,2.57c0,.22,0,.37-.01.52h-2.7ZM166.31,387.84c.02-1.16-.42-1.68-.86-1.68-.6,0-.91.89-.95,1.68h1.81Z"/>
      <path class="cls-1" d="M168.04,390.38c.2.13.56.3.93.3.53,0,.85-.32.85-.84,0-.44-.16-.74-.74-1.14-.76-.49-1.16-.98-1.16-1.65,0-.94.7-1.61,1.59-1.61.46,0,.8.16,1.04.3l-.25.7c-.22-.14-.47-.25-.77-.25-.5,0-.76.36-.76.73,0,.4.14.61.72,1.01.67.43,1.2.96,1.2,1.76,0,1.16-.79,1.73-1.74,1.73-.43,0-.9-.13-1.15-.34l.23-.7Z"/>
      <path class="cls-1" d="M173.95,391.34l-.06-.61h-.04c-.25.44-.66.71-1.15.71-.78,0-1.38-.66-1.38-1.65,0-1.45,1.16-2.1,2.47-2.11v-.18c0-.78-.19-1.32-.92-1.32-.36,0-.68.12-.96.3l-.2-.65c.24-.18.78-.38,1.36-.38,1.16,0,1.67.77,1.67,2.08v2.51c0,.44,0,.95.06,1.32h-.84ZM173.82,388.34c-.48,0-1.6.08-1.6,1.34,0,.76.38,1.03.71,1.03.41,0,.76-.3.86-.88.02-.11.02-.23.02-.32v-1.18Z"/>
      <path class="cls-1" d="M179.52,383.04v6.91c0,.4.04,1.06.05,1.39h-.79l-.06-.73h-.04c-.19.42-.6.83-1.21.83-.98,0-1.69-1.07-1.69-2.97,0-2.06.85-3.02,1.75-3.02.42,0,.83.2,1.06.7h.02v-3.09h.91ZM178.61,387.74c0-.12,0-.25-.01-.38-.06-.6-.42-1.13-.86-1.13-.77,0-1.03,1.07-1.03,2.23,0,1.22.31,2.21.98,2.21.29,0,.68-.16.89-1,.02-.11.04-.24.04-.38v-1.55Z"/>
      <path class="cls-1" d="M183.11,391.34l-.06-.61h-.04c-.25.44-.66.71-1.15.71-.78,0-1.38-.66-1.38-1.65,0-1.45,1.16-2.1,2.47-2.11v-.18c0-.78-.19-1.32-.92-1.32-.36,0-.68.12-.96.3l-.2-.65c.24-.18.78-.38,1.36-.38,1.16,0,1.67.77,1.67,2.08v2.51c0,.44,0,.95.06,1.32h-.84ZM182.97,388.34c-.48,0-1.6.08-1.6,1.34,0,.76.38,1.03.71,1.03.41,0,.76-.3.86-.88.02-.11.02-.23.02-.32v-1.18Z"/>
      <path class="cls-1" d="M185.03,390.38c.2.13.56.3.93.3.53,0,.85-.32.85-.84,0-.44-.16-.74-.74-1.14-.76-.49-1.16-.98-1.16-1.65,0-.94.7-1.61,1.59-1.61.46,0,.8.16,1.04.3l-.25.7c-.22-.14-.47-.25-.77-.25-.5,0-.76.36-.76.73,0,.4.14.61.72,1.01.67.43,1.2.96,1.2,1.76,0,1.16-.79,1.73-1.74,1.73-.43,0-.9-.13-1.15-.34l.23-.7Z"/>
      <path class="cls-1" d="M192.83,391.34l-.06-.61h-.04c-.25.44-.66.71-1.15.71-.78,0-1.38-.66-1.38-1.65,0-1.45,1.16-2.1,2.47-2.11v-.18c0-.78-.19-1.32-.92-1.32-.36,0-.68.12-.96.3l-.2-.65c.24-.18.78-.38,1.36-.38,1.16,0,1.67.77,1.67,2.08v2.51c0,.44,0,.95.06,1.32h-.84ZM192.69,388.34c-.48,0-1.6.08-1.6,1.34,0,.76.38,1.03.71,1.03.41,0,.76-.3.86-.88.02-.11.02-.23.02-.32v-1.18Z"/>
      <path class="cls-1" d="M197.92,384v1.54h1.12v.71h-1.12v3.44c0,.76.28.96.61.96.14,0,.26-.01.37-.04l.04.71c-.17.06-.38.1-.68.1-.36,0-.68-.1-.91-.35-.23-.26-.35-.66-.35-1.46v-3.36h-.71v-.71h.71v-1.27l.92-.26Z"/>
      <path class="cls-1" d="M199.84,387.03c0-.49-.04-1.07-.05-1.5h.83l.05.91h.02c.19-.55.68-1.01,1.22-1.01.07,0,.13.01.19.01v.95c-.06-.01-.12-.01-.19-.01-.59,0-1.02.54-1.12,1.21-.02.16-.04.34-.04.53v3.21h-.92v-4.31Z"/>
      <path class="cls-1" d="M205.04,391.34l-.06-.61h-.04c-.25.44-.66.71-1.15.71-.78,0-1.38-.66-1.38-1.65,0-1.45,1.16-2.1,2.47-2.11v-.18c0-.78-.19-1.32-.92-1.32-.36,0-.68.12-.96.3l-.2-.65c.24-.18.78-.38,1.36-.38,1.16,0,1.67.77,1.67,2.08v2.51c0,.44,0,.95.06,1.32h-.84ZM204.91,388.34c-.48,0-1.6.08-1.6,1.34,0,.76.38,1.03.71,1.03.41,0,.76-.3.86-.88.02-.11.02-.23.02-.32v-1.18Z"/>
      <path class="cls-1" d="M207.47,385.54l.73,3.26c.08.4.18.91.25,1.42h.04c.06-.48.16-.97.24-1.42l.72-3.26h.91l-1.51,5.8h-.83l-1.51-5.8h.96Z"/>
      <path class="cls-1" d="M211.65,388.52c.01,1.77.71,2.16,1.38,2.16.4,0,.73-.1.96-.23l.14.68c-.32.18-.82.28-1.27.28-1.39,0-2.11-1.14-2.11-2.91,0-1.88.79-3.06,1.96-3.06s1.66,1.25,1.66,2.57c0,.22,0,.37-.01.52h-2.7ZM213.48,387.84c.02-1.16-.42-1.68-.86-1.68-.6,0-.91.89-.95,1.68h1.81ZM214.13,383.16l-1.26,1.62h-.61l.92-1.62h.95Z"/>
      <path class="cls-1" d="M215.21,390.38c.2.13.56.3.93.3.53,0,.85-.32.85-.84,0-.44-.16-.74-.74-1.14-.76-.49-1.16-.98-1.16-1.65,0-.94.7-1.61,1.59-1.61.46,0,.8.16,1.04.3l-.25.7c-.22-.14-.47-.25-.77-.25-.5,0-.76.36-.76.73,0,.4.14.61.72,1.01.67.43,1.2.96,1.2,1.76,0,1.16-.79,1.73-1.74,1.73-.43,0-.9-.13-1.15-.34l.23-.7Z"/>
      <path class="cls-1" d="M224.2,383.04v6.91c0,.4.04,1.06.05,1.39h-.79l-.06-.73h-.04c-.19.42-.6.83-1.21.83-.98,0-1.69-1.07-1.69-2.97,0-2.06.85-3.02,1.75-3.02.42,0,.83.2,1.06.7h.02v-3.09h.91ZM223.29,387.74c0-.12,0-.25-.01-.38-.06-.6-.42-1.13-.86-1.13-.77,0-1.03,1.07-1.03,2.23,0,1.22.31,2.21.98,2.21.29,0,.68-.16.89-1,.02-.11.04-.24.04-.38v-1.55Z"/>
      <path class="cls-1" d="M226.15,388.52c.01,1.77.71,2.16,1.38,2.16.4,0,.73-.1.96-.23l.14.68c-.32.18-.82.28-1.27.28-1.39,0-2.11-1.14-2.11-2.91,0-1.88.79-3.06,1.96-3.06s1.66,1.25,1.66,2.57c0,.22,0,.37-.01.52h-2.7ZM227.97,387.84c.02-1.16-.42-1.68-.86-1.68-.6,0-.91.89-.95,1.68h1.81Z"/>
    </g>
  </g>
  <g>
    <path class="cls-1" d="M215.68,335.97h-2.71v4.05h3.07v1.07h-4.31v-10.79h4.11v1.07h-2.88v3.55h2.71v1.04Z"/>
    <path class="cls-1" d="M217.4,330.47c.48-.14,1.04-.21,1.67-.21,1.14,0,1.94.29,2.53.82.83.72,1.46,2.11,1.46,4.37,0,2.47-.61,3.81-1.3,4.55-.71.8-1.73,1.17-2.98,1.17-.5,0-1.01-.03-1.38-.11v-10.58ZM218.64,340.09c.18.03.35.03.46.03,1.36,0,2.67-.98,2.67-4.64,0-2.72-.83-4.21-2.56-4.21-.19,0-.42.02-.58.06v8.76Z"/>
    <path class="cls-1" d="M225.74,330.31v7.24c0,1.94.64,2.59,1.47,2.59.91,0,1.49-.7,1.49-2.59v-7.24h1.23v7.04c0,2.8-1.15,3.87-2.75,3.87s-2.67-1.06-2.67-3.73v-7.19h1.23Z"/>
    <path class="cls-1" d="M236.54,340.9c-.34.18-.86.29-1.54.29-2.11,0-3.62-1.7-3.62-5.36,0-4.26,2.11-5.62,3.81-5.62.66,0,1.12.13,1.34.27l-.27,1.04c-.26-.11-.53-.22-1.09-.22-1.15,0-2.5,1.12-2.5,4.42s1.22,4.39,2.53,4.39c.46,0,.88-.11,1.14-.24l.19,1.04Z"/>
    <path class="cls-1" d="M239.2,337.86l-.72,3.23h-1.18l2.46-10.79h1.36l2.4,10.79h-1.22l-.72-3.23h-2.38ZM241.42,336.87l-.56-2.74c-.16-.77-.3-1.66-.43-2.46h-.06c-.13.82-.29,1.74-.43,2.46l-.56,2.74h2.05Z"/>
    <path class="cls-1" d="M249.24,340.9c-.34.18-.86.29-1.54.29-2.11,0-3.62-1.7-3.62-5.36,0-4.26,2.11-5.62,3.81-5.62.66,0,1.12.13,1.34.27l-.27,1.04c-.26-.11-.53-.22-1.09-.22-1.15,0-2.5,1.12-2.5,4.42s1.22,4.39,2.53,4.39c.46,0,.88-.11,1.14-.24l.19,1.04Z"/>
    <path class="cls-1" d="M251.74,330.31v10.79h-1.23v-10.79h1.23Z"/>
    <path class="cls-1" d="M259.36,335.62c0,4.05-1.39,5.6-3.12,5.6s-2.99-1.9-2.99-5.54,1.28-5.51,3.17-5.51,2.95,2,2.95,5.44ZM254.52,335.7c0,2.22.43,4.43,1.79,4.43s1.76-2.35,1.76-4.47-.37-4.4-1.78-4.4-1.78,2.24-1.78,4.43ZM258.49,328l-1.99,1.73h-.98l1.5-1.73h1.46Z"/>
    <path class="cls-1" d="M260.83,341.09v-10.79h1.17l1.98,5.06c.45,1.15,1.01,2.59,1.38,3.76h.03c-.1-1.7-.14-3.09-.14-4.96v-3.86h1.1v10.79h-1.17l-2.05-5.19c-.43-1.09-.9-2.32-1.28-3.67h-.03c.1,1.44.13,2.82.13,5.12v3.73h-1.12Z"/>
  </g>
  <rect class="cls-3" x="203.61" y="323.03" width="70.88" height="25.34" rx="7.06" ry="7.06"/>
  <g>
    <path class="cls-1" d="M132.16,339.67c.37.24,1.01.43,1.55.43,1.12,0,1.79-.74,1.79-1.83,0-.99-.58-1.6-1.42-2.24-.85-.59-2.03-1.6-2.03-2.99,0-1.63,1.14-2.83,2.85-2.83.67,0,1.26.21,1.52.4l-.3,1.06c-.27-.19-.72-.37-1.28-.37-1.06,0-1.55.8-1.55,1.54,0,1.07.56,1.49,1.58,2.22,1.3.91,1.87,1.9,1.87,3.11,0,1.86-1.31,3.03-3.03,3.03-.74,0-1.52-.24-1.82-.46l.27-1.06Z"/>
    <path class="cls-1" d="M139.47,337.86l-.72,3.23h-1.18l2.46-10.79h1.36l2.4,10.79h-1.22l-.72-3.23h-2.38ZM141.69,336.87l-.56-2.74c-.16-.77-.3-1.66-.43-2.46h-.06c-.13.82-.29,1.74-.43,2.46l-.56,2.74h2.05Z"/>
    <path class="cls-1" d="M145.13,330.31h1.23v9.75h3.04v1.04h-4.27v-10.79Z"/>
    <path class="cls-1" d="M151.36,330.31v7.24c0,1.94.64,2.59,1.47,2.59.91,0,1.49-.7,1.49-2.59v-7.24h1.23v7.04c0,2.8-1.15,3.87-2.75,3.87s-2.67-1.06-2.67-3.73v-7.19h1.23Z"/>
    <path class="cls-1" d="M157.45,330.47c.48-.14,1.04-.21,1.67-.21,1.14,0,1.94.29,2.53.82.83.72,1.46,2.11,1.46,4.37,0,2.47-.61,3.81-1.3,4.55-.7.8-1.73,1.17-2.98,1.17-.5,0-1.01-.03-1.38-.11v-10.58ZM158.69,340.09c.18.03.35.03.46.03,1.36,0,2.67-.98,2.67-4.64,0-2.72-.83-4.21-2.56-4.21-.19,0-.42.02-.58.06v8.76Z"/>
  </g>
  <rect class="cls-3" x="123.61" y="323.03" width="47.84" height="25.34" rx="7.06" ry="7.06"/>
  <path class="cls-3" d="M147.53,322.54v-8.24c0-4.93,4-8.93,8.93-8.93h73.65c4.93,0,8.93,4,8.93,8.93v8.24"/>
  <path class="cls-3" d="M147.53,348.87v8.24c0,4.93,4,8.93,8.93,8.93h73.65c4.93,0,8.93-4,8.93-8.93v-8.24"/>
</svg>